<?xml version="1.0" standalone="no"?>
<!DOCTYPE svg PUBLIC "-//W3C//DTD SVG 20010904//EN"
 "http://www.w3.org/TR/2001/REC-SVG-20010904/DTD/svg10.dtd">
<svg version="1.0" xmlns="http://www.w3.org/2000/svg"
 width="500.000000pt" height="500.000000pt" viewBox="0 0 500.000000 500.000000"
 preserveAspectRatio="xMidYMid meet">

<g transform="translate(0.000000,500.000000) scale(0.100000,-0.100000)"
fill="#000000" stroke="none">
<path d="M2536 4201 c-13 -20 -11 -180 2 -192 23 -24 33 6 35 102 2 80 0 94
-15 97 -9 2 -19 -1 -22 -7z"/>
<path d="M2313 4139 c-14 -14 -1 -42 55 -126 35 -53 62 -68 62 -35 0 19 -88
172 -99 172 -4 0 -12 -5 -18 -11z"/>
<path d="M2749 4123 c-9 -10 -32 -44 -52 -75 -39 -59 -47 -98 -22 -98 18 0
117 147 113 169 -4 22 -23 24 -39 4z"/>
<path d="M2250 3953 c0 -20 69 -73 94 -73 27 0 18 27 -21 59 -42 35 -73 40
-73 14z"/>
<path d="M2443 3855 c-54 -57 -64 -110 -39 -207 16 -62 16 -72 2 -121 -8 -29
-33 -81 -55 -114 l-40 -62 -45 45 c-39 40 -44 49 -39 79 7 45 -20 123 -58 163
-36 38 -98 72 -133 72 -16 0 -34 12 -54 38 -17 21 -54 51 -84 68 -48 26 -62
29 -143 29 -80 0 -96 -3 -142 -29 l-52 -29 -66 18 c-120 33 -249 -3 -339 -93
-24 -24 -50 -57 -56 -73 -8 -19 -27 -36 -54 -48 -22 -10 -56 -31 -75 -47 -39
-33 -81 -115 -81 -161 0 -24 -8 -38 -39 -62 -42 -33 -91 -119 -91 -158 0 -33
-16 -28 -29 10 -19 53 -24 139 -12 199 l12 56 45 7 c55 8 128 70 122 106 -7
46 -67 50 -109 8 -27 -27 -35 -18 -14 14 14 23 15 29 1 61 -18 44 -2 48 22 6
20 -35 71 -44 73 -12 3 41 -4 59 -32 85 -24 22 -39 27 -80 27 -28 0 -60 -5
-72 -11 -94 -48 -131 -173 -81 -270 10 -20 15 -65 17 -142 2 -104 4 -117 34
-178 20 -40 53 -85 83 -113 47 -44 50 -49 49 -94 -3 -118 93 -221 206 -222 35
0 42 -4 53 -30 8 -18 33 -42 60 -58 38 -22 59 -27 112 -27 42 0 77 7 99 18 19
9 36 15 39 12 3 -2 1 -24 -4 -47 -9 -41 -11 -43 -40 -40 -69 7 -220 -53 -243
-97 -7 -13 -27 -20 -71 -24 -125 -13 -227 -97 -254 -209 -4 -18 -19 -34 -44
-47 -45 -23 -98 -87 -117 -142 -19 -53 -19 -130 0 -175 14 -33 13 -39 -6 -77
-73 -142 -1 -317 148 -362 51 -15 60 -22 76 -56 10 -22 39 -53 63 -71 26 -18
43 -37 40 -45 -7 -18 11 -64 30 -78 14 -10 13 -23 -16 -125 -17 -63 -29 -124
-26 -135 8 -32 51 -49 84 -33 23 11 31 28 55 118 15 57 29 105 30 106 1 1 36
-3 79 -9 l76 -11 7 -133 c8 -147 19 -175 68 -175 54 -1 58 12 56 166 l-1 140
58 13 c32 8 64 11 71 9 24 -10 14 -68 -24 -134 -21 -35 -43 -74 -50 -85 -18
-31 6 -52 85 -75 140 -42 217 -40 229 6 5 20 0 31 -25 53 -28 25 -114 59 -149
59 -17 0 -16 4 2 40 l15 29 25 -24 c27 -28 42 -30 68 -11 21 16 23 95 4 177
-8 30 -11 63 -7 73 7 22 67 49 75 35 4 -5 37 -9 76 -9 l69 0 0 -30 c0 -39 -19
-76 -77 -150 -72 -94 -52 -121 105 -145 114 -17 171 -3 172 43 0 28 -56 70
-112 82 l-55 12 28 52 c32 57 37 116 14 156 -21 36 -20 37 33 45 165 24 216
143 121 283 -30 44 -36 62 -20 62 15 0 71 92 82 135 l10 41 67 -3 c37 -2 91
-6 120 -9 l52 -5 0 -158 0 -158 -62 -13 c-208 -40 -266 -186 -106 -264 60 -29
184 -56 261 -56 122 0 271 44 317 95 33 35 35 111 5 145 -28 32 -127 77 -186
85 l-49 7 0 159 c0 119 3 161 13 163 6 3 57 7 112 10 l101 6 19 -37 c14 -26
19 -51 17 -84 -5 -63 26 -132 83 -184 l44 -42 -24 -48 c-36 -69 -34 -142 5
-233 17 -39 30 -73 30 -76 0 -4 -21 -6 -46 -6 -88 0 -160 -58 -120 -98 14 -14
36 -17 139 -16 121 0 167 11 167 37 0 7 -25 61 -55 120 -47 92 -55 115 -55
163 0 89 47 165 73 118 5 -10 28 -36 50 -58 37 -35 39 -40 27 -60 -63 -98 -67
-169 -15 -296 19 -47 35 -86 35 -87 0 -1 -22 -9 -49 -18 -65 -21 -101 -50
-101 -81 0 -30 31 -39 106 -31 57 6 149 49 159 75 3 8 -15 54 -39 101 -76 148
-81 213 -19 293 25 32 34 36 88 41 35 3 65 1 72 -5 7 -6 29 -16 49 -23 l36
-12 -43 -24 c-27 -15 -54 -42 -74 -73 -27 -44 -30 -58 -30 -126 0 -63 5 -85
28 -129 15 -30 26 -55 25 -56 -2 -1 -30 -14 -63 -29 -73 -33 -95 -52 -95 -83
0 -35 40 -47 108 -32 69 16 156 67 160 95 2 11 -13 44 -32 72 -61 91 -67 191
-14 264 17 25 21 26 41 14 12 -8 46 -21 75 -31 28 -9 52 -18 52 -19 0 -2 -7
-47 -15 -102 -21 -139 -20 -191 4 -204 28 -14 66 -12 80 4 11 14 40 200 41
261 0 31 1 31 78 43 42 7 89 15 103 18 25 6 27 3 54 -93 32 -115 39 -130 64
-138 26 -8 68 10 75 33 4 10 -8 63 -25 118 -44 139 -44 136 -15 179 14 21 26
51 26 66 0 27 2 29 43 29 91 1 193 75 227 166 11 30 20 67 20 81 0 18 12 37
41 61 118 101 120 309 5 410 -33 29 -37 38 -41 92 -3 33 -13 77 -24 98 -27 54
-99 116 -157 136 -74 27 -79 31 -77 62 9 128 -2 167 -66 237 -47 51 -49 57
-18 57 12 0 45 11 73 24 125 58 178 218 112 338 l-21 37 22 50 c53 125 4 283
-108 340 -28 15 -40 30 -53 68 -34 96 -116 161 -211 166 -39 3 -53 10 -97 51
-79 73 -126 91 -245 91 -76 0 -108 -4 -132 -17 -29 -17 -34 -17 -70 -1 -53 23
-166 23 -222 0 -59 -24 -113 -68 -135 -109 -14 -26 -30 -38 -61 -47 -71 -21
-135 -105 -135 -176 0 -22 -11 -52 -27 -78 -23 -36 -28 -53 -28 -114 0 -40 -3
-73 -7 -73 -12 0 -56 85 -72 139 -24 80 -21 108 14 143 38 37 80 118 80 153 0
14 -9 33 -20 42 -11 10 -20 27 -20 38 -1 26 -34 100 -50 110 -7 4 -45 9 -84
11 l-71 3 -42 -44z m96 -4 c8 -5 20 -40 26 -78 10 -55 9 -74 -1 -102 -16 -39
-18 -71 -5 -71 5 0 21 20 35 44 25 43 79 76 91 56 9 -15 -52 -126 -85 -154
-49 -41 -87 -34 -122 22 -28 45 -48 151 -38 198 15 66 27 61 40 -20 10 -63 17
-79 31 -71 12 8 11 56 -2 110 -16 63 -4 88 30 66z m98 -50 c7 -24 10 -48 7
-52 -13 -21 -31 -6 -42 36 -16 60 -15 67 5 63 10 -2 22 -20 30 -47z m1018 5
c27 -12 65 -35 83 -50 l32 -28 -45 -29 c-29 -18 -45 -36 -45 -49 0 -26 2 -25
53 7 85 53 193 38 261 -37 30 -33 56 -91 56 -125 0 -6 15 -17 34 -23 75 -27
122 -92 133 -181 6 -56 -7 -104 -42 -151 l-25 -34 24 -25 c46 -49 60 -138 32
-204 -19 -45 -76 -100 -121 -116 -35 -12 -39 -12 -54 8 -18 23 -35 17 -45 -15
l-7 -22 -49 19 c-57 21 -156 25 -194 7 -14 -6 -33 -22 -41 -35 -9 -13 -25 -23
-40 -23 -23 0 -21 4 31 79 55 81 109 203 100 228 -11 27 -37 11 -62 -39 -41
-82 -121 -192 -175 -243 l-50 -47 -38 41 c-22 24 -47 41 -60 41 -29 0 -111
-43 -133 -69 -27 -33 -74 -27 -113 12 -32 32 -36 33 -92 29 -47 -3 -68 0 -101
17 -55 28 -92 83 -92 138 0 24 -4 43 -9 43 -20 0 -75 56 -92 95 -10 22 -19 63
-19 92 0 50 12 75 25 53 15 -24 89 -52 141 -52 45 -1 56 -4 69 -24 20 -31 71
-57 95 -49 29 9 24 21 -17 42 -29 13 -39 25 -41 46 -5 39 14 57 60 57 39 0 39
0 33 33 -4 18 -2 45 4 60 9 23 16 28 37 25 32 -4 41 -18 49 -82 9 -68 67 -130
142 -152 69 -20 122 -13 191 27 43 24 58 40 78 82 13 29 24 58 24 65 0 23 185
6 201 -19 5 -8 6 -26 3 -40 -3 -18 0 -28 10 -32 29 -11 52 45 37 87 -17 43
-62 63 -161 70 l-90 7 -18 42 c-69 155 -293 170 -388 27 -23 -34 -29 -38 -46
-29 -11 6 -30 8 -41 5 -18 -4 -26 3 -47 47 -16 33 -40 62 -68 82 -41 28 -50
30 -131 30 l-88 0 8 29 c18 62 55 95 124 110 21 5 39 21 62 56 20 29 51 60 80
77 42 25 58 28 130 28 45 0 84 -3 88 -7 4 -3 -11 -23 -33 -43 -22 -20 -45 -49
-51 -65 -17 -49 8 -47 51 4 99 116 251 153 383 92z m-1775 -31 c33 -17 73 -62
95 -104 12 -24 20 -30 28 -22 34 34 122 -12 156 -82 22 -45 27 -111 12 -136
-7 -10 3 -22 37 -45 110 -73 124 -252 27 -346 -31 -30 -34 -37 -28 -75 9 -70
-42 -147 -119 -180 -52 -21 -58 -19 -51 15 9 46 -17 37 -52 -18 -16 -25 -49
-60 -73 -77 -38 -26 -54 -30 -122 -33 -44 -3 -86 1 -98 7 -16 9 -28 7 -54 -8
-70 -40 -148 -35 -206 14 -38 32 -42 31 -77 -5 -42 -44 -117 -66 -174 -50 -57
15 -115 71 -106 100 6 20 4 21 -42 14 -52 -6 -109 11 -147 44 -27 25 -56 91
-56 133 l0 37 41 -10 c29 -8 47 -7 65 1 37 17 26 40 -30 61 -61 24 -83 44 -97
90 -8 26 -8 47 1 78 13 49 69 117 103 126 20 5 23 12 23 60 0 42 6 64 30 102
42 69 98 98 186 99 46 0 68 4 68 12 0 16 -17 26 -60 33 l-35 7 60 59 c70 69
131 94 230 94 80 0 156 -28 215 -81 24 -21 48 -39 52 -39 20 0 5 43 -27 74
-19 20 -35 38 -35 40 0 11 45 28 89 35 51 8 132 -4 171 -24z m-1154 -222 c5
-29 3 -39 -11 -50 -24 -17 -27 -16 -51 3 -19 15 -18 15 3 11 32 -7 50 18 36
51 -26 66 -26 69 -4 44 11 -13 23 -40 27 -59z m87 -44 c-7 -7 -19 -8 -30 -4
-16 7 -15 9 7 15 30 8 38 4 23 -11z m1713 -80 c17 -86 67 -183 122 -238 42
-42 50 -56 56 -102 9 -64 35 -118 81 -162 19 -19 35 -38 35 -43 0 -31 26 -90
52 -120 44 -50 83 -67 167 -73 41 -3 76 -11 78 -17 2 -6 -15 -17 -37 -24 -33
-11 -58 -11 -133 -2 -308 39 -696 37 -923 -4 -26 -5 -32 -2 -42 22 -18 38 5
60 67 66 109 11 191 93 199 200 3 45 10 65 27 82 45 45 68 106 69 179 1 66 2
70 44 114 23 25 57 77 75 114 17 37 36 67 42 65 5 -1 15 -27 21 -57z m447 36
c68 -28 108 -104 93 -177 -9 -44 -101 -128 -141 -128 -46 0 -117 40 -139 79
-27 47 -27 142 1 179 41 56 117 76 186 47z m528 -51 c34 -17 77 -68 85 -100
32 -127 -115 -241 -240 -186 -59 27 -86 70 -86 140 0 58 15 95 53 131 44 40
125 47 188 15z m-20 -778 c68 -73 71 -79 44 -72 -41 10 -96 55 -122 101 -20
36 -22 60 -3 53 4 -2 41 -39 81 -82z m462 53 c61 -32 96 -105 82 -175 l-6 -35
-72 68 c-41 38 -102 84 -140 103 -37 19 -67 38 -67 42 0 4 12 10 28 14 15 3
32 7 37 9 20 8 101 -8 138 -26z m-587 -41 c9 -18 27 -47 40 -65 l24 -31 -34
-12 c-31 -10 -64 -2 -114 26 -8 5 23 90 37 102 22 18 29 15 47 -20z m349 -13
c33 -9 84 -30 113 -48 65 -39 145 -114 137 -127 -9 -15 -95 -12 -151 5 -79 23
-262 154 -248 176 8 14 84 10 149 -6z m-1807 -6 c-2 -7 -53 -24 -113 -39 -131
-33 -185 -54 -243 -92 -41 -27 -44 -27 -73 -12 -29 14 -30 17 -24 62 10 72 11
73 40 62 38 -14 86 -12 136 5 30 11 63 14 109 10 36 -3 81 -1 100 4 50 13 72
13 68 0z m1037 -21 c74 -12 80 -15 77 -35 -3 -21 1 -23 43 -23 25 0 57 -7 70
-16 22 -14 27 -14 57 1 31 15 35 15 80 -6 l46 -22 -41 -40 c-40 -39 -45 -40
-108 -41 -55 -1 -74 -6 -115 -31 -70 -44 -114 -119 -114 -197 0 -49 -3 -59
-22 -69 -44 -22 -88 -73 -103 -119 l-16 -47 -72 -7 c-180 -15 -292 -17 -427
-7 l-145 10 -32 38 c-29 34 -33 45 -33 101 0 105 -65 195 -151 208 -33 6 -43
13 -59 44 -35 70 -114 123 -204 138 l-40 7 99 32 c119 39 265 69 424 88 141
17 662 12 786 -7z m245 3 c0 -10 -7 -24 -15 -31 -13 -10 -15 -9 -15 12 0 14 3
28 7 31 12 13 23 7 23 -12z m-85 -11 c-3 -5 -13 -10 -21 -10 -8 0 -12 5 -9 10
3 6 13 10 21 10 8 0 12 -4 9 -10z m542 -110 l48 -22 -25 -16 c-56 -37 -105
-91 -94 -102 8 -8 17 -5 35 8 13 11 48 31 78 46 51 26 56 27 105 15 28 -8 96
-13 150 -12 73 1 107 -2 129 -14 l31 -15 -48 -19 c-51 -19 -89 -47 -81 -59 2
-4 35 2 73 13 84 24 140 18 205 -23 25 -16 59 -48 74 -71 24 -37 28 -53 28
-114 l0 -71 41 -26 c133 -83 108 -340 -38 -391 -13 -4 -15 -14 -11 -45 18
-136 -133 -254 -266 -208 -48 16 -63 14 -55 -9 8 -20 -37 -45 -96 -52 l-52 -6
12 24 c7 13 18 31 25 39 32 38 76 141 73 172 -4 44 -37 45 -57 3 -23 -50 -99
-170 -120 -189 -17 -16 -22 -16 -48 -3 -26 14 -30 13 -51 -3 -54 -44 -186 -51
-258 -15 -40 20 -54 23 -83 15 -80 -22 -194 27 -231 99 -17 34 -24 39 -62 43
-60 7 -123 49 -149 99 -16 32 -20 56 -18 103 3 54 0 65 -24 98 -30 39 -47 86
-47 132 0 81 57 167 119 181 l31 6 -7 59 c-12 119 71 219 183 222 28 0 50 -4
52 -11 7 -22 32 -10 57 29 27 43 81 84 142 106 53 20 168 12 230 -16z m-2218
-26 c55 -16 141 -88 141 -119 0 -8 7 -15 15 -15 20 0 20 50 0 76 -23 31 -19
34 45 34 103 0 184 -48 219 -131 13 -28 26 -47 32 -43 6 3 31 1 55 -6 77 -22
127 -116 105 -197 -10 -34 -8 -39 29 -81 84 -94 81 -231 -6 -318 -35 -35 -42
-50 -46 -92 -5 -56 -36 -105 -89 -142 -28 -21 -31 -21 -48 -6 -61 55 -173 36
-249 -43 -26 -27 -55 -59 -64 -70 -21 -25 -77 -28 -153 -7 -97 25 -167 78
-252 189 -45 58 -69 70 -80 41 -15 -41 84 -177 192 -262 l40 -31 -50 0 c-77 1
-100 11 -103 42 -4 33 -5 33 -66 2 -56 -28 -72 -30 -128 -13 -53 16 -106 65
-122 113 -13 36 -18 40 -52 43 -153 14 -238 205 -149 336 l25 37 -21 28 c-29
39 -29 132 0 189 22 44 77 94 112 102 26 6 36 22 44 71 22 142 215 214 374
139 35 -17 66 -28 68 -26 15 15 -16 49 -68 75 l-59 30 29 21 c71 50 181 64
280 34z m1365 -576 c3 -18 2 -36 -4 -42 -11 -11 -593 -16 -603 -6 -3 3 -8 20
-12 38 l-7 32 199 -5 c156 -5 365 2 414 14 4 0 9 -13 13 -31z m-270 -218 l26
-9 2 -173 c3 -170 3 -173 25 -176 20 -3 23 2 29 47 8 60 20 64 108 30 94 -35
122 -95 66 -143 -47 -39 -122 -58 -247 -63 -95 -4 -123 -2 -183 16 -74 23
-140 70 -140 101 0 46 104 110 180 110 27 0 29 -2 32 -47 3 -40 6 -48 23 -48
19 0 20 8 23 175 2 124 6 176 15 182 15 10 11 10 41 -2z m-458 -217 c5 -26 1
-37 -19 -57 -27 -27 -68 -42 -92 -32 -11 4 -2 18 35 55 28 28 50 58 50 68 0
27 19 2 26 -34z m-226 -53 c11 -7 5 -10 -23 -10 -59 0 -133 -37 -113 -57 3 -3
30 2 61 11 48 16 60 16 97 4 67 -21 57 -34 -26 -34 -69 1 -76 -1 -116 -33 -46
-37 -72 -35 -78 7 -5 32 15 61 66 93 47 30 103 38 132 19z m2220 -126 c0 -37
-49 -78 -123 -104 -79 -28 -250 -37 -321 -18 -78 21 -72 34 31 66 31 10 32 10
22 -15 -11 -30 3 -53 33 -53 11 0 46 20 78 44 47 36 70 46 124 54 37 6 84 20
104 30 50 26 52 26 52 -4z m-2185 -3 c6 -11 -102 -27 -113 -17 -12 12 22 26
65 26 23 0 44 -4 48 -9z m-735 -56 c16 -8 58 -18 92 -21 58 -5 198 -58 198
-75 0 -10 -69 -19 -153 -19 -82 0 -202 22 -252 47 -34 17 -75 52 -75 64 0 5
26 10 58 12 31 2 67 4 80 5 13 1 36 -5 52 -13z m480 -14 c0 -13 -50 -51 -66
-51 -8 0 -22 8 -32 18 -10 9 -27 22 -38 29 -16 10 -6 12 59 12 42 1 77 -3 77
-8z m2434 -152 c14 -47 26 -95 26 -107 0 -23 -14 -30 -25 -12 -13 21 -55 202
-49 211 11 18 21 -2 48 -92z m-2425 34 c15 -53 14 -116 -1 -111 -13 5 -40 115
-33 136 8 23 24 12 34 -25z m-609 0 c-1 -41 -40 -187 -52 -194 -22 -14 -21 36
3 127 14 53 27 84 36 84 7 0 13 -8 13 -17z m2690 -25 c-1 -65 -27 -229 -38
-240 -21 -21 -25 20 -13 115 19 147 21 157 36 157 10 0 15 -11 15 -32z m-2396
-100 c9 -139 8 -168 -8 -168 -11 0 -16 23 -20 98 -4 53 -9 112 -12 130 -4 27
-2 32 14 32 17 0 20 -11 26 -92z"/>
<path d="M3013 3655 c-39 -17 -71 -61 -55 -77 7 -7 18 -4 38 11 31 25 73 27
114 6 36 -19 48 -4 25 31 -15 24 -53 44 -78 44 -7 -1 -26 -7 -44 -15z"/>
<path d="M3380 3643 c-25 -9 -50 -35 -50 -50 0 -11 12 -13 61 -7 52 6 64 4 89
-15 59 -43 81 -15 32 40 -21 24 -38 32 -72 35 -25 2 -52 1 -60 -3z"/>
<path d="M3799 3511 c-23 -18 -22 -18 50 -23 62 -5 76 -10 101 -33 36 -34 54
-85 45 -125 -6 -29 -5 -30 25 -28 37 3 68 -28 79 -81 9 -44 25 -44 29 1 4 45
-18 89 -57 117 -20 15 -30 32 -35 62 -5 32 -18 54 -50 86 -42 41 -46 43 -104
43 -43 0 -66 -5 -83 -19z"/>
<path d="M3976 3048 c19 -79 -2 -130 -67 -157 -48 -20 -51 -41 -6 -41 69 0
127 65 127 142 0 42 -20 82 -44 86 -16 3 -17 0 -10 -30z"/>
<path d="M3342 3004 c-66 -34 -154 -41 -226 -15 -32 11 -63 18 -67 15 -13 -8
8 -42 29 -48 10 -4 23 -24 30 -49 41 -150 169 -193 268 -89 52 54 86 150 68
196 -8 22 -50 18 -102 -10z m38 -108 c0 -22 -63 -84 -93 -91 -39 -10 -79 2
-75 22 3 19 72 70 103 76 43 9 65 7 65 -7z"/>
<path d="M1873 3610 c-26 -11 -49 -48 -36 -61 6 -6 22 -3 41 7 36 17 83 12
103 -12 17 -21 29 -17 29 10 0 50 -76 81 -137 56z"/>
<path d="M1462 3591 c-60 -17 -120 -97 -93 -124 7 -7 21 1 45 29 32 37 37 39
97 41 35 1 63 4 62 7 -2 3 -3 10 -3 14 0 20 -74 43 -108 33z"/>
<path d="M1912 3444 c-36 -19 -62 -59 -62 -99 0 -35 13 -31 33 11 31 65 106
76 151 23 29 -34 36 -36 36 -9 0 11 -12 33 -27 50 -35 38 -85 47 -131 24z"/>
<path d="M1522 3410 c-40 -24 -71 -89 -72 -145 0 -48 28 -109 52 -113 16 -3
16 -1 3 32 -32 77 -8 171 51 198 22 10 32 9 67 -10 22 -12 42 -20 45 -18 11
12 -13 46 -42 60 -44 21 -64 20 -104 -4z"/>
<path d="M1129 3397 c-39 -26 -69 -79 -69 -122 0 -23 -7 -35 -30 -48 -38 -23
-72 -88 -68 -130 5 -48 29 -40 43 15 6 26 17 54 25 62 13 17 60 22 60 8 0 -12
50 -33 61 -27 5 4 -2 21 -15 38 -13 18 -26 42 -29 55 -9 38 11 89 49 121 19
17 32 36 29 41 -9 15 -18 12 -56 -13z"/>
<path d="M1962 3308 c-20 -25 -24 -84 -8 -116 20 -39 49 -46 82 -19 23 18 26
26 22 68 -3 27 -11 55 -18 64 -15 18 -64 20 -78 3z"/>
<path d="M1595 3280 c-24 -26 -24 -99 -1 -134 21 -33 59 -34 80 -4 21 30 21
121 0 142 -21 22 -57 20 -79 -4z"/>
<path d="M1465 3083 c-27 -7 -56 -33 -49 -45 4 -5 16 -7 29 -4 21 5 23 1 29
-46 22 -163 177 -264 305 -198 49 24 75 58 96 119 13 40 21 50 44 54 44 9 91
54 91 87 0 42 -15 45 -38 6 -23 -40 -89 -66 -164 -66 -100 0 -278 55 -278 86
0 14 -25 17 -65 7z m224 -173 c41 -20 84 -67 76 -80 -10 -17 -65 -21 -106 -9
-43 13 -109 71 -109 96 0 21 94 17 139 -7z"/>
<path d="M1094 2886 c-23 -59 114 -117 190 -81 40 19 52 52 14 40 -74 -23
-137 -11 -165 31 -17 27 -31 31 -39 10z"/>
<path d="M2890 3343 c-22 -28 -24 -74 -4 -80 6 -2 17 10 24 26 12 30 34 46 51
36 4 -3 11 -21 15 -40 4 -25 11 -35 25 -35 15 0 19 7 19 35 0 75 -86 114 -130
58z"/>
<path d="M3363 3330 c-27 -11 -56 -53 -51 -76 5 -27 27 -28 37 -1 5 13 17 27
27 31 21 8 52 -18 56 -47 2 -12 11 -23 21 -25 13 -3 17 4 17 32 0 59 -57 106
-107 86z"/>
<path d="M3137 2272 c-15 -15 -27 -38 -27 -50 0 -22 0 -22 40 4 34 23 46 25
85 20 41 -7 45 -5 45 13 0 26 -28 41 -77 41 -30 0 -46 -7 -66 -28z"/>
<path d="M3570 2283 c-24 -9 -50 -35 -50 -50 0 -10 12 -12 55 -7 54 7 56 6 89
-30 42 -43 56 -45 56 -7 0 62 -87 117 -150 94z"/>
<path d="M4063 2164 c-22 -9 -15 -19 21 -32 19 -7 48 -29 65 -48 36 -40 41
-94 15 -150 -21 -45 -11 -54 24 -22 37 35 66 23 94 -39 17 -39 19 -58 14 -115
-7 -75 3 -87 31 -35 39 74 6 198 -64 242 -24 15 -32 27 -33 50 -1 41 -39 105
-75 126 -35 20 -75 30 -92 23z"/>
<path d="M3128 2103 c-42 -26 -78 -101 -78 -162 0 -81 27 -121 83 -121 13 0
17 -3 11 -8 -21 -14 -35 -53 -29 -82 9 -39 66 -88 121 -102 34 -9 44 -17 44
-33 0 -33 47 -122 73 -140 80 -52 165 -38 243 40 42 42 56 65 73 120 12 37 21
73 21 81 0 8 10 14 25 14 16 0 25 6 25 15 0 22 -58 54 -88 49 -32 -6 -54 -23
-46 -35 3 -5 -18 -20 -48 -33 -174 -77 -400 -55 -400 39 0 35 25 55 68 55 36
0 47 9 34 29 -9 15 -56 19 -83 7 -17 -8 -17 -7 -1 27 31 65 2 132 -61 139
l-30 3 37 38 c20 20 46 37 57 37 29 0 70 -42 77 -80 7 -32 21 -39 30 -15 10
24 -16 83 -47 110 -35 29 -72 32 -111 8z m456 -509 c23 -9 20 -28 -10 -64 -36
-42 -74 -60 -128 -60 -53 0 -64 12 -42 45 20 30 53 53 104 71 43 15 54 16 76
8z"/>
<path d="M3501 2082 c-72 -36 -106 -176 -61 -249 42 -69 110 -28 110 67 0 31
-6 47 -25 66 -15 14 -32 23 -40 20 -22 -8 -18 9 8 40 69 79 173 -22 139 -134
-6 -20 -9 -38 -7 -40 12 -12 35 12 46 49 18 58 -11 143 -60 176 -41 28 -65 29
-110 5z"/>
<path d="M4127 1681 c7 -55 -12 -106 -55 -141 -26 -21 -33 -33 -25 -41 16 -16
89 24 107 59 24 48 28 88 12 126 -21 50 -46 49 -39 -3z"/>
<path d="M1735 2273 c-26 -6 -55 -32 -55 -50 0 -16 5 -16 49 -3 31 9 53 4 114
-28 4 -2 7 5 7 15 0 39 -66 77 -115 66z"/>
<path d="M929 2231 c-16 -16 -29 -36 -29 -43 0 -10 -9 -13 -30 -10 -24 3 -36
-2 -60 -28 -34 -36 -39 -73 -14 -108 12 -18 13 -29 4 -56 -25 -76 49 -134 122
-95 16 9 24 7 42 -10 32 -30 72 -27 108 9 25 26 30 37 25 64 -4 28 -1 35 24
50 60 35 45 124 -27 150 -20 8 -30 19 -32 36 -4 32 -46 70 -78 70 -15 0 -38
-12 -55 -29z m79 -23 c17 -17 15 -63 -3 -78 -22 -18 -48 -8 -59 22 -15 44 32
86 62 56z m-102 -92 c9 -36 -12 -68 -43 -64 -38 4 -50 30 -30 62 23 34 64 36
73 2z m202 -18 c19 -19 14 -46 -13 -64 -37 -24 -55 -12 -55 36 0 37 2 40 28
40 15 0 33 -5 40 -12z m-110 -52 c-2 -14 -12 -22 -29 -24 -35 -4 -45 22 -18
49 16 16 23 18 35 8 8 -7 14 -22 12 -33z m-78 -51 c19 -22 4 -64 -25 -71 -14
-3 -32 -4 -40 0 -18 7 -20 57 -3 74 17 17 53 15 68 -3z m130 -30 c12 -33 3
-54 -26 -61 -27 -7 -54 10 -54 33 0 52 62 74 80 28z"/>
<path d="M1305 2188 c-20 -19 -38 -47 -41 -65 -9 -46 11 -43 53 7 31 35 40 40
78 40 24 0 47 5 50 10 13 21 -17 40 -61 40 -36 0 -51 -6 -79 -32z"/>
<path d="M1887 2023 c-4 -3 -7 -21 -7 -38 0 -18 -10 -44 -21 -59 -30 -38 -67
-32 -98 16 -26 41 -41 41 -41 1 0 -33 33 -78 69 -93 25 -10 36 -9 75 8 25 11
54 18 65 15 25 -6 29 18 7 36 -10 8 -13 23 -9 45 7 47 -18 91 -40 69z"/>
<path d="M1536 1948 c-3 -7 -10 -30 -16 -51 -26 -85 -106 -71 -166 29 -9 14
-15 16 -24 8 -9 -9 -9 -22 -1 -50 7 -25 7 -42 1 -48 -22 -22 -9 -34 43 -36
137 -5 139 -4 170 30 24 26 28 39 25 77 -3 44 -23 70 -32 41z"/>
<path d="M805 1810 c-28 -31 -31 -99 -6 -148 11 -22 25 -43 31 -47 5 -3 10
-20 10 -36 0 -67 57 -139 109 -139 29 0 26 11 -9 40 -16 14 -37 42 -45 64
l-16 38 33 -6 c35 -6 65 5 54 22 -3 5 -18 12 -34 15 -72 14 -117 85 -103 161
10 53 2 64 -24 36z"/>
<path d="M1737 1823 c-18 -17 -5 -33 28 -33 35 0 39 -6 35 -44 -6 -60 -89
-106 -190 -106 -66 0 -132 22 -128 42 5 20 -37 21 -62 0 -25 -20 -22 -59 4
-49 10 4 17 -8 26 -40 15 -63 42 -97 95 -123 53 -25 97 -22 139 11 30 24 66
88 66 119 0 11 16 35 36 52 64 56 82 120 44 158 -19 19 -79 28 -93 13z m-90
-276 c24 -23 0 -47 -46 -47 -28 0 -44 7 -65 29 -20 21 -24 30 -14 35 24 10
109 -1 125 -17z"/>
</g>
</svg>
