<?xml version="1.0" standalone="no"?>
<!DOCTYPE svg PUBLIC "-//W3C//DTD SVG 20010904//EN"
 "http://www.w3.org/TR/2001/REC-SVG-20010904/DTD/svg10.dtd">
<svg version="1.0" xmlns="http://www.w3.org/2000/svg"
 width="1024.000000pt" height="1024.000000pt" viewBox="0 0 1024.000000 1024.000000"
 preserveAspectRatio="xMidYMid meet">

<g transform="translate(0.000000,1024.000000) scale(0.100000,-0.100000)"
fill="#000000" stroke="none">
<path d="M6955 9514 c-106 -12 -292 -46 -398 -74 -64 -16 -168 -43 -229 -59
-199 -51 -319 -50 -495 4 -82 26 -152 32 -182 15 -26 -13 -51 -82 -51 -138 0
-59 22 -152 50 -215 12 -27 19 -51 17 -54 -3 -2 -22 0 -44 6 -66 19 -99 14
-123 -16 -18 -23 -21 -37 -17 -75 6 -49 44 -132 85 -186 31 -41 132 -117 200
-150 55 -28 60 -39 41 -89 -18 -47 -39 -203 -39 -296 0 -84 14 -334 25 -424 4
-40 3 -42 -32 -54 -52 -17 -117 -81 -144 -142 -16 -36 -24 -78 -27 -138 -10
-204 61 -378 194 -470 38 -26 44 -35 54 -86 60 -305 164 -512 355 -711 61 -64
124 -118 185 -157 72 -47 88 -61 73 -66 -103 -38 -207 -87 -264 -125 -159
-105 -260 -280 -319 -550 -71 -327 -127 -925 -137 -1466 -6 -302 -6 -307 16
-343 l22 -37 -21 -81 c-38 -151 -23 -352 34 -466 78 -152 250 -262 370 -234
l44 10 6 -91 c3 -50 8 -161 11 -246 19 -589 27 -725 46 -762 l18 -36 -27 -10
c-206 -75 -265 -107 -338 -184 -122 -130 -87 -265 83 -318 204 -64 507 -43
892 62 133 36 171 63 191 133 16 57 8 190 -14 232 -14 28 -14 32 0 44 31 26
28 4 69 469 53 600 75 875 75 931 0 33 4 59 9 59 15 0 29 -79 60 -340 53 -436
91 -743 101 -820 42 -330 41 -324 67 -359 25 -32 25 -34 10 -67 -23 -48 -40
-156 -35 -225 6 -78 40 -122 135 -170 95 -48 201 -70 363 -76 233 -9 397 28
484 108 l51 47 0 78 c0 71 -4 86 -35 143 -19 35 -54 85 -78 112 -39 43 -42 51
-31 66 16 18 15 66 -1 523 -5 151 -10 332 -10 403 l0 127 33 0 c17 1 45 7 61
13 26 11 32 11 48 -5 14 -14 34 -18 82 -18 56 0 70 4 115 35 29 19 68 37 87
41 52 10 146 101 183 177 65 135 77 336 31 512 -15 54 -18 81 -11 83 22 7 39
58 45 138 9 105 10 779 1 915 -16 262 -61 606 -101 788 -80 357 -176 538 -357
673 -140 103 -310 176 -554 238 -64 16 -120 35 -125 42 -5 7 -7 52 -6 99 3 83
5 89 43 143 86 122 149 252 185 379 l13 48 46 -6 c94 -13 217 35 309 120 65
60 113 135 150 233 23 61 26 81 26 217 1 148 1 151 -31 217 -17 37 -50 87 -73
112 -39 43 -41 46 -31 83 32 122 55 334 55 523 0 229 -12 302 -74 427 -68 138
-194 252 -331 298 -41 14 -48 21 -59 58 -36 120 -139 242 -263 311 -87 49
-238 101 -352 122 -88 16 -402 27 -490 18z m708 -849 c90 -19 160 -53 151 -74
-4 -9 -15 -50 -26 -91 -39 -150 -24 -377 41 -639 45 -178 62 -274 70 -388 5
-68 13 -109 22 -118 27 -28 58 -6 114 81 114 176 265 230 371 132 54 -49 74
-110 74 -217 0 -132 -41 -237 -130 -334 -71 -78 -142 -111 -218 -104 -31 2
-71 13 -89 23 -32 19 -33 19 -53 -2 -12 -11 -29 -54 -40 -100 -85 -350 -342
-672 -634 -793 -145 -60 -227 -76 -386 -75 -127 1 -156 4 -235 28 -352 106
-632 441 -723 866 -23 106 -25 152 -23 495 1 132 -3 292 -9 355 -19 195 -24
492 -10 578 16 100 59 214 79 207 61 -23 213 -39 376 -39 257 1 386 25 720
134 268 88 409 107 558 75z m-1837 -1108 c2 -7 3 -111 2 -232 l-3 -220 -28 30
c-64 70 -99 266 -63 360 23 60 78 98 92 62z m1883 -1474 c34 -128 34 -132 17
-158 -31 -47 -168 -154 -249 -194 -117 -58 -219 -82 -347 -82 -182 -1 -304 57
-334 156 -6 20 -2 21 151 21 177 1 272 18 411 76 79 33 219 121 287 182 22 19
43 35 47 36 4 0 12 -17 17 -37z m306 -168 c124 -36 257 -90 340 -138 102 -60
212 -173 262 -272 121 -236 195 -660 224 -1280 13 -293 5 -753 -14 -772 -23
-23 -216 -38 -340 -25 -62 6 -124 15 -138 21 l-26 9 -7 259 c-13 469 -51 907
-107 1221 -24 134 -34 160 -66 168 -57 15 -66 -48 -38 -271 35 -285 63 -693
71 -1041 l7 -290 -74 -21 c-98 -29 -282 -59 -449 -74 -150 -13 -607 -7 -750
11 -223 27 -483 77 -614 117 -18 5 -19 16 -12 317 10 440 32 1122 42 1284 5
75 3 97 -10 117 -20 30 -56 33 -79 7 -27 -30 -43 -199 -67 -742 -6 -124 -15
-313 -20 -420 -5 -107 -10 -288 -10 -402 0 -114 -3 -209 -7 -211 -11 -6 -136
16 -205 37 l-58 17 0 182 c0 258 23 669 56 987 70 693 153 900 413 1034 93 47
276 110 298 102 7 -3 13 -11 13 -18 0 -31 54 -123 100 -172 187 -198 577 -189
890 19 77 51 186 162 225 230 19 32 32 44 44 41 9 -3 57 -17 106 -31z m-2042
-2529 c29 -8 92 -17 139 -21 53 -4 89 -12 91 -19 6 -14 -10 -323 -18 -373 -3
-18 -10 -33 -16 -33 -44 0 -72 59 -89 184 -11 85 -21 106 -51 106 -24 0 -38
-33 -45 -109 -8 -68 16 -169 51 -223 26 -38 89 -78 124 -78 28 0 37 -21 16
-37 -58 -42 -182 12 -247 107 -52 77 -72 160 -65 280 4 81 38 230 52 230 2 0
28 -6 58 -14z m2458 -92 c77 -12 138 -14 232 -10 l127 7 11 -28 c57 -148 45
-428 -22 -505 l-20 -23 5 30 c24 123 15 225 -19 225 -19 0 -22 -6 -39 -107 -8
-44 -26 -109 -42 -142 -35 -80 -108 -145 -127 -113 -3 4 8 45 23 92 31 90 49
253 32 279 -6 8 -18 11 -29 7 -16 -5 -23 -22 -33 -84 -15 -93 -43 -173 -82
-229 -45 -66 -93 -82 -120 -41 -13 20 -12 27 14 77 34 66 58 172 58 257 0 66
-16 98 -45 93 -18 -4 -28 -25 -70 -142 -9 -27 -28 -61 -40 -75 -23 -26 -24
-26 -42 -9 -26 26 -23 169 5 255 20 64 96 202 111 202 4 0 54 -7 112 -16z"/>
<path d="M7117 8255 c-53 -20 -95 -52 -103 -78 -18 -58 7 -117 50 -117 12 0
43 7 70 15 63 19 168 19 232 0 27 -8 79 -32 116 -55 76 -46 93 -49 109 -19 31
59 -52 174 -169 231 -59 29 -76 33 -166 35 -69 2 -113 -2 -139 -12z"/>
<path d="M6187 8233 c-116 -39 -207 -177 -167 -254 15 -27 32 -24 79 15 66 56
141 79 231 72 41 -3 87 -8 102 -12 35 -8 68 24 68 67 0 41 -60 103 -115 118
-56 15 -141 13 -198 -6z"/>
<path d="M6250 7733 c-78 -78 -81 -263 -6 -349 29 -33 39 -39 74 -39 80 0 136
90 137 219 0 129 -47 206 -128 206 -32 0 -46 -7 -77 -37z"/>
<path d="M7211 7745 c-43 -37 -66 -105 -65 -195 2 -161 99 -253 202 -190 49
30 76 97 76 190 1 137 -51 220 -139 220 -32 0 -51 -7 -74 -25z"/>
<path d="M6651 7703 c-5 -10 -19 -65 -31 -123 -30 -141 -51 -194 -115 -289
-30 -46 -56 -98 -60 -120 -21 -123 77 -210 245 -218 75 -4 91 -2 130 19 37 19
46 29 48 54 5 46 -13 55 -91 46 -117 -14 -207 23 -207 85 0 14 22 58 48 97 70
105 97 195 97 327 0 75 -4 111 -14 122 -18 22 -38 22 -50 0z"/>
<path d="M8233 7451 c-42 -26 -88 -90 -108 -151 -21 -62 -17 -149 8 -164 27
-17 48 3 71 70 30 84 48 114 101 162 37 34 46 48 43 70 -3 24 -8 27 -43 30
-26 2 -51 -4 -72 -17z"/>
<path d="M7353 6990 c-29 -12 -31 -55 -3 -70 11 -6 20 -14 20 -19 0 -13 -151
-78 -243 -105 -234 -68 -526 -56 -686 29 -62 33 -66 34 -84 17 -16 -14 -18
-26 -14 -75 11 -122 118 -282 242 -362 236 -151 575 -89 767 142 49 59 107
161 127 223 10 33 14 36 44 32 22 -2 38 2 47 12 28 35 -27 138 -91 171 -31 17
-92 19 -126 5z m-47 -287 c-40 -75 -134 -166 -211 -206 -110 -56 -286 -62
-390 -12 -65 31 -158 112 -182 159 -14 27 -14 28 3 22 86 -33 145 -41 319 -40
167 0 186 2 270 28 50 15 113 38 140 51 65 30 68 30 51 -2z"/>
<path d="M7857 5868 c-25 -35 -56 -74 -71 -87 -14 -13 -23 -28 -20 -33 3 -5 2
-7 -3 -6 -11 4 -93 -63 -88 -72 3 -4 -3 -7 -13 -6 -9 0 -16 -5 -14 -12 1 -8
-2 -11 -8 -7 -13 8 -50 -13 -47 -27 1 -6 -5 -13 -13 -15 -13 -4 -13 -3 0 6 27
19 1 12 -50 -14 -172 -87 -392 -119 -544 -80 -31 8 -69 13 -84 10 -22 -4 -23
-4 -7 3 19 9 19 9 -2 16 -13 4 -28 4 -34 0 -7 -4 -9 -3 -6 4 4 5 -12 21 -36
35 -49 29 -117 100 -141 146 -9 17 -20 31 -25 31 -5 0 -9 6 -8 13 1 44 -4 57
-24 57 -33 0 -191 -56 -266 -94 -83 -42 -189 -127 -187 -149 1 -9 -2 -15 -6
-12 -11 7 -55 -64 -83 -133 -101 -247 -174 -900 -192 -1704 l-4 -186 77 -20
c42 -11 95 -23 118 -26 l41 -6 7 243 c7 236 40 993 51 1172 12 186 27 311 42
343 13 28 20 32 53 32 52 0 74 -27 72 -88 0 -26 -5 -155 -11 -287 -10 -221
-24 -707 -35 -1153 -2 -101 -1 -181 2 -177 7 7 8 12 11 60 1 23 4 26 11 15 8
-12 14 -11 42 8 l33 23 -25 -23 c-14 -13 -24 -31 -22 -40 2 -10 -1 -18 -7 -18
-6 0 -8 7 -5 15 4 8 1 15 -6 15 -6 0 -11 -10 -10 -22 4 -44 0 -58 -17 -59 -64
-2 253 -74 457 -103 254 -36 605 -53 795 -38 61 5 89 10 63 11 -38 1 -46 4
-42 16 4 8 10 15 16 15 5 0 7 -4 4 -9 -10 -15 128 -22 219 -11 48 6 131 20
184 31 149 32 145 31 129 41 -8 5 -2 6 16 2 l29 -7 -7 199 c-14 441 -37 785
-76 1138 -25 226 -25 238 1 262 19 17 83 28 73 13 -2 -4 2 -9 9 -12 32 -12 68
-220 112 -642 27 -261 37 -429 44 -714 l6 -285 30 -9 c38 -12 367 -15 419 -4
36 8 38 10 34 42 -2 18 0 31 4 29 12 -7 10 633 -2 842 -30 509 -110 930 -216
1134 -52 100 -129 192 -142 172 -7 -11 -10 -10 -15 3 -5 11 -3 14 6 9 7 -5 7
-1 -2 10 -8 9 -20 15 -28 12 -8 -3 -11 -1 -8 4 8 13 -73 63 -87 54 -6 -4 -8
-3 -4 4 11 18 -147 85 -328 138 -45 13 -84 24 -88 24 -3 0 -26 -28 -51 -62z
m80 36 c-3 -3 -12 -4 -19 -1 -8 3 -5 6 6 6 11 1 17 -2 13 -5z m-52 -34 c-14
-28 -14 -30 4 -42 18 -11 18 -12 -5 -31 -14 -11 -28 -16 -32 -12 -4 4 2 13 12
21 11 7 17 17 13 20 -8 9 -37 -15 -37 -30 0 -11 -50 -39 -57 -32 -2 2 15 20
37 40 22 20 40 38 40 41 0 8 31 55 36 55 3 0 -2 -13 -11 -30z m31 -5 c-3 -8 0
-15 7 -15 8 0 7 -4 -3 -10 -8 -5 -16 -7 -18 -5 -5 5 8 45 15 45 3 0 3 -7 -1
-15z m69 -35 c3 -5 1 -10 -4 -10 -6 0 -11 5 -11 10 0 6 2 10 4 10 3 0 8 -4 11
-10z m225 -10 c18 -12 2 -12 -25 0 -13 6 -15 9 -5 9 8 0 22 -4 30 -9z m-1580
-32 c0 -23 -2 -22 -22 1 -16 18 -15 20 3 18 11 -1 19 -9 19 -19z m1290 7 c-7
-9 -15 -13 -19 -10 -3 3 1 10 9 15 21 14 24 12 10 -5z m320 5 c0 -5 -5 -10
-11 -10 -5 0 -7 5 -4 10 3 6 8 10 11 10 2 0 4 -4 4 -10z m-1705 -12 c-16 -6
-38 -18 -48 -26 -16 -14 -17 -14 -12 1 7 16 47 35 75 35 8 0 2 -4 -15 -10z
m1315 -23 c0 -2 -6 -8 -13 -14 -10 -8 -14 -7 -14 2 0 8 6 14 14 14 7 0 13 -1
13 -2z m80 -2 c0 -3 -7 -11 -15 -19 -13 -14 -15 -13 -15 4 0 10 7 19 15 19 8
0 15 -2 15 -4z m330 -3 c0 -5 -2 -10 -4 -10 -3 0 -8 5 -11 10 -3 6 -1 10 4 10
6 0 11 -4 11 -10z m-380 -20 c0 -4 -7 -11 -16 -14 -13 -5 -14 -4 -6 7 7 8 8
18 4 22 -4 5 -1 5 6 1 6 -4 12 -11 12 -16z m-1480 0 c0 -5 -5 -10 -11 -10 -5
0 -7 5 -4 10 3 6 8 10 11 10 2 0 4 -4 4 -10z m17 -12 c-3 -8 -6 -5 -6 6 -1 11
2 17 5 13 3 -3 4 -12 1 -19z m1748 4 c-3 -3 -11 0 -18 7 -9 10 -8 11 6 5 10
-3 15 -9 12 -12z m-1635 -12 c0 -13 -6 -20 -17 -19 -11 0 -13 3 -5 6 6 2 12
11 12 19 0 8 2 14 5 14 3 0 5 -9 5 -20z m1565 2 c-3 -3 -11 0 -18 7 -9 10 -8
11 6 5 10 -3 15 -9 12 -12z m-347 -6 c-7 -8 -15 -12 -17 -11 -5 6 10 25 20 25
5 0 4 -6 -3 -14z m-1168 -21 c-7 -9 -15 -13 -17 -11 -6 6 20 36 26 30 2 -2 -2
-10 -9 -19z m1585 7 c-3 -3 -11 0 -18 7 -9 10 -8 11 6 5 10 -3 15 -9 12 -12z
m-135 -2 c-8 -6 -24 -15 -35 -21 -16 -8 -15 -6 4 10 13 12 28 21 35 21 6 0 4
-5 -4 -10z m55 0 c3 -5 1 -10 -4 -10 -6 0 -11 5 -11 10 0 6 2 10 4 10 3 0 8
-4 11 -10z m-1395 -20 c6 -11 8 -20 6 -20 -3 0 -10 9 -16 20 -6 11 -8 20 -6
20 3 0 10 -9 16 -20z m1075 -9 c4 -22 -9 -29 -20 -11 -3 6 0 10 7 11 10 0 10
2 0 6 -6 2 -9 9 -6 15 8 12 14 6 19 -21z m59 8 c-3 -5 -10 -7 -15 -3 -5 3 -7
10 -3 15 3 5 10 7 15 3 5 -3 7 -10 3 -15z m110 12 c6 -10 -24 -25 -32 -16 -3
3 0 5 7 5 7 0 9 5 6 10 -3 6 -2 10 4 10 5 0 12 -4 15 -9z m-1264 -38 c0 -7 -8
-13 -17 -13 -13 0 -15 2 -5 8 7 5 10 17 6 28 -5 16 -4 16 5 4 6 -8 11 -21 11
-27z m1196 18 c0 -11 -5 -17 -10 -14 -5 4 -7 -1 -3 -10 3 -9 1 -19 -5 -23 -7
-5 -8 -2 -3 6 5 9 1 11 -16 6 -13 -3 -18 -3 -11 0 6 3 10 10 6 15 -3 5 2 9 10
9 9 0 16 7 16 15 0 8 4 15 8 15 4 0 8 -9 8 -19z m264 -1 c-12 -22 -25 -26 -35
-10 -3 5 0 7 8 4 8 -3 17 2 20 10 4 9 9 16 12 16 3 0 1 -9 -5 -20z m145 10 c3
-6 -1 -7 -9 -4 -18 7 -21 14 -7 14 6 0 13 -4 16 -10z m-1841 -26 c5 -14 4 -15
-9 -4 -17 14 -19 20 -6 20 5 0 12 -7 15 -16z m201 7 c-3 -2 -16 -6 -28 -8 -15
-2 -18 0 -9 5 14 9 45 12 37 3z m-57 -17 c5 -9 21 -16 36 -16 31 0 43 -15 27
-31 -9 -9 -11 -8 -6 4 5 12 -2 15 -36 13 -23 -1 -37 1 -30 6 10 5 8 11 -4 24
-9 9 -12 16 -6 16 5 0 14 -7 19 -16z m1232 12 c0 -3 -4 -8 -10 -11 -5 -3 -10
-1 -10 4 0 6 5 11 10 11 6 0 10 -2 10 -4z m460 0 c0 -2 -7 -7 -16 -10 -8 -3
-12 -2 -9 4 6 10 25 14 25 6z m240 -38 c29 -38 30 -40 6 -18 -25 23 -52 60
-43 60 2 0 19 -19 37 -42z m-2110 18 c-7 -7 -13 -7 -20 0 -6 6 -3 10 10 10 13
0 16 -4 10 -10z m-50 0 c0 -2 -7 -7 -16 -10 -8 -3 -12 -2 -9 4 6 10 25 14 25
6z m400 -11 c0 -12 -19 -12 -23 0 -4 9 -1 12 9 8 7 -3 14 -7 14 -8z m1005 5
c3 -6 -1 -7 -9 -4 -18 7 -21 14 -7 14 6 0 13 -4 16 -10z m315 -12 c0 -12 -3
-18 -7 -14 -11 10 -12 36 -2 36 5 0 9 -10 9 -22z m-265 -6 c-3 -3 -11 0 -18 7
-9 10 -8 11 6 5 10 -3 15 -9 12 -12z m-1090 -2 c-3 -5 -11 -10 -16 -10 -6 0
-7 5 -4 10 3 6 11 10 16 10 6 0 7 -4 4 -10z m1049 -15 c-4 -8 -11 -12 -16 -9
-6 4 -5 10 3 15 19 12 19 11 13 -6z m-1004 1 c0 -3 -4 -8 -10 -11 -5 -3 -10
-1 -10 4 0 6 5 11 10 11 6 0 10 -2 10 -4z m1065 -6 c3 -6 -1 -7 -9 -4 -18 7
-21 14 -7 14 6 0 13 -4 16 -10z m-125 -10 c0 -5 -5 -10 -11 -10 -5 0 -7 5 -4
10 3 6 8 10 11 10 2 0 4 -4 4 -10z m-1109 -23 c-10 -9 -11 -8 -5 6 3 10 9 15
12 12 3 -3 0 -11 -7 -18z m1537 9 c-7 -8 -17 -12 -22 -9 -4 3 -2 9 5 14 22 13
31 11 17 -5z m-478 -11 c-7 -9 -15 -13 -17 -11 -7 7 7 26 19 26 6 0 6 -6 -2
-15z m790 -11 c0 -2 -9 0 -20 6 -11 6 -20 13 -20 16 0 2 9 0 20 -6 11 -6 20
-13 20 -16z m-760 6 c0 -5 -5 -10 -11 -10 -5 0 -7 5 -4 10 3 6 8 10 11 10 2 0
4 -4 4 -10z m480 -4 c0 -3 -4 -8 -10 -11 -5 -3 -10 -1 -10 4 0 6 5 11 10 11 6
0 10 -2 10 -4z m-712 -11 c-3 -3 -20 -10 -38 -15 -19 -5 -29 -6 -24 -1 12 12
74 27 62 16z m126 -11 c3 -8 2 -12 -4 -9 -6 3 -10 10 -10 16 0 14 7 11 14 -7z
m486 6 c0 -5 -5 -10 -11 -10 -5 0 -7 5 -4 10 3 6 8 10 11 10 2 0 4 -4 4 -10z
m-1573 -6 c-3 -3 -12 -4 -19 -1 -8 3 -5 6 6 6 11 1 17 -2 13 -5z m146 -9 c-3
-9 -8 -14 -10 -11 -3 3 -2 9 2 15 9 16 15 13 8 -4z m1347 -5 c-6 -11 -13 -20
-16 -20 -2 0 0 9 6 20 6 11 13 20 16 20 2 0 0 -9 -6 -20z m-1555 0 c3 -5 1
-10 -4 -10 -6 0 -11 5 -11 10 0 6 2 10 4 10 3 0 8 -4 11 -10z m1379 -6 c3 -8
2 -12 -4 -9 -6 3 -10 10 -10 16 0 14 7 11 14 -7z m721 5 c11 -17 -1 -21 -15
-4 -8 9 -8 15 -2 15 6 0 14 -5 17 -11z m-2395 -9 c0 -5 -5 -10 -11 -10 -5 0
-7 5 -4 10 3 6 8 10 11 10 2 0 4 -4 4 -10z m1217 4 c-3 -3 -12 -4 -19 -1 -8 3
-5 6 6 6 11 1 17 -2 13 -5z m-1023 -20 c3 -8 2 -12 -4 -9 -6 3 -10 10 -10 16
0 14 7 11 14 -7z m960 1 c-4 -8 -8 -15 -10 -15 -2 0 -4 7 -4 15 0 8 4 15 10
15 5 0 7 -7 4 -15z m326 -1 c0 -8 -19 -13 -24 -6 -3 5 1 9 9 9 8 0 15 -2 15
-3z m-30 -18 c0 -3 -4 -8 -10 -11 -5 -3 -10 -1 -10 4 0 6 5 11 10 11 6 0 10
-2 10 -4z m-870 -10 c0 -3 -4 -8 -10 -11 -5 -3 -10 -1 -10 4 0 6 5 11 10 11 6
0 10 -2 10 -4z m-70 -21 c-7 -8 -17 -15 -23 -15 -6 0 -2 7 9 15 25 19 30 19
14 0z m-487 -2 c-7 -2 -19 -2 -25 0 -7 3 -2 5 12 5 14 0 19 -2 13 -5z m1517 3
c0 -2 -7 -7 -16 -10 -8 -3 -12 -2 -9 4 6 10 25 14 25 6z m725 -6 c3 -6 -1 -7
-9 -4 -18 7 -21 14 -7 14 6 0 13 -4 16 -10z m165 -15 c14 -19 14 -19 -2 -6
-10 7 -18 18 -18 24 0 6 1 8 3 6 1 -2 9 -13 17 -24z m40 21 c0 -3 -4 -8 -10
-11 -5 -3 -10 -1 -10 4 0 6 5 11 10 11 6 0 10 -2 10 -4z m-2445 -26 c-3 -5
-12 -10 -18 -10 -7 0 -6 4 3 10 19 12 23 12 15 0z m218 3 c-7 -2 -19 -2 -25 0
-7 3 -2 5 12 5 14 0 19 -2 13 -5z m368 -16 c-10 -9 -11 -8 -5 6 3 10 9 15 12
12 3 -3 0 -11 -7 -18z m634 13 c3 -5 1 -10 -4 -10 -6 0 -11 5 -11 10 0 6 2 10
4 10 3 0 8 -4 11 -10z m1072 4 c-3 -3 -12 -4 -19 -1 -8 3 -5 6 6 6 11 1 17 -2
13 -5z m78 -12 c-3 -3 -11 0 -18 7 -9 10 -8 11 6 5 10 -3 15 -9 12 -12z
m-2440 -2 c3 -5 1 -10 -4 -10 -6 0 -11 5 -11 10 0 6 2 10 4 10 3 0 8 -4 11
-10z m1115 0 c0 -5 -5 -10 -11 -10 -5 0 -7 5 -4 10 3 6 8 10 11 10 2 0 4 -4 4
-10z m-362 -35 c-3 -3 -9 2 -12 12 -6 14 -5 15 5 6 7 -7 10 -15 7 -18z m902
15 c0 -5 -5 -10 -11 -10 -5 0 -7 5 -4 10 3 6 8 10 11 10 2 0 4 -4 4 -10z m265
-9 c-3 -6 -11 -11 -16 -11 -5 0 -4 6 3 14 14 16 24 13 13 -3z m53 -1 c-7 -10
-14 -18 -15 -16 -6 6 9 36 18 36 5 0 4 -9 -3 -20z m-1724 -16 c3 -8 2 -12 -4
-9 -6 3 -10 10 -10 16 0 14 7 11 14 -7z m53 -16 c-3 -8 -6 -5 -6 6 -1 11 2 17
5 13 3 -3 4 -12 1 -19z m1113 12 c0 -5 -5 -10 -11 -10 -5 0 -7 5 -4 10 3 6 8
10 11 10 2 0 4 -4 4 -10z m130 6 c0 -2 -8 -10 -17 -17 -16 -13 -17 -12 -4 4
13 16 21 21 21 13z m131 -13 c13 -16 12 -17 -3 -4 -10 7 -18 15 -18 17 0 8 8
3 21 -13z m86 -15 c-3 -7 -5 -2 -5 12 0 14 2 19 5 13 2 -7 2 -19 0 -25z m778
22 c3 -6 -1 -7 -9 -4 -18 7 -21 14 -7 14 6 0 13 -4 16 -10z m-1080 -19 c-3 -6
-11 -11 -17 -11 -6 0 -6 6 2 15 14 17 26 13 15 -4z m-695 -1 c0 -5 -2 -10 -4
-10 -3 0 -8 5 -11 10 -3 6 -1 10 4 10 6 0 11 -4 11 -10z m580 6 c0 -3 -4 -8
-10 -11 -5 -3 -10 -1 -10 4 0 6 5 11 10 11 6 0 10 -2 10 -4z m591 -19 c-10 -9
-11 -8 -5 6 3 10 9 15 12 12 3 -3 0 -11 -7 -18z m489 13 c0 -5 -2 -10 -4 -10
-3 0 -8 5 -11 10 -3 6 -1 10 4 10 6 0 11 -4 11 -10z m-2330 -14 c0 -2 -7 -6
-15 -10 -8 -3 -15 -1 -15 4 0 6 7 10 15 10 8 0 15 -2 15 -4z m630 -6 c0 -5 -5
-10 -11 -10 -5 0 -7 5 -4 10 3 6 8 10 11 10 2 0 4 -4 4 -10z m886 -2 c4 -7 3
-8 -4 -4 -7 4 -12 2 -12 -5 0 -7 -3 -10 -6 -6 -6 5 3 27 11 27 2 0 7 -5 11
-12z m69 2 c3 -5 2 -10 -4 -10 -5 0 -13 5 -16 10 -3 6 -2 10 4 10 5 0 13 -4
16 -10z m589 -7 c4 -11 1 -11 -14 -3 -24 13 -25 17 -5 17 8 0 16 -6 19 -14z
m-1953 -10 c13 -16 12 -17 -3 -4 -10 7 -18 15 -18 17 0 8 8 3 21 -13z m129 -3
c-6 -11 -13 -20 -16 -20 -2 0 0 9 6 20 6 11 13 20 16 20 2 0 0 -9 -6 -20z
m338 6 c-7 -8 -17 -12 -22 -9 -4 3 -2 9 5 14 22 13 31 11 17 -5z m935 -1 c-3
-9 -8 -14 -10 -11 -3 3 -2 9 2 15 9 16 15 13 8 -4z m-1438 -5 c-3 -5 -14 -10
-23 -10 -15 0 -15 2 -2 10 20 13 33 13 25 0z m1242 -3 c0 -8 -6 -14 -14 -14
-9 0 -10 4 -2 14 6 7 12 13 14 13 1 0 2 -6 2 -13z m-48 -15 c8 -15 4 -22 -19
-36 -25 -14 -29 -15 -24 -2 3 9 11 14 17 13 7 -1 12 8 11 21 -1 27 2 28 15 4z
m158 -2 c-1 -12 -5 -16 -10 -11 -5 5 -6 14 -3 20 11 16 15 13 13 -9z m790 -2
c-3 -8 -6 -5 -6 6 -1 11 2 17 5 13 3 -3 4 -12 1 -19z m-247 -4 c0 -2 -7 -4
-15 -4 -8 0 -15 4 -15 10 0 5 7 7 15 4 8 -4 15 -8 15 -10z m55 -2 c-3 -3 -11
0 -18 7 -9 10 -8 11 6 5 10 -3 15 -9 12 -12z m-242 -12 c-3 -12 -8 -19 -11
-16 -5 6 5 36 12 36 2 0 2 -9 -1 -20z m-1033 0 c0 -5 -5 -10 -11 -10 -5 0 -7
5 -4 10 3 6 8 10 11 10 2 0 4 -4 4 -10z m554 -5 c-4 -8 -11 -15 -16 -15 -6 0
-5 6 2 15 7 8 14 15 16 15 2 0 1 -7 -2 -15z m346 11 c0 -2 -8 -10 -17 -17 -16
-13 -17 -12 -4 4 13 16 21 21 21 13z m38 -21 c-3 -3 -9 2 -12 12 -6 14 -5 15
5 6 7 -7 10 -15 7 -18z m232 15 c0 -5 -5 -10 -11 -10 -5 0 -7 5 -4 10 3 6 8
10 11 10 2 0 4 -4 4 -10z m251 -7 c12 -16 12 -17 -1 -7 -8 6 -22 14 -30 17
-13 5 -12 6 1 6 9 1 23 -7 30 -16z m-87 -8 c11 -8 16 -15 10 -15 -5 0 -18 7
-28 15 -11 8 -16 15 -10 15 5 0 18 -7 28 -15z m-1789 -8 c-10 -8 -15 -19 -11
-25 5 -8 1 -10 -9 -6 -14 6 -14 8 1 25 9 11 22 19 27 19 6 0 3 -6 -8 -13z
m1280 4 c3 -5 2 -12 -3 -15 -5 -3 -9 1 -9 9 0 17 3 19 12 6z m379 -6 c-4 -8
-8 -15 -10 -15 -2 0 -4 7 -4 15 0 8 4 15 10 15 5 0 7 -7 4 -15z m-2099 -5 c-3
-5 -11 -10 -16 -10 -6 0 -7 5 -4 10 3 6 11 10 16 10 6 0 7 -4 4 -10z m1327 3
c-6 -2 -10 -9 -7 -14 4 -5 -1 -6 -10 -2 -13 5 -14 7 -3 14 7 5 18 8 23 8 6 0
4 -3 -3 -6z m1095 -15 c-3 -8 -6 -5 -6 6 -1 11 2 17 5 13 3 -3 4 -12 1 -19z
m-2129 -13 c-3 -3 -9 2 -12 12 -6 14 -5 15 5 6 7 -7 10 -15 7 -18z m1192 10
c10 -12 9 -15 -4 -15 -10 0 -15 4 -12 9 4 5 0 12 -6 14 -8 4 -9 6 -2 6 6 1 17
-6 24 -14z m60 11 c0 -2 -7 -7 -16 -10 -8 -3 -12 -2 -9 4 6 10 25 14 25 6z
m-1575 -24 c-3 -3 -11 0 -18 7 -9 10 -8 11 6 5 10 -3 15 -9 12 -12z m2282 -4
c-3 -8 -6 -5 -6 6 -1 11 2 17 5 13 3 -3 4 -12 1 -19z m-773 -27 c-5 -6 -34 20
-34 30 0 5 8 1 18 -8 10 -10 17 -20 16 -22z m93 33 c-3 -3 -12 -4 -19 -1 -8 3
-5 6 6 6 11 1 17 -2 13 -5z m948 -4 c-3 -5 -12 -10 -18 -10 -7 0 -6 4 3 10 19
12 23 12 15 0z m-1971 -25 c-9 -14 -18 -25 -20 -25 -2 0 2 11 8 25 6 14 15 25
20 25 5 0 1 -11 -8 -25z m2006 15 c0 -5 -2 -10 -4 -10 -3 0 -8 5 -11 10 -3 6
-1 10 4 10 6 0 11 -4 11 -10z m-1553 -6 c-3 -3 -12 -4 -19 -1 -8 3 -5 6 6 6
11 1 17 -2 13 -5z m306 -9 c-3 -9 -8 -14 -10 -11 -3 3 -2 9 2 15 9 16 15 13 8
-4z m1002 5 c3 -5 1 -10 -4 -10 -6 0 -11 5 -11 10 0 6 2 10 4 10 3 0 8 -4 11
-10z m85 0 c0 -5 -5 -10 -11 -10 -5 0 -7 5 -4 10 3 6 8 10 11 10 2 0 4 -4 4
-10z m-1012 -30 c-1 -16 -6 -30 -10 -30 -9 0 -10 7 -2 38 9 31 15 27 12 -8z
m169 15 c4 -4 2 -5 -4 -1 -7 4 -13 2 -13 -3 0 -6 -4 -11 -8 -11 -5 0 -9 6 -9
14 0 15 21 16 34 1z m963 5 c0 -5 -5 -10 -11 -10 -5 0 -7 5 -4 10 3 6 8 10 11
10 2 0 4 -4 4 -10z m-2553 -6 c-3 -3 -12 -4 -19 -1 -8 3 -5 6 6 6 11 1 17 -2
13 -5z m550 -32 c0 -11 -4 -10 -14 4 -7 10 -13 22 -13 26 0 5 6 3 13 -4 8 -7
14 -19 14 -26z m913 24 c0 -3 -4 -8 -10 -11 -5 -3 -10 -1 -10 4 0 6 5 11 10
11 6 0 10 -2 10 -4z m1008 -21 c-3 -3 -9 2 -12 12 -6 14 -5 15 5 6 7 -7 10
-15 7 -18z m-1678 5 c0 -5 -5 -10 -11 -10 -5 0 -7 5 -4 10 3 6 8 10 11 10 2 0
4 -4 4 -10z m492 -2 c-8 -8 -9 -15 0 -25 8 -11 7 -12 -6 -7 -9 3 -16 9 -16 13
0 8 22 31 29 31 3 0 0 -5 -7 -12z m235 -10 c-3 -8 -6 -5 -6 6 -1 11 2 17 5 13
3 -3 4 -12 1 -19z m230 7 c0 -8 -4 -12 -9 -9 -5 3 -6 10 -3 15 9 13 12 11 12
-6z m471 8 c-10 -2 -28 -2 -40 0 -13 2 -5 4 17 4 22 1 32 -1 23 -4z m-533 -14
c11 -17 -1 -21 -15 -4 -8 9 -8 15 -2 15 6 0 14 -5 17 -11z m278 -4 c-3 -9 -8
-14 -10 -11 -3 3 -2 9 2 15 9 16 15 13 8 -4z m-1363 -15 c0 -5 -2 -10 -4 -10
-3 0 -8 5 -11 10 -3 6 -1 10 4 10 6 0 11 -4 11 -10z m174 -6 c3 -8 2 -12 -4
-9 -6 3 -10 10 -10 16 0 14 7 11 14 -7z m822 7 c-4 -5 -1 -12 4 -14 6 -3 5 -4
-2 -3 -15 3 -23 26 -8 26 6 0 9 -4 6 -9z m-1326 -11 c8 -5 12 -11 10 -14 -3
-2 -14 2 -24 10 -22 15 -10 19 14 4z m607 -12 c-3 -8 -6 -5 -6 6 -1 11 2 17 5
13 3 -3 4 -12 1 -19z m1438 12 c-3 -5 -14 -10 -23 -9 -14 0 -13 2 3 9 27 11
27 11 20 0z m145 -6 c0 -8 -5 -12 -10 -9 -6 4 -8 11 -5 16 9 14 15 11 15 -7z
m-2410 -4 c0 -5 -2 -10 -4 -10 -3 0 -8 5 -11 10 -3 6 -1 10 4 10 6 0 11 -4 11
-10z m1610 0 c0 -5 -5 -10 -11 -10 -5 0 -7 5 -4 10 3 6 8 10 11 10 2 0 4 -4 4
-10z m490 -10 c-6 -11 -13 -20 -16 -20 -2 0 0 9 6 20 6 11 13 20 16 20 2 0 0
-9 -6 -20z m-1560 -5 c0 -8 -4 -15 -10 -15 -5 0 -7 7 -4 15 4 8 8 15 10 15 2
0 4 -7 4 -15z m955 5 c3 -6 -1 -7 -9 -4 -18 7 -21 14 -7 14 6 0 13 -4 16 -10z
m-995 -16 c0 -8 -5 -12 -10 -9 -6 4 -8 11 -5 16 9 14 15 11 15 -7z m860 12 c0
-2 -7 -7 -16 -10 -8 -3 -12 -2 -9 4 6 10 25 14 25 6z m60 -6 c0 -5 -5 -10 -11
-10 -5 0 -7 5 -4 10 3 6 8 10 11 10 2 0 4 -4 4 -10z m263 -34 c-10 -13 -20
-20 -22 -14 -1 5 5 16 15 23 26 20 28 18 7 -9z m687 14 c8 -5 11 -10 5 -10 -5
0 -17 5 -25 10 -8 5 -10 10 -5 10 6 0 17 -5 25 -10z m120 7 c0 -2 -10 -12 -22
-23 l-23 -19 19 23 c18 21 26 27 26 19z m71 -20 c-8 -8 -14 -7 -23 2 -11 10
-9 11 6 5 15 -6 17 -4 11 6 -6 9 -4 11 4 5 9 -5 10 -10 2 -18z m-1251 -4 c0
-3 -7 -3 -15 1 -8 3 -15 0 -15 -6 0 -6 -3 -9 -6 -5 -11 10 6 26 21 20 8 -3 15
-7 15 -10z m90 -17 c0 -5 -7 -3 -15 4 -8 7 -12 17 -9 22 7 10 24 -9 24 -26z
m185 14 c3 -6 -1 -7 -9 -4 -18 7 -21 14 -7 14 6 0 13 -4 16 -10z m599 -4 c-6
-15 -34 -31 -34 -19 0 5 30 32 37 33 1 0 0 -6 -3 -14z m166 3 c0 -5 -4 -8 -9
-4 -6 3 -15 -3 -21 -14 -8 -16 -6 -23 12 -35 12 -9 17 -16 11 -16 -6 0 -16 7
-23 15 -7 8 -16 12 -21 9 -16 -9 -10 5 13 31 23 26 38 32 38 14z m55 1 c3 -5
-1 -10 -10 -10 -9 0 -13 5 -10 10 3 6 8 10 10 10 2 0 7 -4 10 -10z m-2395 -4
c0 -2 -9 -6 -20 -9 -11 -3 -18 -1 -14 4 5 9 34 13 34 5z m1610 -10 c0 -3 -4
-8 -10 -11 -5 -3 -10 -1 -10 4 0 6 5 11 10 11 6 0 10 -2 10 -4z m884 -25 c-2
-3 -12 3 -22 13 -16 17 -16 18 5 5 12 -7 20 -15 17 -18z m-2069 9 c-3 -5 -12
-10 -18 -10 -7 0 -6 4 3 10 19 12 23 12 15 0z m427 -12 c-7 -7 -12 -8 -12 -2
0 14 12 26 19 19 2 -3 -1 -11 -7 -17z m458 12 c0 -5 -5 -10 -11 -10 -5 0 -7 5
-4 10 3 6 8 10 11 10 2 0 4 -4 4 -10z m932 3 c-6 -2 -9 -10 -6 -15 4 -7 2 -8
-5 -4 -13 9 -5 26 12 25 9 0 8 -2 -1 -6z m-862 -31 c0 -8 -1 -13 -3 -11 -1 2
-9 12 -16 22 -12 15 -12 17 3 11 9 -3 16 -13 16 -22z m280 24 c0 -3 -4 -8 -10
-11 -5 -3 -10 -1 -10 4 0 6 5 11 10 11 6 0 10 -2 10 -4z m531 -19 c-10 -9 -11
-8 -5 6 3 10 9 15 12 12 3 -3 0 -11 -7 -18z m-497 -2 c-4 -8 -10 -15 -15 -15
-4 0 -6 7 -3 15 4 8 10 15 15 15 4 0 6 -7 3 -15z m199 -10 c-3 -9 -8 -14 -10
-11 -3 3 -2 9 2 15 9 16 15 13 8 -4z m-1313 -10 c19 -22 8 -25 -12 -3 -10 10
-14 18 -9 18 5 0 14 -7 21 -15z m641 -2 c13 -16 12 -17 -3 -4 -10 7 -18 15
-18 17 0 8 8 3 21 -13z m229 7 c0 -5 -2 -10 -4 -10 -3 0 -8 5 -11 10 -3 6 -1
10 4 10 6 0 11 -4 11 -10z m155 1 c3 -5 2 -12 -3 -15 -5 -3 -9 1 -9 9 0 17 3
19 12 6z m-565 -5 c0 -3 -4 -8 -10 -11 -5 -3 -10 -1 -10 4 0 6 5 11 10 11 6 0
10 -2 10 -4z m1051 -25 c-12 -12 -21 -16 -21 -10 0 12 32 40 38 34 2 -2 -6
-13 -17 -24z m-1081 -16 c0 -5 -5 -3 -10 5 -5 8 -10 20 -10 25 0 6 5 3 10 -5
5 -8 10 -19 10 -25z m770 21 c0 -8 -7 -16 -15 -20 -12 -4 -13 -2 -2 14 14 24
17 25 17 6z m30 4 c0 -5 -2 -10 -4 -10 -3 0 -8 5 -11 10 -3 6 -1 10 4 10 6 0
11 -4 11 -10z m-355 -10 c-3 -5 -11 -10 -16 -10 -6 0 -7 5 -4 10 3 6 11 10 16
10 6 0 7 -4 4 -10z m235 0 c0 -5 -5 -10 -11 -10 -5 0 -7 5 -4 10 3 6 8 10 11
10 2 0 4 -4 4 -10z m150 0 c0 -5 -5 -10 -11 -10 -5 0 -7 5 -4 10 3 6 8 10 11
10 2 0 4 -4 4 -10z m310 0 c0 -5 -4 -10 -10 -10 -5 0 -10 5 -10 10 0 6 5 10
10 10 6 0 10 -4 10 -10z m64 1 c3 -5 -2 -15 -12 -22 -15 -12 -16 -12 -5 2 7 9
10 19 6 22 -3 4 -4 7 0 7 3 0 8 -4 11 -9z m-2407 -23 c-3 -8 -6 -5 -6 6 -1 11
2 17 5 13 3 -3 4 -12 1 -19z m1720 16 c-3 -3 -12 -4 -19 -1 -8 3 -5 6 6 6 11
1 17 -2 13 -5z m-1350 -26 c-3 -8 -6 -5 -6 6 -1 11 2 17 5 13 3 -3 4 -12 1
-19z m503 -10 c0 -5 -7 -3 -15 6 -8 8 -15 18 -15 22 0 3 7 1 15 -6 8 -7 15
-17 15 -22z m885 22 c3 -6 -1 -7 -9 -4 -18 7 -21 14 -7 14 6 0 13 -4 16 -10z
m-960 -10 c-3 -5 -12 -10 -18 -10 -7 0 -6 4 3 10 19 12 23 12 15 0z m785 -5
c-6 -8 -9 -19 -5 -25 7 -11 -7 -14 -18 -4 -7 8 15 44 27 44 4 0 3 -7 -4 -15z
m1006 3 c-12 -7 -21 -7 -28 0 -6 6 0 10 18 10 23 0 24 -2 10 -10z m-699 -12
c0 -8 -6 -12 -15 -9 -11 5 -11 7 0 14 7 5 13 9 14 9 0 0 1 -6 1 -14z m444 -9
c-10 -9 -11 -8 -5 6 3 10 9 15 12 12 3 -3 0 -11 -7 -18z m-1271 -2 c11 -13 10
-14 -4 -9 -9 3 -16 10 -16 15 0 13 6 11 20 -6z m710 11 c0 -2 -7 -7 -16 -10
-8 -3 -12 -2 -9 4 6 10 25 14 25 6z m-1403 -38 c-3 -7 -5 -2 -5 12 0 14 2 19
5 13 2 -7 2 -19 0 -25z m2075 10 c-7 -7 -12 -8 -12 -2 0 14 12 26 19 19 2 -3
-1 -11 -7 -17z m-2271 -11 c-10 -9 -11 -8 -5 6 3 10 9 15 12 12 3 -3 0 -11 -7
-18z m1026 17 c-3 -3 -12 -4 -19 -1 -8 3 -5 6 6 6 11 1 17 -2 13 -5z m523 2
c0 -2 -7 -7 -16 -10 -8 -3 -12 -2 -9 4 6 10 25 14 25 6z m80 -17 c0 -6 -4 -7
-10 -4 -5 3 -10 11 -10 16 0 6 5 7 10 4 6 -3 10 -11 10 -16z m37 15 c-3 -3
-12 -4 -19 -1 -8 3 -5 6 6 6 11 1 17 -2 13 -5z m447 -9 c-4 -8 -8 -15 -10 -15
-2 0 -4 7 -4 15 0 8 4 15 10 15 5 0 7 -7 4 -15z m-1239 -5 c3 -5 1 -10 -4 -10
-6 0 -11 5 -11 10 0 6 2 10 4 10 3 0 8 -4 11 -10z m405 1 c0 -6 -4 -12 -8 -15
-5 -3 -9 1 -9 9 0 8 4 15 9 15 4 0 8 -4 8 -9z m497 -13 c-3 -8 -6 -5 -6 6 -1
11 2 17 5 13 3 -3 4 -12 1 -19z m-1097 -13 c0 -11 -29 -11 -33 -1 -4 10 1 12
14 9 10 -3 19 -7 19 -8z m1000 5 c0 -5 -7 -7 -15 -4 -8 4 -15 8 -15 10 0 2 7
4 15 4 8 0 15 -4 15 -10z m-1812 -25 c-3 -3 -9 2 -12 12 -6 14 -5 15 5 6 7 -7
10 -15 7 -18z m433 8 c8 -9 9 -14 2 -10 -6 4 -13 1 -16 -5 -3 -7 -4 -3 -4 10
1 26 1 26 18 5z m289 -8 c0 -2 -9 -3 -19 -2 -11 0 -18 5 -15 9 4 6 34 0 34 -7z
m-330 1 c0 -11 -19 -15 -25 -6 -3 5 1 10 9 10 9 0 16 -2 16 -4z m547 -12 c-3
-3 -12 -4 -19 -1 -8 3 -5 6 6 6 11 1 17 -2 13 -5z m246 -9 c-3 -9 -8 -14 -10
-11 -3 3 -2 9 2 15 9 16 15 13 8 -4z m287 5 c0 -5 -4 -10 -10 -10 -5 0 -10 5
-10 10 0 6 5 10 10 10 6 0 10 -4 10 -10z m410 6 c0 -3 -4 -8 -10 -11 -5 -3
-10 -1 -10 4 0 6 5 11 10 11 6 0 10 -2 10 -4z m480 -6 c0 -5 -5 -10 -11 -10
-5 0 -7 5 -4 10 3 6 8 10 11 10 2 0 4 -4 4 -10z m-2406 -15 c3 -8 1 -15 -4
-15 -6 0 -10 7 -10 15 0 8 2 15 4 15 2 0 6 -7 10 -15z m601 5 c3 -5 1 -10 -4
-10 -6 0 -11 5 -11 10 0 6 2 10 4 10 3 0 8 -4 11 -10z m1766 -7 c13 -16 12
-17 -3 -4 -10 7 -18 15 -18 17 0 8 8 3 21 -13z m115 5 c4 -7 3 -8 -5 -4 -6 4
-14 0 -18 -11 -13 -37 -25 -45 -39 -26 -11 16 -9 20 19 34 18 9 33 17 34 18 1
1 5 -4 9 -11z m-1720 -28 c-1 -16 -2 -30 -2 -30 -1 0 -9 12 -19 26 -9 15 -12
24 -7 20 6 -3 13 -2 17 4 10 16 12 12 11 -20z m995 -3 c-10 -9 -11 -8 -5 6 3
10 9 15 12 12 3 -3 0 -11 -7 -18z m240 6 c11 -15 11 -16 -1 -6 -10 9 -17 10
-27 2 -9 -8 -13 -8 -13 -1 0 6 6 13 13 15 6 3 13 6 13 6 1 1 8 -7 15 -16z
m-1935 -21 c-17 -16 -18 -16 -5 5 7 12 15 20 18 17 3 -2 -3 -12 -13 -22z
m1419 10 c-3 -3 -11 0 -18 7 -9 10 -8 11 6 5 10 -3 15 -9 12 -12z m74 9 c9 -6
6 -8 -13 -8 -14 0 -23 3 -20 8 7 11 15 11 33 0z m141 -1 c0 -5 -7 -7 -15 -4
-8 4 -15 8 -15 10 0 2 7 4 15 4 8 0 15 -4 15 -10z m230 6 c0 -3 -4 -8 -10 -11
-5 -3 -10 -1 -10 4 0 6 5 11 10 11 6 0 10 -2 10 -4z m555 -6 c3 -5 1 -10 -4
-10 -6 0 -11 5 -11 10 0 6 2 10 4 10 3 0 8 -4 11 -10z m215 0 c0 -5 -5 -10
-11 -10 -5 0 -7 5 -4 10 3 6 8 10 11 10 2 0 4 -4 4 -10z m-2570 -4 c0 -2 -7
-7 -16 -10 -8 -3 -12 -2 -9 4 6 10 25 14 25 6z m1310 -12 c0 -8 -5 -12 -10 -9
-6 4 -8 11 -5 16 9 14 15 11 15 -7z m181 -7 c-10 -9 -11 -8 -5 6 3 10 9 15 12
12 3 -3 0 -11 -7 -18z m332 10 c3 -8 -1 -14 -8 -14 -7 0 -11 6 -8 14 3 7 6 13
8 13 2 0 5 -6 8 -13z m163 -23 c1 -9 0 -13 -4 -10 -3 4 -7 14 -8 22 -1 9 0 13
4 10 3 -4 7 -14 8 -22z m-626 6 c0 -5 -2 -10 -4 -10 -3 0 -8 5 -11 10 -3 6 -1
10 4 10 6 0 11 -4 11 -10z m980 0 c0 -5 -5 -10 -11 -10 -5 0 -7 5 -4 10 3 6 8
10 11 10 2 0 4 -4 4 -10z m-2430 -10 c0 -5 -5 -10 -11 -10 -5 0 -7 5 -4 10 3
6 8 10 11 10 2 0 4 -4 4 -10z m751 -13 c-10 -9 -11 -8 -5 6 3 10 9 15 12 12 3
-3 0 -11 -7 -18z m-81 1 c0 -4 -4 -8 -9 -8 -6 0 -12 4 -15 8 -3 5 1 9 9 9 8 0
15 -4 15 -9z m980 8 c0 -2 -7 -7 -16 -10 -8 -3 -12 -2 -9 4 6 10 25 14 25 6z
m265 -6 c3 -5 1 -10 -4 -10 -6 0 -11 5 -11 10 0 6 2 10 4 10 3 0 8 -4 11 -10z
m82 -12 c-3 -8 -6 -5 -6 6 -1 11 2 17 5 13 3 -3 4 -12 1 -19z m480 0 c-3 -8
-6 -5 -6 6 -1 11 2 17 5 13 3 -3 4 -12 1 -19z m33 12 c0 -5 -2 -10 -4 -10 -3
0 -8 5 -11 10 -3 6 -1 10 4 10 6 0 11 -4 11 -10z m50 0 c0 -5 -2 -10 -4 -10
-3 0 -8 5 -11 10 -3 6 -1 10 4 10 6 0 11 -4 11 -10z m-2233 -22 c-3 -8 -6 -5
-6 6 -1 11 2 17 5 13 3 -3 4 -12 1 -19z m1104 -1 c-10 -9 -11 -8 -5 6 3 10 9
15 12 12 3 -3 0 -11 -7 -18z m290 9 c5 3 9 0 9 -6 0 -15 -23 -7 -26 8 -1 7 0
8 3 2 2 -5 9 -8 14 -4z m-1697 -5 c3 -5 -1 -11 -9 -14 -9 -4 -12 -1 -8 9 6 16
10 17 17 5z m770 0 c3 -5 -1 -11 -9 -14 -9 -4 -12 -1 -8 9 6 16 10 17 17 5z
m199 -11 c3 -11 1 -20 -4 -20 -5 0 -9 9 -9 20 0 11 2 20 4 20 2 0 6 -9 9 -20z
m181 5 c-23 -17 -34 -19 -34 -4 0 5 4 8 9 4 5 -3 12 -1 16 5 3 5 11 10 18 10
6 0 2 -7 -9 -15z m81 5 c-3 -5 -12 -10 -18 -10 -7 0 -6 4 3 10 19 12 23 12 15
0z m365 -11 c0 -14 -17 -10 -23 5 -4 10 -1 13 9 9 7 -3 14 -9 14 -14z m-1220
7 c0 -2 -8 -10 -17 -17 -16 -13 -17 -12 -4 4 13 16 21 21 21 13z m210 -6 c0
-5 -8 -10 -17 -10 -15 0 -16 2 -3 10 19 12 20 12 20 0z m504 -1 c-3 -6 0 -15
7 -20 9 -6 10 -9 2 -9 -15 0 -26 17 -18 30 3 6 8 10 11 10 3 0 2 -5 -2 -11z
m1330 -21 c6 -4 1 -6 -10 -6 -16 2 -20 7 -16 22 4 15 7 17 10 6 3 -8 10 -18
16 -22z m-1892 7 c3 0 9 -3 13 -7 4 -3 0 -5 -9 -4 -9 1 -22 8 -29 16 -10 10
-9 11 3 4 8 -5 18 -9 22 -9z m351 8 c-7 -2 -19 -2 -25 0 -7 3 -2 5 12 5 14 0
19 -2 13 -5z m928 -6 c-6 -8 -8 -17 -4 -20 3 -4 1 -7 -5 -7 -15 0 -15 13 0 28
16 16 23 15 9 -1z m194 3 c3 -6 -1 -7 -9 -4 -18 7 -21 14 -7 14 6 0 13 -4 16
-10z m328 -10 c3 -11 1 -20 -4 -20 -5 0 -9 9 -9 20 0 11 2 20 4 20 2 0 6 -9 9
-20z m-1658 0 c-3 -5 -1 -10 6 -10 7 0 10 -3 6 -6 -9 -9 -28 6 -22 17 4 5 8 9
11 9 3 0 2 -4 -1 -10z m770 0 c-3 -5 -12 -10 -18 -10 -7 0 -6 4 3 10 19 12 23
12 15 0z m72 -12 c-3 -8 -6 -5 -6 6 -1 11 2 17 5 13 3 -3 4 -12 1 -19z m223 7
c0 -8 -2 -15 -4 -15 -2 0 -6 7 -10 15 -3 8 -1 15 4 15 6 0 10 -7 10 -15z m145
-5 c-3 -5 -12 -10 -18 -10 -7 0 -6 4 3 10 19 12 23 12 15 0z m420 0 c3 -5 1
-10 -4 -10 -6 0 -11 5 -11 10 0 6 2 10 4 10 3 0 8 -4 11 -10z m245 0 c0 -5 -5
-10 -11 -10 -5 0 -7 5 -4 10 3 6 8 10 11 10 2 0 4 -4 4 -10z m-1603 -22 c-3
-8 -6 -5 -6 6 -1 11 2 17 5 13 3 -3 4 -12 1 -19z m715 0 c-7 -7 -12 -8 -12 -2
0 14 12 26 19 19 2 -3 -1 -11 -7 -17z m-1112 -3 c7 -9 8 -15 2 -15 -5 0 -12 7
-16 15 -3 8 -4 15 -2 15 2 0 9 -7 16 -15z m630 5 c0 -5 -5 -10 -11 -10 -5 0
-7 5 -4 10 3 6 8 10 11 10 2 0 4 -4 4 -10z m245 0 c8 -13 -5 -13 -25 0 -13 8
-13 10 2 10 9 0 20 -4 23 -10z m285 0 c0 -5 -4 -10 -10 -10 -5 0 -10 5 -10 10
0 6 5 10 10 10 6 0 10 -4 10 -10z m75 1 c3 -5 1 -12 -5 -16 -5 -3 -10 1 -10 9
0 18 6 21 15 7z m-1374 -28 c-12 -20 -14 -14 -5 12 4 9 9 14 11 11 3 -2 0 -13
-6 -23z m2194 17 c-3 -5 -10 -10 -16 -10 -5 0 -9 5 -9 10 0 6 7 10 16 10 8 0
12 -4 9 -10z m-2025 -15 c0 -8 -4 -15 -10 -15 -5 0 -7 7 -4 15 4 8 8 15 10 15
2 0 4 -7 4 -15z m1100 -6 c0 -11 -4 -18 -10 -14 -5 3 -7 12 -3 20 7 21 13 19
13 -6z m1004 -11 c-3 -4 -11 -8 -17 -7 -9 0 -9 2 0 5 7 3 9 13 6 22 -4 14 -3
14 5 2 6 -8 8 -18 6 -22z m-2377 -15 c-3 -10 -5 -4 -5 12 0 17 2 24 5 18 2 -7
2 -21 0 -30z m678 27 c3 -5 2 -10 -4 -10 -5 0 -13 5 -16 10 -3 6 -2 10 4 10 5
0 13 -4 16 -10z m153 -15 c-3 -3 -9 2 -12 12 -6 14 -5 15 5 6 7 -7 10 -15 7
-18z m122 15 c0 -5 -10 -15 -22 -21 l-23 -12 20 21 c23 24 25 25 25 12z m174
-22 c-3 -5 -12 -2 -20 6 -20 21 -17 28 5 14 11 -7 17 -16 15 -20z m536 28 c0
-2 -7 -7 -16 -10 -8 -3 -12 -2 -9 4 6 10 25 14 25 6z m458 -10 c-7 -8 -17 -12
-22 -9 -4 3 -2 9 5 14 22 13 31 11 17 -5z m-1614 -4 c3 -5 -1 -9 -9 -9 -8 0
-15 4 -15 9 0 4 4 8 9 8 6 0 12 -4 15 -8z m496 -2 c0 -5 -5 -10 -11 -10 -5 0
-7 5 -4 10 3 6 8 10 11 10 2 0 4 -4 4 -10z m1227 4 c-3 -3 -12 -4 -19 -1 -8 3
-5 6 6 6 11 1 17 -2 13 -5z m-1007 -8 c0 -2 -9 -6 -20 -9 -11 -3 -18 -1 -14 4
5 9 34 13 34 5z m225 -6 c-3 -5 -11 -10 -16 -10 -6 0 -7 5 -4 10 3 6 11 10 16
10 6 0 7 -4 4 -10z m875 6 c0 -2 -8 -10 -17 -17 -16 -13 -17 -12 -4 4 13 16
21 21 21 13z m-2673 -38 c-3 -7 -5 -2 -5 12 0 14 2 19 5 13 2 -7 2 -19 0 -25z
m1523 18 c0 -2 -7 -7 -16 -10 -8 -3 -12 -2 -9 4 6 10 25 14 25 6z m135 -8
c-11 -6 -22 -14 -25 -17 -3 -3 -12 -7 -20 -9 -11 -3 -9 2 5 15 11 11 29 20 40
20 20 2 20 2 0 -9z m-1200 -8 c3 -6 -1 -7 -9 -4 -10 4 -16 1 -16 -7 0 -7 -3
-10 -6 -6 -7 7 4 27 16 27 5 0 12 -4 15 -10z m429 -6 c3 -8 2 -12 -4 -9 -6 3
-10 10 -10 16 0 14 7 11 14 -7z m116 -14 c0 -5 -7 -7 -15 -4 -8 4 -15 8 -15
10 0 2 7 4 15 4 8 0 15 -4 15 -10z m-200 -4 c0 -3 -4 -8 -10 -11 -5 -3 -10 -1
-10 4 0 6 5 11 10 11 6 0 10 -2 10 -4z m50 -6 c0 -5 -2 -10 -4 -10 -3 0 -8 5
-11 10 -3 6 -1 10 4 10 6 0 11 -4 11 -10z m180 0 c0 -5 -2 -10 -4 -10 -3 0 -8
5 -11 10 -3 6 -1 10 4 10 6 0 11 -4 11 -10z m250 6 c0 -2 -7 -7 -16 -10 -8 -3
-12 -2 -9 4 6 10 25 14 25 6z m240 -2 c0 -8 -19 -13 -24 -6 -3 5 1 9 9 9 8 0
15 -2 15 -3z m65 -15 c-5 -6 -55 0 -55 7 0 3 13 3 29 2 16 -1 28 -5 26 -9z
m306 -3 c-10 -11 -9 -15 3 -18 11 -2 8 -7 -10 -15 -22 -10 -24 -10 -14 3 7 8
9 14 5 14 -4 0 -2 7 5 15 7 8 15 15 17 15 3 0 0 -6 -6 -14z m-1476 -6 c3 -5
-1 -10 -10 -10 -9 0 -13 5 -10 10 3 6 8 10 10 10 2 0 7 -4 10 -10z m2090 1 c3
-5 2 -12 -3 -15 -5 -3 -9 1 -9 9 0 17 3 19 12 6z m-1721 -9 c3 -5 -1 -9 -9 -9
-8 0 -12 4 -9 9 3 4 7 8 9 8 2 0 6 -4 9 -8z m59 -7 c-3 -9 -8 -14 -10 -11 -3
3 -2 9 2 15 9 16 15 13 8 -4z m1557 11 c0 -3 -4 -8 -10 -11 -5 -3 -10 -1 -10
4 0 6 5 11 10 11 6 0 10 -2 10 -4z m-1946 -22 c5 -14 4 -15 -9 -4 -17 14 -19
20 -6 20 5 0 12 -7 15 -16z m441 6 c3 -6 -1 -7 -9 -4 -18 7 -21 14 -7 14 6 0
13 -4 16 -10z m50 0 c3 -6 -1 -7 -9 -4 -18 7 -21 14 -7 14 6 0 13 -4 16 -10z
m230 -10 c3 -5 -4 -6 -15 -3 -11 3 -22 9 -25 13 -3 5 4 6 15 3 11 -3 22 -9 25
-13z m-1158 4 c-3 -3 -12 -4 -19 -1 -8 3 -5 6 6 6 11 1 17 -2 13 -5z m1663 -1
c0 -5 -13 -8 -29 -8 -16 0 -27 3 -24 8 2 4 15 7 29 7 13 0 24 -3 24 -7z m300
3 c0 -2 -8 -10 -17 -17 -16 -13 -17 -12 -4 4 13 16 21 21 21 13z m-470 -10 c0
-3 -4 -8 -10 -11 -5 -3 -10 -1 -10 4 0 6 5 11 10 11 6 0 10 -2 10 -4z m905 -6
c3 -5 -1 -10 -10 -10 -9 0 -13 5 -10 10 3 6 8 10 10 10 2 0 7 -4 10 -10z m95
6 c0 -2 -8 -10 -17 -17 -16 -13 -17 -12 -4 4 13 16 21 21 21 13z m-50 -28 c0
-6 -6 -5 -15 2 -8 7 -15 14 -15 16 0 2 7 1 15 -2 8 -4 15 -11 15 -16z m-1845
2 c3 -5 2 -10 -4 -10 -5 0 -13 5 -16 10 -3 6 -2 10 4 10 5 0 13 -4 16 -10z
m219 1 c3 -5 -1 -11 -9 -14 -9 -4 -12 -1 -8 9 6 16 10 17 17 5z m520 -20 c-2
-3 -12 3 -22 13 -16 17 -16 18 5 5 12 -7 20 -15 17 -18z m51 19 c-3 -5 -12
-10 -18 -10 -7 0 -6 4 3 10 19 12 23 12 15 0z m225 6 c0 -2 -8 -10 -17 -17
-16 -13 -17 -12 -4 4 13 16 21 21 21 13z m1165 -7 c11 -16 1 -19 -13 -3 -7 8
-8 14 -3 14 5 0 13 -5 16 -11z m-2417 -12 c-7 -8 -19 -14 -26 -14 -11 0 -10 4
4 14 10 7 22 13 26 13 5 0 3 -6 -4 -13z m919 -9 c-3 -8 -6 -5 -6 6 -1 11 2 17
5 13 3 -3 4 -12 1 -19z m1420 3 c-1 -12 -6 -17 -16 -13 -10 4 -11 7 -3 10 7 2
10 8 6 13 -3 5 -1 9 5 9 5 0 9 -9 8 -19z m-1237 4 c0 -2 -10 -9 -22 -15 -22
-11 -22 -10 -4 4 21 17 26 19 26 11z m45 -5 c-3 -5 -12 -10 -18 -10 -7 0 -6 4
3 10 19 12 23 12 15 0z m-428 -22 c-3 -8 -6 -5 -6 6 -1 11 2 17 5 13 3 -3 4
-12 1 -19z m644 9 c-6 -8 -7 -18 -3 -23 4 -4 -1 -2 -10 5 -19 14 -25 26 -9 16
5 -3 12 -1 16 5 3 5 9 10 12 10 3 0 0 -6 -6 -13z m702 -2 c-3 -9 -8 -14 -10
-11 -3 3 -2 9 2 15 9 16 15 13 8 -4z m-1976 -12 c0 -8 -6 -9 -16 -4 -9 5 -23
11 -31 14 -8 3 -1 4 16 4 17 -1 31 -7 31 -14z m1108 7 c8 -13 -5 -13 -25 0
-13 8 -13 10 2 10 9 0 20 -4 23 -10z m448 -5 c-3 -9 -8 -14 -10 -11 -3 3 -2 9
2 15 9 16 15 13 8 -4z m647 11 c0 -3 -4 -8 -10 -11 -5 -3 -10 -1 -10 4 0 6 5
11 10 11 6 0 10 -2 10 -4z m-1710 -16 c0 -5 -8 -10 -17 -10 -15 0 -16 2 -3 10
19 12 20 12 20 0z m75 0 c-11 -5 -27 -9 -35 -9 -9 0 -8 4 5 9 11 5 27 9 35 9
9 0 8 -4 -5 -9z m440 0 c-3 -5 -12 -10 -18 -10 -7 0 -6 4 3 10 19 12 23 12 15
0z m306 -13 c-10 -9 -11 -8 -5 6 3 10 9 15 12 12 3 -3 0 -11 -7 -18z m637 9
c-2 -1 -12 -8 -22 -16 -18 -14 -18 -14 -6 7 8 12 18 19 23 16 4 -3 7 -6 5 -7z
m192 -1 c0 -8 -2 -15 -4 -15 -2 0 -6 7 -10 15 -3 8 -1 15 4 15 6 0 10 -7 10
-15z m-2509 -12 c8 -9 9 -14 2 -10 -7 4 -13 0 -16 -10 -3 -10 -4 -6 -4 10 2
32 1 32 18 10z m469 -3 c6 -11 8 -20 6 -20 -3 0 -10 9 -16 20 -6 11 -8 20 -6
20 3 0 10 -9 16 -20z m602 -12 c-8 -8 -9 -4 -5 13 4 13 8 18 11 10 2 -7 -1
-18 -6 -23z m-347 -3 c-4 -37 -12 -40 -12 -5 0 17 4 30 8 30 4 0 6 -11 4 -25z
m330 15 c-3 -5 -12 -10 -18 -10 -7 0 -6 4 3 10 19 12 23 12 15 0z m335 -5 c-7
-8 -20 -15 -29 -15 -11 1 -8 5 9 15 32 18 35 18 20 0z m70 0 c11 -13 10 -14
-4 -9 -9 3 -16 10 -16 15 0 13 6 11 20 -6z m-330 -15 c-13 -8 -13 -10 -1 -10
8 0 12 -3 8 -6 -3 -3 -11 -3 -17 1 -8 5 -8 11 1 21 6 8 14 12 18 9 3 -3 -1
-10 -9 -15z m40 10 c0 -5 -2 -10 -4 -10 -3 0 -8 5 -11 10 -3 6 -1 10 4 10 6 0
11 -4 11 -10z m50 -10 c-11 -7 -12 -10 -2 -10 7 0 10 -5 6 -11 -4 -8 -9 -7
-15 2 -8 14 9 44 20 34 3 -3 -1 -10 -9 -15z m438 6 c-2 -1 -12 -8 -22 -16 -18
-14 -18 -14 -6 7 8 12 18 19 23 16 4 -3 7 -6 5 -7z m212 10 c0 -2 -8 -10 -17
-17 -16 -13 -17 -12 -4 4 13 16 21 21 21 13z m-1940 -12 c0 -8 -19 -13 -24 -6
-3 5 1 9 9 9 8 0 15 -2 15 -3z m474 -10 c3 -8 2 -12 -4 -9 -6 3 -10 10 -10 16
0 14 7 11 14 -7z m146 6 c0 -5 7 -7 15 -4 8 4 15 4 15 1 0 -13 -28 -13 -45 -1
-17 12 -17 14 -2 14 9 0 17 -4 17 -10z m1237 -9 c1 -11 -6 -26 -15 -33 -15
-11 -16 -11 -4 3 7 9 12 21 11 25 -2 11 0 24 4 24 1 0 3 -9 4 -19z m467 6 c4
4 4 -1 0 -10 -3 -10 -7 -17 -8 -15 -1 2 -8 12 -16 23 -14 18 -13 19 1 8 9 -7
19 -10 23 -6z m-2397 -3 c-3 -3 -12 -4 -19 -1 -8 3 -5 6 6 6 11 1 17 -2 13 -5z
m1888 -4 c-3 -5 -12 -10 -18 -10 -7 0 -6 4 3 10 19 12 23 12 15 0z m675 4 c0
-8 -19 -13 -24 -6 -3 5 1 9 9 9 8 0 15 -2 15 -3z m144 -10 c3 -8 2 -12 -4 -9
-6 3 -10 10 -10 16 0 14 7 11 14 -7z m116 6 c0 -5 -5 -10 -11 -10 -5 0 -7 5
-4 10 3 6 8 10 11 10 2 0 4 -4 4 -10z m-1745 -10 c-3 -5 -12 -10 -18 -10 -7 0
-6 4 3 10 19 12 23 12 15 0z m-668 -22 c-3 -8 -6 -5 -6 6 -1 11 2 17 5 13 3
-3 4 -12 1 -19z m381 8 c-7 -8 -15 -12 -17 -11 -5 6 10 25 20 25 5 0 4 -6 -3
-14z m762 -19 c0 -4 -6 -2 -14 5 -8 7 -12 17 -9 22 5 8 23 -12 23 -27z m245
23 c-3 -5 -12 -10 -18 -10 -7 0 -6 4 3 10 19 12 23 12 15 0z m955 6 c0 -2 -7
-7 -16 -10 -8 -3 -12 -2 -9 4 6 10 25 14 25 6z m-2287 -26 c-8 -30 -21 -34
-15 -5 2 14 8 25 12 25 5 0 6 -9 3 -20z m88 3 c13 -16 12 -17 -3 -4 -10 7 -18
15 -18 17 0 8 8 3 21 -13z m129 7 c0 -5 -4 -10 -10 -10 -5 0 -10 5 -10 10 0 6
5 10 10 10 6 0 10 -4 10 -10z m1866 -6 c-10 -7 -23 -11 -27 -8 -17 10 -9 19
18 21 26 1 26 0 9 -13z m-1102 -10 c3 -8 2 -12 -4 -9 -6 3 -10 10 -10 16 0 14
7 11 14 -7z m216 13 c0 -2 -9 -12 -20 -22 -24 -21 -27 -14 -4 9 15 15 24 20
24 13z m40 -6 c0 -6 -4 -12 -8 -15 -5 -3 -9 1 -9 9 0 8 4 15 9 15 4 0 8 -4 8
-9z m70 -20 c10 -22 9 -24 -2 -11 -7 8 -19 19 -27 25 -11 10 -11 12 2 12 8 0
21 -12 27 -26z m217 23 c-3 -3 -12 -4 -19 -1 -8 3 -5 6 6 6 11 1 17 -2 13 -5z
m-997 -19 c11 -13 10 -14 -4 -9 -9 3 -16 10 -16 15 0 13 6 11 20 -6z m845 6
c3 -5 2 -12 -3 -15 -5 -3 -9 1 -9 9 0 17 3 19 12 6z m282 -13 c-3 -8 -6 -5 -6
6 -1 11 2 17 5 13 3 -3 4 -12 1 -19z m-1606 -11 c-10 -9 -11 -8 -5 6 3 10 9
15 12 12 3 -3 0 -11 -7 -18z m372 -2 c-7 -21 -13 -19 -13 6 0 11 4 18 10 14 5
-3 7 -12 3 -20z m640 10 c-3 -9 -8 -14 -10 -11 -3 3 -2 9 2 15 9 16 15 13 8
-4z m877 5 c0 -5 -8 -10 -17 -10 -15 0 -16 2 -3 10 19 12 20 12 20 0z m84 -6
c3 -8 2 -12 -4 -9 -6 3 -10 10 -10 16 0 14 7 11 14 -7z m261 6 c-3 -5 -12 -10
-18 -10 -7 0 -6 4 3 10 19 12 23 12 15 0z m-2766 -31 c-19 -11 -24 -3 -8 14 8
9 16 11 18 5 2 -6 -3 -14 -10 -19z m408 9 c-3 -8 -6 -5 -6 6 -1 11 2 17 5 13
3 -3 4 -12 1 -19z m268 12 c-3 -5 -14 -10 -23 -9 -14 0 -13 2 3 9 27 11 27 11
20 0z m118 -5 c-3 -9 -8 -14 -10 -11 -3 3 -2 9 2 15 9 16 15 13 8 -4z m190 0
c4 -8 3 -16 -1 -19 -4 -3 -9 4 -9 15 -2 23 3 25 10 4z m355 -20 c-2 -12 -6
-11 -16 6 -8 11 -9 18 -3 14 6 -3 11 0 12 7 0 10 2 10 6 1 2 -7 3 -20 1 -28z
m575 21 c4 -10 1 -13 -8 -9 -8 3 -12 9 -9 14 7 12 11 11 17 -5z m-1343 -12 c0
-8 -4 -12 -10 -9 -5 3 -10 10 -10 16 0 5 5 9 10 9 6 0 10 -7 10 -16z m1501 -7
c-10 -9 -11 -8 -5 6 3 10 9 15 12 12 3 -3 0 -11 -7 -18z m-1461 -4 c0 -10 -4
-14 -8 -8 -4 6 -11 13 -16 18 -5 4 -2 7 7 7 10 0 17 -8 17 -17z m264 9 c3 -5
-1 -9 -9 -9 -8 0 -12 4 -9 9 3 4 7 8 9 8 2 0 6 -4 9 -8z m822 -13 c0 -13 -3
-15 -13 -7 -7 6 -13 14 -13 18 0 3 6 7 13 7 7 0 13 -8 13 -18z m1171 -11 c-3
-7 -5 -2 -5 12 0 14 2 19 5 13 2 -7 2 -19 0 -25z m-2190 -1 c-2 -6 -13 -11
-25 -12 -21 -2 -21 -1 -4 15 18 18 36 16 29 -3z m387 14 c3 -5 -1 -11 -9 -14
-9 -4 -12 -1 -8 9 6 16 10 17 17 5z m181 -1 c3 -6 -1 -7 -9 -4 -18 7 -21 14
-7 14 6 0 13 -4 16 -10z m235 1 c0 -5 -7 -12 -16 -15 -14 -5 -15 -4 -4 9 14
17 20 19 20 6z m354 -3 c-2 -4 -29 -7 -59 -7 -31 0 -53 3 -51 7 2 4 29 7 59 7
30 0 53 -3 51 -7z m-1304 -8 c0 -5 -5 -10 -11 -10 -5 0 -7 5 -4 10 3 6 8 10
11 10 2 0 4 -4 4 -10z m387 -17 c1 -19 -1 -22 -8 -12 -11 17 -12 39 -1 39 4 0
8 -12 9 -27z m200 10 c0 -9 -4 -10 -14 -2 -7 6 -13 12 -13 14 0 1 6 2 13 2 8
0 14 -6 14 -14z m93 11 c0 -8 -19 -13 -24 -6 -3 5 1 9 9 9 8 0 15 -2 15 -3z
m1468 -6 c8 -10 3 -13 -21 -12 -49 2 -55 6 -22 14 17 4 31 8 31 9 1 0 6 -5 12
-11z m-1948 -2 c0 -3 -4 -8 -10 -11 -5 -3 -10 -1 -10 4 0 6 5 11 10 11 6 0 10
-2 10 -4z m273 -11 c6 -15 -10 -32 -20 -21 -4 3 -1 6 7 6 10 0 10 3 0 15 -7 9
-8 15 -2 15 5 0 12 -7 15 -15z m317 -16 c-15 -28 -30 -23 -17 5 7 13 15 22 19
20 5 -3 3 -14 -2 -25z m307 25 c-3 -3 -12 -4 -19 -1 -8 3 -5 6 6 6 11 1 17 -2
13 -5z m1097 -6 c-3 -4 -9 -8 -15 -8 -5 0 -9 4 -9 8 0 5 7 9 15 9 8 0 12 -4 9
-9z m-2619 -8 c3 -5 1 -10 -4 -10 -6 0 -11 5 -11 10 0 6 2 10 4 10 3 0 8 -4
11 -10z m480 0 c-3 -5 -14 -10 -23 -9 -14 0 -13 2 3 9 27 11 27 11 20 0z m370
0 c3 -6 -1 -7 -9 -4 -18 7 -21 14 -7 14 6 0 13 -4 16 -10z m285 0 c0 -5 -2
-10 -4 -10 -3 0 -8 5 -11 10 -3 6 -1 10 4 10 6 0 11 -4 11 -10z m354 2 c2 -4
-5 -9 -17 -9 -17 -2 -19 0 -7 7 18 12 18 12 24 2z m494 -17 c-3 -3 -9 2 -12
12 -6 14 -5 15 5 6 7 -7 10 -15 7 -18z m-1948 5 c0 -5 -2 -10 -4 -10 -3 0 -8
5 -11 10 -3 6 -1 10 4 10 6 0 11 -4 11 -10z m630 1 c0 -6 -4 -12 -8 -15 -5 -3
-9 1 -9 9 0 8 4 15 9 15 4 0 8 -4 8 -9z m88 -16 c-3 -3 -18 -8 -34 -10 l-29
-4 28 13 c15 7 26 15 24 18 -2 3 1 2 6 -3 6 -5 8 -11 5 -14z m32 15 c0 -5 -2
-10 -4 -10 -3 0 -8 5 -11 10 -3 6 -1 10 4 10 6 0 11 -4 11 -10z m660 0 c0 -5
-2 -10 -4 -10 -3 0 -8 5 -11 10 -3 6 -1 10 4 10 6 0 11 -4 11 -10z m200 -25
c0 -5 -5 -3 -10 5 -5 8 -10 20 -10 25 0 6 5 3 10 -5 5 -8 10 -19 10 -25z m70
31 c0 -3 -4 -8 -10 -11 -5 -3 -10 -1 -10 4 0 6 5 11 10 11 6 0 10 -2 10 -4z
m665 -6 c3 -6 -1 -7 -9 -4 -18 7 -21 14 -7 14 6 0 13 -4 16 -10z m336 -8 c-7
-2 -18 1 -23 6 -8 8 -4 9 13 5 13 -4 18 -8 10 -11z m-2091 4 c0 -2 -7 -7 -16
-10 -8 -3 -12 -2 -9 4 6 10 25 14 25 6z m485 -6 c3 -5 1 -10 -4 -10 -6 0 -11
5 -11 10 0 6 2 10 4 10 3 0 8 -4 11 -10z m132 -5 c0 -8 -4 -15 -9 -15 -10 0
-11 14 -1 23 9 10 10 9 10 -8z m1373 -7 c0 -6 -6 -5 -15 2 -8 7 -15 14 -15 16
0 2 7 1 15 -2 8 -4 15 -11 15 -16z m30 18 c0 -3 -4 -8 -10 -11 -5 -3 -10 -1
-10 4 0 6 5 11 10 11 6 0 10 -2 10 -4z m-2207 -21 c-3 -9 -8 -14 -10 -11 -3 3
-2 9 2 15 9 16 15 13 8 -4z m523 -4 c0 -11 -5 -17 -13 -14 -10 4 -11 9 -2 19
15 18 15 18 15 -5z m549 1 c-3 -3 -11 0 -18 7 -9 10 -8 11 6 5 10 -3 15 -9 12
-12z m238 3 c-3 -9 -8 -14 -10 -11 -3 3 -2 9 2 15 9 16 15 13 8 -4z m-160 -29
c-3 -4 -9 -2 -14 5 -13 22 -11 31 5 17 8 -7 12 -17 9 -22z m334 2 c-3 -7 -5
-2 -5 12 0 14 2 19 5 13 2 -7 2 -19 0 -25z m60 26 c-3 -3 -12 -4 -19 -1 -8 3
-5 6 6 6 11 1 17 -2 13 -5z m600 -24 c1 -17 -1 -30 -5 -30 -6 0 -9 47 -3 58 4
7 6 -1 8 -28z m-1715 -27 c7 -9 7 -13 -1 -13 -6 0 -11 4 -11 10 0 5 -6 7 -14
4 -8 -3 -12 -15 -10 -27 4 -21 4 -21 -5 -2 -6 14 -5 23 5 31 8 6 15 20 15 30
1 18 2 17 6 -1 3 -11 10 -26 15 -32z m58 38 c0 -5 -7 -12 -16 -15 -14 -5 -15
-4 -4 9 14 17 20 19 20 6z m200 5 c0 -2 -8 -10 -17 -17 -16 -13 -17 -12 -4 4
13 16 21 21 21 13z m244 -4 c2 -4 -7 -12 -20 -19 -27 -12 -30 -9 -11 12 14 16
24 18 31 7z m-809 -31 c-6 -5 -25 10 -25 20 0 5 6 4 14 -3 8 -7 12 -15 11 -17z
m1130 19 c3 -5 1 -10 -4 -10 -6 0 -11 5 -11 10 0 6 2 10 4 10 3 0 8 -4 11 -10z
m741 -21 c-34 -27 -46 -24 -16 5 14 13 29 21 33 19 4 -3 -3 -13 -17 -24z
m-2121 11 c3 -6 -1 -7 -9 -4 -18 7 -21 14 -7 14 6 0 13 -4 16 -10z m498 3 c-7
-2 -21 -2 -30 0 -10 3 -4 5 12 5 17 0 24 -2 18 -5z m401 -17 c29 -26 33 -38
11 -30 -8 4 -15 12 -15 19 0 7 -12 18 -27 23 -17 6 -21 11 -11 11 9 1 28 -10
42 -23z m1186 14 c0 -5 -5 -10 -11 -10 -5 0 -7 5 -4 10 3 6 8 10 11 10 2 0 4
-4 4 -10z m160 6 c0 -3 -4 -8 -10 -11 -5 -3 -10 -1 -10 4 0 6 5 11 10 11 6 0
10 -2 10 -4z m-1930 -40 c0 -13 -6 -23 -15 -23 -8 0 -15 4 -15 9 0 4 5 8 11 8
6 0 9 9 6 20 -3 11 -1 18 4 14 5 -3 9 -15 9 -28z m321 25 c-8 -5 -10 -14 -6
-22 6 -11 5 -11 -5 -2 -14 12 -6 33 13 33 8 0 7 -3 -2 -9z m39 -6 c0 -8 -4
-15 -10 -15 -5 0 -7 7 -4 15 4 8 8 15 10 15 2 0 4 -7 4 -15z m75 5 c3 -6 -1
-7 -9 -4 -18 7 -21 14 -7 14 6 0 13 -4 16 -10z m242 -12 c2 -18 0 -20 -7 -8
-12 18 -13 30 -2 30 4 0 9 -10 9 -22z m143 12 c0 -5 -5 -10 -11 -10 -5 0 -7 5
-4 10 3 6 8 10 11 10 2 0 4 -4 4 -10z m203 -7 c-3 -7 1 -13 8 -13 7 0 10 -2 7
-5 -8 -8 -36 5 -42 20 -3 9 2 13 13 12 11 -1 17 -7 14 -14z m872 7 c-3 -5 -11
-10 -16 -10 -6 0 -7 5 -4 10 3 6 11 10 16 10 6 0 7 -4 4 -10z m135 6 c0 -2 -8
-10 -17 -17 -16 -13 -17 -12 -4 4 13 16 21 21 21 13z m50 -2 c0 -8 -19 -13
-24 -6 -3 5 1 9 9 9 8 0 15 -2 15 -3z m-2046 -19 c-4 -8 -8 -15 -10 -15 -2 0
-4 7 -4 15 0 8 4 15 10 15 5 0 7 -7 4 -15z m69 8 c-7 -2 -19 -2 -25 0 -7 3 -2
5 12 5 14 0 19 -2 13 -5z m184 1 c-3 -3 -12 -4 -19 -1 -8 3 -5 6 6 6 11 1 17
-2 13 -5z m673 -15 c0 -6 -4 -7 -10 -4 -5 3 -10 11 -10 16 0 6 5 7 10 4 6 -3
10 -11 10 -16z m115 3 c-3 -3 -11 0 -18 7 -9 10 -8 11 6 5 10 -3 15 -9 12 -12z
m41 -11 c-4 -6 -12 -11 -18 -11 -7 0 -7 4 1 13 6 8 9 16 7 19 -1 3 1 2 7 -2 5
-5 6 -13 3 -19z m-1849 -14 c4 -21 3 -21 -11 -2 -8 11 -12 24 -9 28 7 12 16 0
20 -26z m153 12 c0 -14 -17 -10 -23 5 -4 10 -1 13 9 9 7 -3 14 -9 14 -14z
m328 -10 c1 -17 -1 -28 -6 -25 -7 4 -8 37 -3 54 3 9 7 -3 9 -29z m392 21 c0
-5 6 -7 14 -4 19 7 31 -15 17 -29 -9 -9 -10 -7 -5 7 6 15 4 18 -9 13 -8 -3
-21 1 -27 9 -9 10 -9 14 -1 14 6 0 11 -4 11 -10z m410 -5 c-7 -8 -16 -12 -21
-9 -16 9 -10 20 12 21 17 2 18 -1 9 -12z m344 -1 c5 -14 4 -15 -9 -4 -17 14
-19 20 -6 20 5 0 12 -7 15 -16z m248 -6 c-4 -16 -2 -19 8 -13 9 5 11 4 6 -3
-11 -18 -26 -14 -26 6 0 16 8 32 16 32 1 0 0 -10 -4 -22z m288 7 c0 -8 -2 -15
-4 -15 -2 0 -6 7 -10 15 -3 8 -1 15 4 15 6 0 10 -7 10 -15z m-1752 -6 c-22
-12 -23 -48 -2 -63 13 -10 13 -12 -5 -12 -17 0 -21 7 -21 36 0 41 6 50 29 50
14 -1 13 -2 -1 -11z m243 -12 c-10 -9 -11 -8 -5 6 3 10 9 15 12 12 3 -3 0 -11
-7 -18z m1992 3 c-3 -11 -9 -20 -15 -20 -5 0 -4 9 2 20 6 11 12 20 14 20 2 0
2 -9 -1 -20z m-2058 1 c-3 -6 0 -13 7 -18 10 -6 8 -13 -9 -30 -26 -25 -31 -19
-7 8 10 11 12 19 5 24 -6 3 -11 1 -11 -4 0 -6 -8 -11 -17 -11 -15 1 -14 4 6
20 25 22 36 26 26 11z m99 -2 c-3 -6 0 -15 7 -20 9 -6 10 -9 2 -9 -15 0 -26
17 -18 30 3 6 8 10 11 10 3 0 2 -5 -2 -11z m906 1 c0 -5 -4 -10 -10 -10 -5 0
-10 5 -10 10 0 6 5 10 10 10 6 0 10 -4 10 -10z m380 6 c0 -2 -8 -10 -17 -17
-16 -13 -17 -12 -4 4 13 16 21 21 21 13z m845 -19 c4 5 5 2 1 -4 -10 -19 -19
-16 -35 10 -13 21 -13 22 6 4 11 -9 23 -14 28 -10z m55 2 c0 -6 -4 -7 -10 -4
-5 3 -10 11 -10 16 0 6 5 7 10 4 6 -3 10 -11 10 -16z m-2457 -9 c-3 -11 -7
-20 -9 -20 -2 0 -4 9 -4 20 0 11 4 20 9 20 5 0 7 -9 4 -20z m563 8 c4 -7 3 -8
-4 -4 -7 4 -12 1 -12 -8 0 -9 -7 -16 -15 -16 -12 0 -12 3 2 20 20 23 20 23 29
8z m89 -6 c11 -6 15 -12 8 -12 -6 0 -15 5 -19 11 -5 8 -9 8 -14 -1 -5 -8 -9
-8 -13 3 -6 17 9 17 38 -1z m245 8 c-20 -13 -33 -13 -25 0 3 6 14 10 23 10 15
0 15 -2 2 -10z m729 -7 c-6 -7 -15 -13 -20 -13 -5 0 -6 6 -3 13 3 8 11 14 19
14 11 0 12 -4 4 -14z m508 11 c-3 -3 -12 -4 -19 -1 -8 3 -5 6 6 6 11 1 17 -2
13 -5z m-2037 -8 c0 -3 -4 -8 -10 -11 -5 -3 -10 -1 -10 4 0 6 5 11 10 11 6 0
10 -2 10 -4z m620 -10 c-10 -13 -40 -12 -40 1 0 3 7 3 15 0 8 -4 17 -2 20 3 4
6 9 10 12 10 3 0 0 -6 -7 -14z m365 -4 c-3 -3 -11 0 -18 7 -9 10 -8 11 6 5 10
-3 15 -9 12 -12z m53 -10 c-1 -16 -6 -29 -13 -29 -9 0 -9 7 -1 29 6 15 11 28
13 28 1 0 1 -13 1 -28z m625 13 c-3 -9 -8 -14 -10 -11 -3 3 -2 9 2 15 9 16 15
13 8 -4z m568 -2 c13 -17 13 -17 -6 -3 -11 8 -22 16 -24 17 -2 2 0 3 6 3 6 0
17 -8 24 -17z m-1923 -8 c-11 -11 -48 -13 -48 -3 0 5 7 8 15 5 8 -4 17 -2 21
4 3 6 9 8 12 5 3 -3 3 -8 0 -11z m58 -12 c-10 -10 -19 5 -10 18 6 11 8 11 12
0 2 -7 1 -15 -2 -18z m891 21 c-3 -3 -12 -4 -19 -1 -8 3 -5 6 6 6 11 1 17 -2
13 -5z m33 2 c0 -3 -4 -8 -10 -11 -5 -3 -10 -1 -10 4 0 6 5 11 10 11 6 0 10
-2 10 -4z m197 -28 c-3 -7 -5 -2 -5 12 0 14 2 19 5 13 2 -7 2 -19 0 -25z
m-1988 -6 c-16 -6 -9 -23 14 -31 14 -5 25 -4 29 3 5 7 8 5 8 -6 0 -9 -5 -20
-11 -24 -8 -5 -8 -9 1 -14 9 -5 9 -9 1 -14 -6 -4 -11 -2 -11 3 0 6 -4 11 -10
11 -5 0 -10 -9 -10 -20 0 -11 -4 -20 -9 -20 -17 0 -7 40 11 46 28 8 22 27 -7
20 -19 -5 -23 -3 -19 9 4 8 1 15 -5 15 -7 0 -10 -32 -8 -94 l2 -94 26 5 c15 3
30 0 34 -7 4 -7 1 -11 -6 -9 -28 3 -50 -1 -45 -10 3 -4 -1 -17 -9 -27 -13 -17
-14 -3 -13 118 0 95 4 136 12 135 6 -1 10 6 8 17 -3 15 -1 16 11 5 8 -8 11
-15 6 -17z m741 13 c0 -12 -19 -12 -23 0 -4 9 -1 12 9 8 7 -3 14 -7 14 -8z
m570 0 c19 -23 8 -25 -14 -4 -11 11 -15 19 -9 19 6 0 16 -7 23 -15z m368 -10
c-32 -30 -37 -31 -33 -7 1 9 9 16 19 14 9 -2 16 2 16 8 0 5 6 10 12 10 7 0 1
-11 -14 -25z m142 21 c0 -2 -7 -7 -16 -10 -8 -3 -12 -2 -9 4 6 10 25 14 25 6z
m817 -18 c-3 -8 -6 -5 -6 6 -1 11 2 17 5 13 3 -3 4 -12 1 -19z m-2207 2 c0 -5
-2 -10 -4 -10 -3 0 -8 5 -11 10 -3 6 -1 10 4 10 6 0 11 -4 11 -10z m170 0 c0
-5 -5 -10 -11 -10 -5 0 -7 5 -4 10 3 6 8 10 11 10 2 0 4 -4 4 -10z m74 1 c3
-5 -3 -11 -15 -14 -16 -4 -18 -3 -8 9 13 16 16 17 23 5z m330 0 c10 -15 -18
-31 -34 -19 -12 8 -12 9 2 4 10 -3 20 -1 23 4 3 5 -3 11 -12 13 -16 4 -16 5
-1 6 9 0 19 -3 22 -8z m36 5 c0 -3 -4 -8 -10 -11 -5 -3 -10 -1 -10 4 0 6 5 11
10 11 6 0 10 -2 10 -4z m221 -13 c12 -16 12 -17 -1 -7 -8 6 -22 14 -30 17 -13
5 -12 6 1 6 9 1 23 -7 30 -16z m94 -26 c2 -15 -2 -24 -11 -24 -8 0 -14 4 -14
9 0 4 4 8 10 8 6 0 6 10 -1 28 -8 21 -8 24 2 15 6 -6 13 -22 14 -36z m215 33
c0 -5 -2 -10 -4 -10 -3 0 -8 5 -11 10 -3 6 -1 10 4 10 6 0 11 -4 11 -10z m483
-5 c-3 -9 -8 -14 -10 -11 -3 3 -2 9 2 15 9 16 15 13 8 -4z m367 11 c0 -2 -7
-6 -15 -10 -8 -3 -15 -1 -15 4 0 6 7 10 15 10 8 0 15 -2 15 -4z m420 -6 c0 -5
-5 -10 -11 -10 -5 0 -7 5 -4 10 3 6 8 10 11 10 2 0 4 -4 4 -10z m-2683 -32
c-3 -7 -5 -2 -5 12 0 14 2 19 5 13 2 -7 2 -19 0 -25z m905 10 c-7 -7 -12 -8
-12 -2 0 14 12 26 19 19 2 -3 -1 -11 -7 -17z m665 5 c5 3 15 1 23 -4 13 -9 13
-10 0 -6 -8 2 -23 -3 -33 -11 -16 -15 -17 -14 -11 2 6 16 3 17 -17 11 -23 -7
-23 -7 -4 8 13 10 22 12 26 5 4 -6 11 -8 16 -5z m83 -20 c0 -2 -15 -18 -32
-35 -24 -22 -27 -29 -13 -24 15 6 17 4 8 -4 -8 -9 -16 -9 -29 -2 -17 9 -15 12
14 29 37 21 39 29 15 56 -18 20 -18 20 10 2 15 -9 27 -19 27 -22z m790 6 c0
-5 -10 -13 -22 -19 -22 -11 -22 -10 -4 4 17 13 17 18 5 33 -13 16 -12 17 4 4
9 -7 17 -17 17 -22z m21 14 c13 -16 12 -17 -3 -4 -17 13 -22 21 -14 21 2 0 10
-8 17 -17z m-1801 -7 c-7 -7 -13 -7 -20 0 -6 6 -3 10 10 10 13 0 16 -4 10 -10z
m347 0 c5 -5 2 -6 -6 -1 -7 4 -16 3 -21 -4 -5 -9 -10 -9 -18 1 -9 11 -6 14 13
13 13 0 27 -4 32 -9z m28 4 c3 -5 1 -10 -4 -10 -6 0 -11 5 -11 10 0 6 2 10 4
10 3 0 8 -4 11 -10z m245 6 c0 -2 -9 -6 -20 -9 -11 -3 -18 -1 -14 4 5 9 34 13
34 5z m170 -15 c14 -27 13 -34 -4 -19 -8 7 -12 16 -9 21 5 9 -11 10 -20 0 -4
-3 1 -12 11 -19 16 -12 16 -13 0 -14 -23 0 -32 18 -18 35 17 20 27 19 40 -4z
m1190 15 c0 -11 -19 -15 -25 -6 -3 5 1 10 9 10 9 0 16 -2 16 -4z m55 -6 c-3
-5 -12 -10 -18 -10 -7 0 -6 4 3 10 19 12 23 12 15 0z m-1831 -15 c-4 -8 -11
-12 -16 -9 -6 4 -5 10 3 15 19 12 19 11 13 -6z m827 -2 c13 -16 12 -17 -3 -4
-10 7 -18 15 -18 17 0 8 8 3 21 -13z m89 7 c0 -5 -4 -10 -10 -10 -5 0 -10 5
-10 10 0 6 5 10 10 10 6 0 10 -4 10 -10z m90 -6 c0 -2 -7 -4 -15 -4 -8 0 -15
4 -15 10 0 5 7 7 15 4 8 -4 15 -8 15 -10z m57 -4 c1 -11 -2 -22 -6 -24 -6 -4
-7 26 -2 42 3 8 7 -1 8 -18z m-1704 -56 c-4 -36 -2 -44 9 -38 10 6 11 5 2 -7
-7 -8 -14 -23 -17 -34 -2 -11 -5 18 -6 65 0 47 3 79 7 72 5 -7 7 -33 5 -58z
m262 56 c3 -5 1 -10 -4 -10 -6 0 -11 5 -11 10 0 6 2 10 4 10 3 0 8 -4 11 -10z
m655 1 c0 -17 -21 -24 -33 -12 -9 9 -7 10 7 5 13 -5 17 -4 12 4 -4 7 -2 12 3
12 6 0 11 -4 11 -9z m-819 -24 c-10 -9 -11 -8 -5 6 3 10 9 15 12 12 3 -3 0
-11 -7 -18z m79 19 c0 -3 -4 -8 -10 -11 -5 -3 -10 -1 -10 4 0 6 5 11 10 11 6
0 10 -2 10 -4z m879 -20 c-6 -13 -21 -27 -32 -30 -31 -8 -34 2 -5 13 14 5 28
17 31 25 4 9 9 16 11 16 3 0 1 -11 -5 -24z m112 2 c11 -21 11 -22 -4 -9 -10 7
-17 17 -17 22 0 15 9 10 21 -13z m132 -4 c3 -19 2 -22 -9 -13 -8 6 -11 15 -8
20 3 5 -1 6 -9 3 -8 -3 -18 -1 -21 4 -3 5 5 10 18 10 17 0 25 -7 29 -24z m81
14 c-3 -4 -12 -8 -20 -8 -8 0 -13 4 -10 8 3 5 12 9 20 9 8 0 13 -4 10 -9z
m377 -11 c-10 -9 -11 -8 -5 6 3 10 9 15 12 12 3 -3 0 -11 -7 -18z m379 13 c0
-5 -7 -10 -16 -10 -8 0 -12 5 -9 10 3 6 10 10 16 10 5 0 9 -4 9 -10z m109 -11
c-19 -12 -29 -11 -29 2 0 5 5 7 10 4 6 -3 10 -1 10 5 0 6 5 8 11 4 8 -4 7 -9
-2 -15z m136 0 c5 -5 -5 -4 -23 2 -17 6 -32 13 -32 16 0 7 43 -8 55 -18z
m-2095 -4 c-7 -8 -20 -15 -29 -15 -11 1 -8 5 9 15 32 18 35 18 20 0z m60 5 c0
-5 -2 -10 -4 -10 -3 0 -8 5 -11 10 -3 6 -1 10 4 10 6 0 11 -4 11 -10z m157
-12 c2 -17 0 -19 -7 -8 -5 8 -6 18 -4 22 8 12 10 10 11 -14z m144 -1 c-10 -9
-11 -8 -5 6 3 10 9 15 12 12 3 -3 0 -11 -7 -18z m164 13 c-3 -5 -1 -10 4 -10
14 0 14 -37 1 -45 -6 -4 -8 -11 -5 -16 4 -5 1 -9 -4 -9 -14 0 -14 17 -1 25 15
9 12 28 -4 22 -8 -3 -13 0 -12 6 2 15 15 37 22 37 3 0 2 -4 -1 -10z m630 -6
c-11 -8 -19 -20 -17 -25 1 -5 -2 -9 -8 -9 -17 0 -11 18 12 34 29 21 39 20 13
0z m641 1 c-8 -8 -21 -15 -28 -15 -8 1 -6 6 6 15 26 20 42 19 22 0z m-1669 -9
c-3 -7 -1 -18 5 -24 6 -6 6 -12 0 -16 -6 -3 -13 3 -17 13 -4 12 -12 18 -21 14
-7 -3 -14 -2 -14 1 0 4 10 11 23 16 30 12 30 12 24 -4z m1258 4 c-3 -5 -11
-10 -16 -10 -6 0 -7 5 -4 10 3 6 11 10 16 10 6 0 7 -4 4 -10z m-1879 -18 c1
-7 0 -8 -3 -2 -2 5 -9 8 -14 4 -5 -3 -9 0 -9 6 0 15 23 7 26 -8z m681 3 c0 -8
-4 -12 -9 -9 -5 3 -6 10 -3 15 9 13 12 11 12 -6z m263 3 c0 -4 -4 -8 -9 -8 -6
0 -12 4 -15 8 -3 5 1 9 9 9 8 0 15 -4 15 -9z m120 2 c0 -5 -2 -10 -4 -10 -3 0
-8 5 -11 10 -3 6 -1 10 4 10 6 0 11 -4 11 -10z m250 0 c0 -5 -5 -10 -11 -10
-5 0 -7 5 -4 10 3 6 8 10 11 10 2 0 4 -4 4 -10z m240 6 c0 -3 -4 -8 -10 -11
-5 -3 -10 -1 -10 4 0 6 5 11 10 11 6 0 10 -2 10 -4z m150 -13 c0 -3 -6 -3 -14
0 -7 3 -20 0 -27 -6 -11 -10 -11 -9 0 5 11 15 41 15 41 1z m63 -2 c-12 -10
-19 -22 -15 -26 4 -5 1 -5 -7 0 -11 6 -9 12 10 26 31 24 41 24 12 0z m637 14
c0 -2 -9 -9 -20 -15 -12 -6 -20 -7 -20 -1 0 5 8 12 18 14 9 3 18 5 20 6 1 0 2
-1 2 -4z m84 -11 c3 -8 2 -12 -4 -9 -6 3 -10 10 -10 16 0 14 7 11 14 -7z
m-1926 -15 c19 -30 11 -32 -11 -3 -10 13 -14 24 -10 24 5 0 14 -9 21 -21z
m271 18 c-2 -1 -13 -9 -24 -17 -19 -14 -19 -14 -6 3 7 9 18 17 24 17 6 0 8 -1
6 -3z m591 -1 c0 -2 -7 -6 -15 -10 -8 -3 -15 -1 -15 4 0 6 7 10 15 10 8 0 15
-2 15 -4z m490 -13 c0 -10 -4 -14 -8 -8 -4 6 -11 13 -16 18 -5 4 -2 7 7 7 10
0 17 -8 17 -17z m-1663 -19 c2 -13 1 -15 -4 -4 -3 8 -11 19 -17 23 -7 6 -6 7
4 4 8 -2 16 -12 17 -23z m638 -3 c2 -11 0 -21 -4 -21 -5 0 -8 11 -8 25 0 30 6
28 12 -4z m411 2 c-7 -7 -26 7 -26 19 0 6 6 6 15 -2 9 -7 13 -15 11 -17z m731
-5 c-3 -7 -5 -2 -5 12 0 14 2 19 5 13 2 -7 2 -19 0 -25z m-1690 10 c2 6 10 12
16 12 6 0 4 -7 -5 -16 -17 -17 -38 -12 -38 9 0 7 4 6 11 -3 8 -11 12 -12 16
-2z m328 3 c3 -5 1 -12 -5 -16 -5 -3 -10 1 -10 9 0 18 6 21 15 7z m589 -7 c3
-8 2 -12 -4 -9 -6 3 -10 10 -10 16 0 14 7 11 14 -7z m1191 8 c-3 -3 0 -11 6
-19 17 -20 5 -16 -14 5 -15 16 -15 19 -2 19 8 0 13 -3 10 -5z m-2019 -11 c-11
-17 -65 -31 -72 -19 -4 6 -3 9 2 6 5 -4 23 0 39 7 38 17 37 17 31 6z m794 -1
c0 -5 -2 -10 -4 -10 -3 0 -8 5 -11 10 -3 6 -1 10 4 10 6 0 11 -4 11 -10z m198
6 c-2 -1 -10 -7 -19 -14 -13 -10 -18 -10 -22 0 -3 8 5 14 20 14 13 1 23 1 21
0z m147 -5 c3 -5 1 -12 -5 -16 -5 -3 -10 1 -10 9 0 18 6 21 15 7z m1015 5 c0
-2 -8 -10 -17 -17 -16 -13 -17 -12 -4 4 13 16 21 21 21 13z m-2647 -21 c4 -8
1 -17 -6 -21 -7 -4 -9 -4 -5 1 4 4 3 14 -3 22 -7 8 -8 13 -1 13 5 0 12 -7 15
-15z m673 -10 c-2 -7 2 -16 10 -19 8 -3 14 -10 14 -16 0 -5 -9 -2 -19 7 -11 9
-17 23 -13 31 4 11 2 13 -8 7 -9 -5 -11 -4 -6 4 10 15 29 3 22 -14z m481 3
c-3 -8 -6 -5 -6 6 -1 11 2 17 5 13 3 -3 4 -12 1 -19z m54 -5 c-12 -20 -14 -14
-5 12 4 9 9 14 11 11 3 -2 0 -13 -6 -23z m183 11 c3 -8 2 -12 -4 -9 -6 3 -10
10 -10 16 0 14 7 11 14 -7z m191 6 c3 -5 1 -10 -4 -10 -6 0 -11 5 -11 10 0 6
2 10 4 10 3 0 8 -4 11 -10z m792 -12 c-3 -8 -6 -5 -6 6 -1 11 2 17 5 13 3 -3
4 -12 1 -19z m58 12 c8 -13 -5 -13 -25 0 -13 8 -13 10 2 10 9 0 20 -4 23 -10z
m295 -10 c-6 -11 -15 -20 -20 -20 -6 0 -2 9 7 20 10 11 19 20 21 20 1 0 -2 -9
-8 -20z m-2830 -5 c11 -13 10 -14 -4 -9 -9 3 -16 10 -16 15 0 13 6 11 20 -6z
m80 -12 c0 -13 -3 -13 -15 -3 -8 7 -15 16 -15 21 0 5 7 6 15 3 8 -4 15 -13 15
-21z m1040 16 c0 -5 -4 -7 -10 -4 -5 3 -10 1 -10 -4 0 -6 -5 -11 -11 -11 -8 0
-8 5 1 15 14 17 30 20 30 4z m1576 -16 c-7 -7 -26 7 -26 19 0 6 6 6 15 -2 9
-7 13 -15 11 -17z m-2268 -8 c0 -14 -5 -25 -10 -25 -5 0 -6 5 -3 10 3 6 -4 10
-17 10 l-23 0 25 14 c14 8 26 14 26 15 1 1 2 -10 2 -24z m222 16 c0 -5 -10
-11 -22 -14 -22 -6 -22 -6 -4 8 23 17 26 18 26 6z m59 -14 c0 -9 -2 -9 -6 0
-3 9 -13 6 -34 -9 -16 -12 -31 -19 -34 -16 -8 8 57 48 67 42 4 -3 8 -11 7 -17z
m124 8 c-3 -9 -8 -14 -10 -11 -3 3 -2 9 2 15 9 16 15 13 8 -4z m825 -10 c-3
-3 -9 2 -12 12 -6 14 -5 15 5 6 7 -7 10 -15 7 -18z m57 15 c3 -5 1 -10 -4 -10
-6 0 -11 5 -11 10 0 6 2 10 4 10 3 0 8 -4 11 -10z m210 0 c3 -6 -1 -7 -9 -4
-18 7 -21 14 -7 14 6 0 13 -4 16 -10z m35 -6 c0 -8 -5 -12 -10 -9 -6 4 -8 11
-5 16 9 14 15 11 15 -7z m147 3 c0 -8 -6 -14 -14 -14 -9 0 -10 4 -2 14 6 7 12
13 14 13 1 0 2 -6 2 -13z m-1357 -7 c0 -5 -4 -10 -10 -10 -5 0 -10 5 -10 10 0
6 5 10 10 10 6 0 10 -4 10 -10z m285 0 c-3 -5 -11 -10 -16 -10 -6 0 -7 5 -4
10 3 6 11 10 16 10 6 0 7 -4 4 -10z m142 -12 c-3 -8 -6 -5 -6 6 -1 11 2 17 5
13 3 -3 4 -12 1 -19z m108 12 c-3 -5 -12 -10 -18 -10 -7 0 -6 4 3 10 19 12 23
12 15 0z m140 0 c3 -6 -1 -7 -9 -4 -18 7 -21 14 -7 14 6 0 13 -4 16 -10z m151
-1 c4 -8 9 -8 17 0 6 6 15 11 21 11 5 0 1 -6 -10 -14 -10 -8 -23 -11 -28 -6
-5 5 -15 6 -24 3 -10 -4 -13 -2 -8 5 9 15 23 15 32 1z m624 -9 c0 -11 -2 -20
-4 -20 -2 0 -6 9 -9 20 -3 11 -1 20 4 20 5 0 9 -9 9 -20z m374 4 c3 -8 2 -12
-4 -9 -6 3 -10 10 -10 16 0 14 7 11 14 -7z m51 6 c3 -5 1 -10 -4 -10 -6 0 -11
5 -11 10 0 6 2 10 4 10 3 0 8 -4 11 -10z m122 -12 c-3 -8 -6 -5 -6 6 -1 11 2
17 5 13 3 -3 4 -12 1 -19z m-2684 -9 c4 -16 3 -18 -9 -8 -7 6 -11 15 -8 20 8
13 11 11 17 -12z m1151 5 c3 -8 2 -12 -4 -9 -6 3 -10 10 -10 16 0 14 7 11 14
-7z m131 6 c-3 -5 -1 -10 4 -10 6 0 11 -5 11 -11 0 -8 -5 -8 -15 1 -13 11 -12
30 1 30 3 0 2 -4 -1 -10z m185 0 c0 -5 -5 -10 -11 -10 -5 0 -7 5 -4 10 3 6 8
10 11 10 2 0 4 -4 4 -10z m156 1 c-4 -5 -1 -12 4 -14 6 -3 5 -4 -2 -3 -15 3
-23 26 -8 26 6 0 9 -4 6 -9z m154 -25 c0 -6 -5 -5 -12 2 -7 7 -19 12 -27 12
-13 -1 -13 -2 2 -11 9 -5 17 -14 17 -19 0 -6 -9 -2 -20 7 -26 23 -9 49 21 30
10 -6 19 -16 19 -21z m600 30 c0 -2 -7 -7 -16 -10 -8 -3 -12 -2 -9 4 6 10 25
14 25 6z m-1310 -20 c0 -8 -4 -17 -9 -21 -6 -3 -9 4 -8 15 1 23 17 28 17 6z
m604 6 c3 -5 -1 -9 -9 -9 -8 0 -12 4 -9 9 3 4 7 8 9 8 2 0 6 -4 9 -8z m1063 2
c-3 -3 -12 -4 -19 -1 -8 3 -5 6 6 6 11 1 17 -2 13 -5z m-1837 -14 c0 -5 -2
-10 -4 -10 -3 0 -8 5 -11 10 -3 6 -1 10 4 10 6 0 11 -4 11 -10z m-560 -4 c0
-2 -7 -7 -16 -10 -8 -3 -12 -2 -9 4 6 10 25 14 25 6z m617 -2 c-3 -3 -12 -4
-19 -1 -8 3 -5 6 6 6 11 1 17 -2 13 -5z m303 -10 c0 -2 -12 -4 -26 -4 -14 0
-23 4 -20 9 6 8 46 4 46 -5z m200 8 c0 -4 -9 -13 -20 -20 -24 -15 -26 -9 -4
12 17 18 24 20 24 8z m70 -2 c0 -5 -5 -10 -11 -10 -5 0 -7 5 -4 10 3 6 8 10
11 10 2 0 4 -4 4 -10z m-1490 -4 c0 -3 -4 -8 -10 -11 -5 -3 -10 -1 -10 4 0 6
5 11 10 11 6 0 10 -2 10 -4z m456 -8 c4 -7 3 -8 -4 -4 -7 4 -12 2 -12 -5 0 -7
-3 -10 -6 -6 -6 5 3 27 11 27 2 0 7 -5 11 -12z m381 -7 c0 -11 -5 -18 -9 -15
-4 3 -5 11 -1 19 7 21 12 19 10 -4z m261 5 c-10 -7 -19 -26 -19 -42 l-1 -29
-7 30 c-8 30 8 55 33 55 6 0 3 -7 -6 -14z m47 4 c-3 -5 -11 -10 -16 -10 -6 0
-7 5 -4 10 3 6 11 10 16 10 6 0 7 -4 4 -10z m292 -12 c-3 -8 -6 -5 -6 6 -1 11
2 17 5 13 3 -3 4 -12 1 -19z m158 12 c3 -5 2 -17 -3 -26 -8 -14 -10 -12 -14
10 -5 26 5 35 17 16z m400 0 c3 -5 1 -10 -4 -10 -6 0 -11 5 -11 10 0 6 2 10 4
10 3 0 8 -4 11 -10z m42 4 c-3 -3 -12 -4 -19 -1 -8 3 -5 6 6 6 11 1 17 -2 13
-5z m63 -19 c0 -16 -6 -25 -15 -25 -8 0 -15 5 -15 11 0 5 5 7 10 4 6 -3 10 3
10 14 0 12 2 21 5 21 3 0 5 -11 5 -25z m380 21 c0 -3 -4 -8 -10 -11 -5 -3 -10
-1 -10 4 0 6 5 11 10 11 6 0 10 -2 10 -4z m174 -38 c-3 -4 -14 2 -24 12 -27
27 -25 35 4 13 13 -10 22 -21 20 -25z m-2688 15 c-4 -9 -1 -20 5 -24 6 -4 8
-12 5 -18 -10 -15 -23 -14 -23 2 0 6 -4 21 -9 31 -5 14 -4 17 4 12 7 -4 12 -2
12 3 0 6 3 11 6 11 3 0 3 -8 0 -17z m1294 1 c0 -2 -7 -4 -15 -4 -8 0 -15 4
-15 10 0 5 7 7 15 4 8 -4 15 -8 15 -10z m440 7 c0 -5 -7 -12 -16 -15 -14 -5
-15 -4 -4 9 14 17 20 19 20 6z m-1370 -11 c0 -5 -5 -10 -11 -10 -5 0 -7 5 -4
10 3 6 8 10 11 10 2 0 4 -4 4 -10z m184 -2 c-3 -4 -12 -8 -20 -8 -8 0 -13 4
-10 8 3 5 12 9 20 9 8 0 13 -4 10 -9z m66 2 c0 -5 -5 -10 -11 -10 -5 0 -7 5
-4 10 3 6 8 10 11 10 2 0 4 -4 4 -10z m70 0 c-20 -13 -33 -13 -25 0 3 6 14 10
23 10 15 0 15 -2 2 -10z m47 4 c-3 -3 -12 -4 -19 -1 -8 3 -5 6 6 6 11 1 17 -2
13 -5z m940 -16 c-3 -8 -6 -5 -6 6 -1 11 2 17 5 13 3 -3 4 -12 1 -19z m217
-20 c8 -5 7 -8 -1 -8 -7 0 -17 9 -23 19 -14 27 -12 41 2 16 6 -11 16 -23 22
-27z m120 26 c6 2 8 1 4 -1 -5 -3 -8 -11 -8 -18 0 -8 -5 -17 -12 -21 -7 -4 -8
-3 -4 4 4 7 2 20 -3 29 -10 18 -13 14 -15 -21 -1 -11 -8 -21 -16 -23 -13 -4
-13 -3 0 6 14 10 7 16 -14 12 -10 -2 12 29 29 41 5 4 14 3 19 -2 4 -4 14 -7
20 -6z m426 6 c0 -5 -5 -10 -11 -10 -5 0 -7 5 -4 10 3 6 8 10 11 10 2 0 4 -4
4 -10z m200 6 c0 -2 -8 -10 -17 -17 -16 -13 -17 -12 -4 4 13 16 21 21 21 13z
m-1855 -16 c3 -5 0 -7 -8 -4 -8 3 -18 1 -22 -5 -3 -6 -14 -11 -23 -11 -12 0
-10 4 8 14 31 18 37 18 45 6z m69 -6 c3 -8 2 -12 -4 -9 -6 3 -10 10 -10 16 0
14 7 11 14 -7z m74 -4 c-9 -13 -14 -16 -20 -7 -4 6 -2 15 5 19 21 14 28 9 15
-12z m332 11 c0 -5 -9 -7 -20 -4 -11 3 -20 7 -20 9 0 2 9 4 20 4 11 0 20 -4
20 -9z m268 -5 c-10 -7 -15 -16 -11 -20 4 -4 0 -4 -10 0 -17 6 -17 7 0 20 10
7 23 13 28 13 6 0 2 -6 -7 -13z m259 -8 c-3 -8 -6 -5 -6 6 -1 11 2 17 5 13 3
-3 4 -12 1 -19z m-1826 -5 c13 -16 12 -17 -3 -4 -10 7 -18 15 -18 17 0 8 8 3
21 -13z m109 12 c0 -1 -9 -12 -20 -25 -11 -13 -20 -18 -20 -12 0 6 5 14 10 17
6 4 8 10 6 14 -3 4 1 8 9 8 8 0 15 -1 15 -2z m440 -4 c0 -5 -9 -7 -20 -4 -11
3 -20 7 -20 9 0 2 9 4 20 4 11 0 20 -4 20 -9z m194 -7 c3 -9 2 -12 -5 -9 -6 4
-18 0 -28 -9 -15 -14 -18 -14 -18 -1 0 8 4 12 9 9 4 -3 11 2 14 10 8 20 20 20
28 0z m321 6 c3 -5 1 -10 -4 -10 -6 0 -11 5 -11 10 0 6 2 10 4 10 3 0 8 -4 11
-10z m72 -10 c1 -11 -2 -20 -8 -20 -5 0 -9 9 -9 20 0 11 4 20 8 20 4 0 8 -9 9
-20z m113 9 c12 -8 10 -9 -7 -4 -18 5 -23 2 -23 -11 0 -10 -3 -15 -6 -11 -8 8
3 37 13 37 4 0 15 -5 23 -11z m90 3 c0 -10 -68 -41 -75 -34 -4 4 47 33 73 41
1 1 2 -3 2 -7z m57 -14 c-3 -8 -6 -5 -6 6 -1 11 2 17 5 13 3 -3 4 -12 1 -19z
m1158 12 c3 -5 1 -10 -4 -10 -6 0 -11 5 -11 10 0 6 2 10 4 10 3 0 8 -4 11 -10z
m145 6 c0 -2 -7 -7 -16 -10 -8 -3 -12 -2 -9 4 6 10 25 14 25 6z m-1603 -28
c-3 -8 -6 -5 -6 6 -1 11 2 17 5 13 3 -3 4 -12 1 -19z m346 -8 c-20 -18 -33
-17 -33 2 0 5 4 7 9 4 5 -3 14 1 21 9 7 9 15 13 18 10 3 -3 -4 -14 -15 -25z
m202 21 c3 -5 2 -12 -3 -15 -5 -3 -9 1 -9 9 0 17 3 19 12 6z m125 -17 c0 -17
-17 -19 -22 -2 -2 6 -10 8 -17 4 -8 -5 -9 -12 -2 -20 6 -7 6 -17 1 -26 -8 -12
-10 -11 -10 6 0 11 -3 24 -8 30 -4 5 -6 8 -3 7 2 -1 13 4 24 12 22 16 37 12
37 -11z m759 7 c8 -14 7 -22 -4 -31 -11 -9 -15 -9 -15 -1 0 6 4 11 10 11 5 0
7 7 4 15 -4 8 -10 12 -15 9 -5 -3 -9 0 -9 5 0 18 19 12 29 -8z m-79 -1 c0 -5
-5 -10 -11 -10 -5 0 -7 5 -4 10 3 6 8 10 11 10 2 0 4 -4 4 -10z m140 -10 c-8
-5 -17 -7 -19 -4 -3 3 1 9 9 14 8 5 17 7 19 4 3 -3 -1 -9 -9 -14z m154 4 c5
-13 3 -14 -6 -7 -7 6 -20 13 -28 16 -10 4 -8 6 6 6 12 1 25 -6 28 -15z m-2334
-15 c0 -14 -17 -10 -23 5 -4 10 -1 13 9 9 7 -3 14 -9 14 -14z m425 11 c3 -5 1
-10 -4 -10 -6 0 -11 5 -11 10 0 6 2 10 4 10 3 0 8 -4 11 -10z m175 -10 c-16
-11 -40 -13 -40 -5 0 8 44 24 50 18 2 -2 -2 -8 -10 -13z m185 11 c3 -5 1 -12
-5 -16 -5 -3 -10 1 -10 9 0 18 6 21 15 7z m142 -13 c-3 -8 -6 -5 -6 6 -1 11 2
17 5 13 3 -3 4 -12 1 -19z m176 7 c-3 -9 -8 -14 -10 -11 -3 3 -2 9 2 15 9 16
15 13 8 -4z m337 5 c0 -5 -4 -10 -10 -10 -5 0 -10 5 -10 10 0 6 5 10 10 10 6
0 10 -4 10 -10z m625 -19 c-3 -12 -11 -19 -16 -16 -5 4 -3 14 3 25 15 24 22
19 13 -9z m155 19 c0 -5 -5 -10 -11 -10 -5 0 -7 5 -4 10 3 6 8 10 11 10 2 0 4
-4 4 -10z m-2278 -27 c-3 -16 -7 -22 -10 -15 -4 13 4 42 11 42 2 0 2 -12 -1
-27z m537 13 c10 -12 8 -13 -8 -9 -12 3 -21 9 -21 14 0 14 16 11 29 -5z m416
-5 c-3 -6 -11 -11 -16 -11 -5 0 -4 6 3 14 14 16 24 13 13 -3z m385 9 c0 -5 -2
-10 -4 -10 -3 0 -8 5 -11 10 -3 6 -1 10 4 10 6 0 11 -4 11 -10z m-910 -10 c0
-5 -2 -10 -4 -10 -3 0 -8 5 -11 10 -3 6 -1 10 4 10 6 0 11 -4 11 -10z m865 0
c3 -5 1 -10 -4 -10 -6 0 -11 5 -11 10 0 6 2 10 4 10 3 0 8 -4 11 -10z m1170 0
c3 -5 2 -10 -4 -10 -5 0 -13 5 -16 10 -3 6 -2 10 4 10 5 0 13 -4 16 -10z
m-2810 -10 c-3 -5 -12 -10 -18 -10 -7 0 -6 4 3 10 19 12 23 12 15 0z m1153
-21 c-3 -8 -7 -3 -11 10 -4 17 -3 21 5 13 5 -5 8 -16 6 -23z m91 27 c-2 -2
-15 -9 -29 -15 -24 -11 -24 -11 -6 3 16 13 49 24 35 12z m303 -18 c-7 -7 -12
-8 -12 -2 0 14 12 26 19 19 2 -3 -1 -11 -7 -17z m1048 18 c0 -2 -8 -10 -17
-17 -16 -13 -17 -12 -4 4 13 16 21 21 21 13z m103 -20 c-10 -13 -28 -23 -42
-23 -16 0 -19 2 -10 8 7 4 17 5 23 2 5 -4 7 1 3 10 -4 11 -2 14 7 11 8 -3 17
-1 21 5 3 6 8 11 11 11 3 0 -3 -11 -13 -24z m-2603 -12 c0 -8 -6 -14 -12 -14
-10 0 -9 -3 1 -9 11 -7 9 -10 -8 -16 -11 -3 -21 -11 -21 -16 0 -6 -5 -7 -11
-3 -8 5 -5 11 7 18 11 6 20 19 21 29 1 34 3 38 13 32 6 -3 10 -13 10 -21z
m300 16 c0 -5 -2 -10 -4 -10 -3 0 -8 5 -11 10 -3 6 -1 10 4 10 6 0 11 -4 11
-10z m200 0 c0 -5 -8 -10 -17 -10 -15 0 -16 2 -3 10 19 12 20 12 20 0z m154
-14 c-3 -9 -10 -16 -15 -16 -5 0 -4 9 3 20 14 22 21 20 12 -4z m103 -8 c-3 -7
-5 -2 -5 12 0 14 2 19 5 13 2 -7 2 -19 0 -25z m598 22 c9 7 18 11 20 8 3 -3
-7 -11 -23 -19 -15 -8 -30 -18 -33 -22 -3 -5 -9 -1 -12 8 -5 11 -3 14 5 9 8
-5 9 -2 4 11 -5 15 -4 16 9 5 12 -10 18 -10 30 0z m155 -5 c-7 -8 -9 -23 -6
-32 6 -14 4 -15 -4 -7 -14 14 -4 54 12 54 6 0 6 -6 -2 -15z m500 0 c0 -8 -2
-15 -4 -15 -2 0 -6 7 -10 15 -3 8 -1 15 4 15 6 0 10 -7 10 -15z m520 5 c0 -5
-5 -10 -11 -10 -5 0 -7 5 -4 10 3 6 8 10 11 10 2 0 4 -4 4 -10z m111 -17 c-8
-15 -10 -15 -11 -2 0 17 10 32 18 25 2 -3 -1 -13 -7 -23z m-2685 5 c4 -6 -1
-17 -11 -25 -23 -16 -38 -17 -32 0 2 6 13 11 23 9 18 -2 18 -2 0 13 -17 13
-17 15 -4 15 9 0 20 -5 24 -12z m841 6 c-3 -3 -12 -4 -19 -1 -8 3 -5 6 6 6 11
1 17 -2 13 -5z m363 -14 c0 -4 -9 -6 -21 -3 -15 4 -17 8 -8 14 14 8 29 3 29
-11z m38 8 c-7 -30 -68 -64 -68 -37 0 6 5 7 10 4 6 -4 20 5 33 19 25 29 28 31
25 14z m82 8 c0 -3 -4 -8 -10 -11 -5 -3 -10 -1 -10 4 0 6 5 11 10 11 6 0 10
-2 10 -4z m515 -6 c3 -6 -1 -7 -9 -4 -18 7 -21 14 -7 14 6 0 13 -4 16 -10z
m107 -12 c-7 -7 -12 -8 -12 -2 0 14 12 26 19 19 2 -3 -1 -11 -7 -17z m403 12
c-3 -5 -14 -10 -23 -9 -14 0 -13 2 3 9 27 11 27 11 20 0z m-2414 -8 c-8 -3 -9
-8 -1 -17 8 -9 5 -14 -10 -18 -11 -3 -23 0 -27 5 -3 6 -1 8 5 4 6 -3 13 -2 16
3 3 5 -4 11 -15 14 -18 5 -20 2 -16 -19 2 -13 -1 -28 -7 -33 -8 -7 -10 1 -8
29 4 36 5 38 39 37 20 -1 31 -3 24 -5z m972 -22 c-3 -11 -9 -23 -14 -26 -5 -3
-5 6 0 19 6 14 7 28 3 33 -4 4 -2 4 5 1 6 -4 9 -16 6 -27z m197 5 c5 3 11 1
15 -5 7 -11 -5 -13 -29 -4 -9 3 -16 14 -16 23 1 14 2 14 11 -2 6 -9 14 -15 19
-12z m891 11 c-6 -8 -10 -20 -9 -27 2 -7 -6 -14 -17 -16 -14 -3 -16 -1 -7 5 7
5 14 19 15 30 1 12 8 22 15 22 11 0 12 -3 3 -14z m544 -10 c0 -13 -4 -28 -9
-33 -5 -5 -6 -2 -1 6 4 8 2 17 -6 22 -12 8 -12 11 1 19 8 5 15 10 15 10 1 0 1
-11 0 -24z m-2455 -11 c0 -17 -4 -23 -15 -19 -8 4 -17 -1 -21 -10 -3 -9 -10
-16 -15 -16 -18 0 -9 17 16 30 14 7 25 19 25 27 0 7 2 13 5 13 3 0 5 -11 5
-25z m420 21 c0 -3 -4 -8 -10 -11 -5 -3 -10 -1 -10 4 0 6 5 11 10 11 6 0 10
-2 10 -4z m150 -5 c0 -5 -8 -15 -17 -22 -16 -13 -17 -12 -5 3 10 13 10 17 0
21 -8 4 -7 6 5 6 9 1 17 -3 17 -8z m220 -1 c0 -5 -5 -10 -11 -10 -5 0 -7 5 -4
10 3 6 8 10 11 10 2 0 4 -4 4 -10z m730 0 c0 -5 -4 -10 -10 -10 -5 0 -10 5
-10 10 0 6 5 10 10 10 6 0 10 -4 10 -10z m102 -15 c17 -21 8 -45 -16 -45 -6 0
-3 7 8 15 17 13 17 15 -15 35 -23 14 -27 20 -14 18 11 -2 27 -12 37 -23z m66
-6 c-3 -8 -7 -3 -11 10 -4 17 -3 21 5 13 5 -5 8 -16 6 -23z m589 9 c-3 -8 -6
-5 -6 6 -1 11 2 17 5 13 3 -3 4 -12 1 -19z m138 13 c3 -5 2 -12 -3 -15 -5 -3
-9 1 -9 9 0 17 3 19 12 6z m-1335 -11 c0 -5 -2 -10 -4 -10 -3 0 -8 5 -11 10
-3 6 -1 10 4 10 6 0 11 -4 11 -10z m114 2 c2 -4 -5 -9 -17 -9 -17 -2 -19 0 -7
7 18 12 18 12 24 2z m66 -15 c11 -5 9 -6 -4 -4 -11 1 -21 9 -23 17 -3 10 -2
11 4 4 4 -6 15 -14 23 -17z m93 8 c-3 -9 -8 -14 -10 -11 -3 3 -2 9 2 15 9 16
15 13 8 -4z m302 4 c11 -17 -1 -21 -15 -4 -8 9 -8 15 -2 15 6 0 14 -5 17 -11z
m278 -4 c-3 -9 -8 -14 -10 -11 -3 3 -2 9 2 15 9 16 15 13 8 -4z m-1553 1 c0
-2 -9 -6 -20 -9 -11 -3 -18 -1 -14 4 5 9 34 13 34 5z m104 -23 c11 -13 16 -23
13 -23 -10 0 -37 31 -37 42 0 6 1 9 3 7 1 -2 11 -14 21 -26z m413 2 c-4 -8
-14 -14 -24 -14 -17 1 -17 2 0 6 9 2 17 12 17 20 0 9 3 14 6 10 4 -3 4 -13 1
-22z m542 22 c-2 -1 -12 -9 -22 -16 -15 -12 -17 -12 -11 3 3 9 13 16 22 16 8
0 13 -1 11 -3z m128 -3 c-3 -3 -12 -4 -19 -1 -8 3 -5 6 6 6 11 1 17 -2 13 -5z
m293 -4 c0 -5 -2 -10 -4 -10 -3 0 -8 5 -11 10 -3 6 -1 10 4 10 6 0 11 -4 11
-10z m177 -12 c-3 -8 -6 -5 -6 6 -1 11 2 17 5 13 3 -3 4 -12 1 -19z m293 7
c-30 -17 -40 -18 -40 -6 0 8 22 16 55 19 6 1 -1 -5 -15 -13z m173 -36 c-4 -4
-9 6 -10 24 -1 30 -1 31 8 8 5 -14 6 -28 2 -32z m-2063 31 c6 9 10 10 10 3 0
-19 -35 -34 -48 -21 -19 19 -14 29 8 16 17 -11 22 -10 30 2z m174 -6 c5 -14 4
-15 -9 -4 -17 14 -19 20 -6 20 5 0 12 -7 15 -16z m51 6 c3 -6 -1 -7 -9 -4 -18
7 -21 14 -7 14 6 0 13 -4 16 -10z m70 0 c-3 -5 -12 -7 -19 -4 -7 3 -16 -2 -19
-10 -4 -9 -11 -16 -17 -16 -5 0 -2 9 7 20 17 20 60 29 48 10z m199 -6 c3 -8 2
-12 -4 -9 -6 3 -10 10 -10 16 0 14 7 11 14 -7z m396 6 c0 -5 -5 -10 -11 -10
-5 0 -7 5 -4 10 3 6 8 10 11 10 2 0 4 -4 4 -10z m185 0 c3 -6 -1 -7 -9 -4 -18
7 -21 14 -7 14 6 0 13 -4 16 -10z m-50 -18 c-3 -3 -11 0 -18 7 -9 10 -8 11 6
5 10 -3 15 -9 12 -12z m289 6 c-3 -5 -9 -6 -14 -3 -5 3 -11 1 -15 -5 -4 -6
-11 -7 -18 -3 -7 4 -4 9 8 13 26 9 45 8 39 -2z m636 6 c0 -8 -19 -13 -24 -6
-3 5 1 9 9 9 8 0 15 -2 15 -3z m-2100 -16 c0 7 5 10 11 6 8 -4 7 -9 -2 -14
-16 -10 -41 -1 -33 12 4 6 10 5 15 -3 7 -11 9 -11 9 -1z m465 2 c-3 -5 -12
-10 -18 -10 -7 0 -6 4 3 10 19 12 23 12 15 0z m275 -2 c0 -4 -9 -8 -21 -8 -11
0 -18 4 -15 8 3 5 12 9 21 9 8 0 15 -4 15 -9z m70 -21 c0 -5 -4 -5 -10 -2 -5
3 -10 14 -10 23 0 15 2 15 10 2 5 -8 10 -19 10 -23z m57 26 c-4 -3 1 -12 11
-20 9 -8 11 -12 5 -8 -7 3 -13 1 -13 -6 0 -18 -13 -1 -17 21 -2 11 2 20 9 20
6 0 8 -3 5 -7z m193 -8 c0 -8 -4 -15 -10 -15 -5 0 -7 7 -4 15 4 8 8 15 10 15
2 0 4 -7 4 -15z m327 -7 c-3 -8 -6 -5 -6 6 -1 11 2 17 5 13 3 -3 4 -12 1 -19z
m113 18 c0 -2 -7 -7 -16 -10 -8 -3 -12 -2 -9 4 6 10 25 14 25 6z m570 -11 c11
-13 10 -14 -4 -9 -9 3 -16 10 -16 15 0 13 6 11 20 -6z m230 0 c7 -9 8 -15 2
-15 -5 0 -12 7 -16 15 -3 8 -4 15 -2 15 2 0 9 -7 16 -15z m-2593 -17 c-3 -8
-6 -5 -6 6 -1 11 2 17 5 13 3 -3 4 -12 1 -19z m336 3 c3 -13 1 -18 -9 -14 -7
2 -10 11 -7 19 7 19 10 18 16 -5z m241 4 c3 -8 1 -15 -4 -15 -6 0 -10 7 -10
15 0 8 2 15 4 15 2 0 6 -7 10 -15z m86 5 c0 -5 -2 -10 -4 -10 -3 0 -8 5 -11
10 -3 6 -1 10 4 10 6 0 11 -4 11 -10z m126 -9 c0 -11 -4 -17 -8 -15 -4 3 -8
12 -8 20 0 8 4 14 8 14 4 0 8 -9 8 -19z m1124 9 c0 -5 -8 -10 -17 -10 -15 0
-16 2 -3 10 19 12 20 12 20 0z m-1046 -9 c4 -5 -3 -7 -14 -4 -23 6 -26 13 -6
13 8 0 17 -4 20 -9z m436 -11 c-11 -21 -30 -27 -30 -9 0 5 4 8 9 5 5 -3 11 1
15 9 3 8 8 15 11 15 3 0 1 -9 -5 -20z m1137 -12 c4 -28 -6 -18 -12 12 -2 12
-1 20 2 16 4 -4 8 -16 10 -28z m-2615 7 c2 3 5 -1 5 -8 0 -16 -29 -19 -39 -3
-10 15 2 28 16 17 7 -6 15 -9 18 -6z m108 5 c0 -5 -8 -10 -17 -10 -15 0 -16 2
-3 10 19 12 20 12 20 0z m690 6 c0 -2 -7 -6 -15 -10 -8 -3 -15 -1 -15 4 0 6 7
10 15 10 8 0 15 -2 15 -4z m971 -23 c22 6 23 5 5 -8 -14 -11 -22 -11 -37 -2
-10 6 -19 18 -19 26 0 11 4 10 14 -4 9 -13 20 -16 37 -12z m719 12 c-7 -8 -18
-15 -24 -15 -6 0 -2 7 8 15 25 19 32 19 16 0z m-2412 -17 c11 -14 10 -16 -8
-11 -11 3 -23 10 -27 16 -3 6 -1 7 5 3 7 -4 12 -2 12 5 0 7 1 10 3 8 1 -2 8
-12 15 -21z m55 2 c-3 -11 -7 -20 -9 -20 -2 0 -4 9 -4 20 0 11 4 20 9 20 5 0
7 -9 4 -20z m513 0 c0 -11 -4 -20 -8 -20 -10 0 -11 24 -1 33 9 9 9 10 9 -13z
m903 -1 c-16 -10 -23 -4 -14 10 3 6 11 8 17 5 6 -4 5 -9 -3 -15z m106 11 c3
-5 -1 -10 -10 -10 -9 0 -13 5 -10 10 3 6 8 10 10 10 2 0 7 -4 10 -10z m42 -12
c-3 -8 -6 -5 -6 6 -1 11 2 17 5 13 3 -3 4 -12 1 -19z m243 18 c0 -2 -8 -10
-17 -17 -16 -13 -17 -12 -4 4 13 16 21 21 21 13z m104 -10 c-3 -8 -1 -17 5
-21 6 -3 11 -12 11 -18 0 -7 -5 -4 -11 6 -5 9 -22 18 -37 18 -21 1 -22 2 -7 6
11 3 24 9 30 14 13 13 15 11 9 -5z m184 -11 c-3 -3 -9 2 -12 12 -6 14 -5 15 5
6 7 -7 10 -15 7 -18z m429 19 c-3 -3 -12 -4 -19 -1 -8 3 -5 6 6 6 11 1 17 -2
13 -5z m-2485 -36 c-8 -8 -9 -4 -5 13 4 13 8 18 11 10 2 -7 -1 -18 -6 -23z
m273 22 c3 -5 1 -10 -4 -10 -6 0 -11 5 -11 10 0 6 2 10 4 10 3 0 8 -4 11 -10z
m138 -28 c18 -30 18 -31 -2 -29 -14 1 -17 5 -10 13 7 9 3 19 -13 34 -13 13
-17 21 -8 18 8 -3 23 -19 33 -36z m277 26 c0 -4 -7 -8 -15 -8 -8 0 -15 4 -15
8 0 5 7 9 15 9 8 0 15 -4 15 -9z m264 -3 c-4 -8 -11 -12 -16 -9 -6 4 -5 10 3
15 19 12 19 11 13 -6z m-441 -32 c-3 -7 -10 -13 -15 -13 -6 0 -5 6 2 15 9 11
9 15 1 15 -7 0 -9 5 -5 11 9 15 24 -9 17 -28z m143 15 c4 -7 3 -8 -5 -4 -7 4
-15 -2 -20 -16 -6 -14 -10 -17 -10 -7 -1 8 4 20 11 27 15 15 15 15 24 0z m119
2 c-3 -5 -12 -10 -18 -10 -7 0 -6 4 3 10 19 12 23 12 15 0z m558 -6 c4 -1 12
-2 17 -3 6 0 10 -8 10 -16 0 -8 -4 -15 -10 -15 -5 0 -10 6 -10 14 0 8 -7 13
-16 12 -9 0 -19 5 -22 13 -3 10 -1 11 9 5 8 -5 17 -9 22 -10z m174 -6 c-3 -8
-6 -5 -6 6 -1 11 2 17 5 13 3 -3 4 -12 1 -19z m197 -10 c-4 -6 -10 -5 -15 3
-14 22 -10 33 6 19 8 -7 12 -17 9 -22z m639 25 c-7 -2 -19 -2 -25 0 -7 3 -2 5
12 5 14 0 19 -2 13 -5z m-1250 -15 c-6 -11 -41 -10 -47 1 -3 4 8 8 23 7 16 -1
27 -4 24 -8z m71 0 c-5 -7 -2 -9 9 -5 15 6 34 -20 22 -31 -3 -3 -5 -1 -5 5 0
6 -9 13 -20 16 -21 5 -28 27 -9 27 5 0 7 -5 3 -12z m132 -9 c19 -22 19 -22 -3
-10 -24 12 -39 31 -25 31 5 0 17 -10 28 -21z m-1352 -1 c-3 -4 -9 -8 -15 -8
-5 0 -9 4 -9 8 0 5 7 9 15 9 8 0 12 -4 9 -9z m741 2 c-3 -5 -11 -10 -16 -10
-6 0 -7 5 -4 10 3 6 11 10 16 10 6 0 7 -4 4 -10z m142 -2 c-2 -7 -11 -13 -20
-13 -9 0 -16 -5 -14 -10 1 -6 6 -9 10 -7 5 1 5 -2 2 -9 -5 -7 -15 -3 -30 11
-13 12 -28 19 -34 16 -5 -4 -12 -2 -16 3 -3 6 15 12 42 14 27 2 52 4 56 5 5 1
7 -4 4 -10z m34 -6 c-11 -20 -41 -48 -41 -38 0 6 41 56 47 56 2 0 -1 -8 -6
-18z m529 8 c0 -5 -4 -10 -10 -10 -5 0 -10 5 -10 10 0 6 5 10 10 10 6 0 10 -4
10 -10z m40 0 c0 -5 -2 -10 -4 -10 -3 0 -8 5 -11 10 -3 6 -1 10 4 10 6 0 11
-4 11 -10z m981 -5 c5 4 6 -1 2 -10 -5 -13 -7 -14 -14 -3 -5 7 -8 18 -8 23 0
6 3 4 6 -3 2 -6 9 -10 14 -7z m284 -3 c-3 -3 -11 0 -18 7 -9 10 -8 11 6 5 10
-3 15 -9 12 -12z m-1772 -11 c2 -10 1 -24 -3 -30 -4 -7 -7 1 -8 18 -1 35 3 40
11 12z m191 10 c3 -5 -1 -11 -9 -14 -9 -4 -12 -1 -8 9 6 16 10 17 17 5z m113
-13 c-3 -8 -6 -5 -6 6 -1 11 2 17 5 13 3 -3 4 -12 1 -19z m237 6 c5 -14 4 -15
-9 -4 -17 14 -19 20 -6 20 5 0 12 -7 15 -16z m212 -13 c-4 -6 -13 -11 -19 -11
-8 0 -7 3 2 9 8 5 10 14 6 22 -6 11 -5 11 5 2 7 -6 9 -16 6 -22z m634 19 c0
-5 -4 -10 -9 -10 -12 0 -9 -33 4 -43 6 -5 4 -7 -5 -4 -13 3 -17 24 -11 60 2
11 21 9 21 -3z m190 6 c0 -2 -7 -7 -16 -10 -8 -3 -12 -2 -9 4 6 10 25 14 25 6z
m70 0 c0 -2 -7 -7 -16 -10 -8 -3 -12 -2 -9 4 6 10 25 14 25 6z m-2115 -16 c3
-5 1 -10 -4 -10 -6 0 -11 5 -11 10 0 6 2 10 4 10 3 0 8 -4 11 -10z m125 -2 c0
-5 -8 -8 -17 -8 -15 0 -16 -2 -3 -10 20 -13 -49 -1 -70 12 -10 6 -5 8 18 4 18
-3 31 -2 28 3 -3 5 5 8 19 7 14 0 25 -4 25 -8z m1030 8 c0 -2 -7 -6 -15 -10
-8 -3 -15 -1 -15 4 0 6 7 10 15 10 8 0 15 -2 15 -4z m990 0 c0 -3 -4 -8 -10
-11 -5 -3 -10 -1 -10 4 0 6 5 11 10 11 6 0 10 -2 10 -4z m-1990 -27 c0 -5 -7
-9 -15 -9 -15 0 -20 12 -9 23 8 8 24 -1 24 -14z m347 -1 c-3 -8 -6 -5 -6 6 -1
11 2 17 5 13 3 -3 4 -12 1 -19z m467 14 c2 -4 -7 -8 -22 -9 -24 -2 -24 -1 -7
7 11 5 21 9 22 9 1 1 4 -3 7 -7z m136 4 c0 -2 -7 -6 -15 -10 -8 -3 -15 -1 -15
4 0 6 7 10 15 10 8 0 15 -2 15 -4z m710 -15 c0 -6 -4 -13 -10 -16 -5 -3 -10 1
-10 9 0 9 5 16 10 16 6 0 10 -4 10 -9z m214 0 c-9 -9 -34 -9 -34 -1 0 5 9 8
20 7 10 -1 17 -3 14 -6z m-1849 -11 c3 -5 1 -10 -4 -10 -6 0 -11 5 -11 10 0 6
2 10 4 10 3 0 8 -4 11 -10z m259 -6 c3 -8 2 -13 -3 -10 -5 3 -12 -1 -15 -10
-4 -9 -9 -14 -12 -11 -4 4 16 47 22 47 1 0 5 -7 8 -16z m176 9 c-8 -4 -21 -13
-28 -22 -11 -14 -11 -13 -2 7 6 12 18 22 28 21 14 0 14 -2 2 -6z m47 0 c-9 -2
-15 -9 -12 -14 4 -5 1 -9 -4 -9 -12 0 -14 13 -4 23 3 4 13 6 22 6 13 -1 12 -2
-2 -6z m78 -3 c3 -6 -1 -7 -9 -4 -18 7 -21 14 -7 14 6 0 13 -4 16 -10z m152
-5 c0 -8 -4 -12 -9 -9 -5 3 -6 10 -3 15 9 13 12 11 12 -6z m143 5 c0 -5 -2
-10 -4 -10 -3 0 -8 5 -11 10 -3 6 -1 10 4 10 6 0 11 -4 11 -10z m-460 -4 c0
-2 -7 -7 -16 -10 -8 -3 -12 -2 -9 4 6 10 25 14 25 6z m-260 -16 c0 -5 -5 -10
-11 -10 -5 0 -7 5 -4 10 3 6 8 10 11 10 2 0 4 -4 4 -10z m55 0 c-3 -5 -14 -10
-23 -9 -14 0 -13 2 3 9 27 11 27 11 20 0z m135 0 c-8 -5 -24 -9 -35 -9 -16 1
-16 2 5 9 35 11 48 11 30 0z m605 0 c4 -6 10 -8 15 -5 5 3 11 1 14 -4 4 -5 -2
-8 -11 -6 -10 2 -26 4 -35 4 -10 1 -18 6 -18 11 0 13 27 13 35 0z m130 0 c3
-5 1 -10 -4 -10 -6 0 -11 5 -11 10 0 6 2 10 4 10 3 0 8 -4 11 -10z m102 4 c-3
-3 -12 -4 -19 -1 -8 3 -5 6 6 6 11 1 17 -2 13 -5z m598 -4 c19 -8 19 -9 -2 -9
-12 -1 -25 4 -28 9 -7 12 2 12 30 0z m-988 -6 c-3 -3 -12 -4 -19 -1 -8 3 -5 6
6 6 11 1 17 -2 13 -5z m46 -7 c4 3 7 2 7 -4 0 -12 -74 -22 -102 -15 -33 8 -18
18 22 14 27 -3 40 0 40 8 0 9 3 10 13 1 8 -6 17 -8 20 -4z m994 7 c-3 -3 -12
-4 -19 -1 -8 3 -5 6 6 6 11 1 17 -2 13 -5z m71 -1 c-10 -2 -28 -2 -40 0 -13 2
-5 4 17 4 22 1 32 -1 23 -4z m89 1 c-3 -3 -12 -4 -19 -1 -8 3 -5 6 6 6 11 1
17 -2 13 -5z m-1462 -19 c6 -2 -11 -4 -37 -4 -27 -1 -48 3 -48 7 0 7 62 5 85
-3z m102 0 c0 -8 -6 -15 -14 -15 -17 0 -17 17 0 23 6 3 12 6 13 6 0 1 1 -6 1
-14z m-220 -1 c-3 -3 -12 -4 -19 -1 -8 3 -5 6 6 6 11 1 17 -2 13 -5z m153 2
c0 -3 -4 -8 -10 -11 -5 -3 -10 -1 -10 4 0 6 5 11 10 11 6 0 10 -2 10 -4z m30
-6 c0 -5 -5 -10 -11 -10 -5 0 -7 5 -4 10 3 6 8 10 11 10 2 0 4 -4 4 -10z"/>
<path d="M8400 4740 c0 -5 5 -10 10 -10 6 0 10 5 10 10 0 6 -4 10 -10 10 -5 0
-10 -4 -10 -10z"/>
<path d="M3727 7440 c-141 -22 -243 -58 -356 -125 l-44 -26 -64 31 c-192 91
-382 110 -598 60 -214 -50 -425 -188 -531 -347 -28 -43 -40 -53 -63 -53 -53 0
-187 -41 -278 -85 -159 -78 -302 -213 -373 -355 -35 -69 -70 -208 -70 -276 0
-60 -1 -62 -32 -75 -54 -22 -172 -123 -223 -190 -95 -126 -142 -262 -151 -434
-7 -138 10 -227 66 -341 l41 -82 -16 -54 c-26 -84 -32 -288 -11 -382 51 -228
232 -419 445 -469 52 -12 54 -13 81 -72 63 -138 198 -263 332 -308 15 -5 13
-12 -12 -59 -41 -77 -87 -219 -105 -328 -17 -111 -20 -297 -4 -370 11 -50 11
-51 -26 -92 -133 -146 -169 -495 -69 -665 39 -67 87 -98 151 -97 29 0 53 -3
53 -8 0 -12 73 -57 110 -68 42 -12 106 3 138 33 43 40 56 77 55 159 l0 76 35
7 c72 13 112 63 112 140 0 167 -128 396 -268 480 -57 34 -62 47 -62 180 0 168
29 329 86 476 l26 66 133 -5 c115 -4 145 -2 225 18 l91 23 66 -32 c36 -18 95
-41 131 -53 l65 -20 -6 -446 c-7 -588 -34 -864 -127 -1312 -60 -292 -96 -410
-141 -472 -39 -51 -69 -129 -69 -175 0 -76 66 -133 205 -176 161 -50 240 -62
415 -62 156 0 168 1 215 25 41 21 53 32 64 67 21 59 3 112 -58 173 -86 86
-213 143 -389 175 -87 16 -93 19 -89 39 3 11 19 76 36 143 130 512 193 1142
177 1760 l-6 242 33 5 c17 3 54 8 80 11 102 13 238 70 325 135 27 21 54 34 58
30 17 -17 140 -58 211 -70 l71 -13 11 -61 c44 -256 61 -493 61 -856 0 -399
-26 -722 -85 -1047 -35 -192 -52 -251 -92 -318 -66 -112 -60 -202 16 -252 117
-79 614 -122 788 -68 90 27 124 95 89 178 -41 100 -241 189 -493 219 -64 8
-103 17 -103 24 0 6 9 47 19 90 84 344 126 937 102 1454 -9 208 -38 510 -56
600 -5 25 -4 25 104 42 126 20 224 52 327 107 85 46 75 61 99 -142 12 -96 16
-195 13 -328 -3 -192 -3 -192 -28 -208 -14 -9 -42 -31 -63 -50 -95 -85 -168
-358 -123 -465 13 -30 52 -70 78 -78 9 -3 8 -13 -1 -36 -65 -156 99 -274 257
-187 67 36 144 119 183 198 96 190 71 456 -56 597 -20 22 -22 31 -15 80 26
172 1 467 -62 736 l-21 92 30 39 c17 21 44 65 60 98 28 59 28 59 104 85 103
35 181 83 259 161 199 196 263 505 158 767 l-21 53 26 27 c37 39 85 140 103
219 22 96 20 259 -5 355 -41 159 -133 288 -263 371 -26 16 -26 17 -21 109 16
262 -140 489 -397 578 -47 16 -115 32 -152 36 l-68 7 -29 51 c-71 126 -166
211 -312 281 -145 69 -372 106 -512 85z m221 -150 c251 -32 443 -169 520 -371
9 -24 16 -26 89 -32 278 -22 468 -177 504 -408 10 -65 9 -83 -9 -152 l-20 -78
27 -16 c139 -84 196 -142 247 -248 46 -96 67 -201 60 -292 -11 -130 -51 -222
-147 -344 l-21 -26 31 -70 c40 -91 52 -151 52 -248 1 -104 -13 -162 -61 -262
-70 -145 -217 -259 -377 -294 -73 -16 -77 -19 -97 -79 -69 -210 -282 -371
-566 -424 -225 -43 -557 5 -590 85 -17 40 -54 48 -88 20 -133 -107 -218 -158
-300 -180 -73 -20 -194 -30 -272 -22 -78 8 -230 48 -230 61 0 5 22 22 50 40
117 75 205 228 155 270 -21 18 -49 4 -88 -44 -50 -61 -161 -148 -236 -185 -35
-18 -97 -41 -139 -52 -77 -19 -226 -26 -236 -10 -3 4 24 40 59 79 74 82 95
133 76 181 -15 34 -59 56 -93 46 -60 -19 -158 -110 -224 -209 l-36 -54 -56 19
c-70 24 -141 70 -186 119 -42 46 -92 141 -101 193 -9 46 -16 50 -94 66 -240
47 -404 249 -403 496 0 104 13 166 49 247 l26 58 -36 39 c-72 80 -107 187
-107 331 0 102 18 178 67 280 49 102 157 210 265 262 l76 37 4 123 c5 143 27
211 103 313 130 175 351 285 574 285 121 0 196 -19 285 -72 58 -34 73 -39 95
-32 16 6 27 18 29 33 7 49 -148 163 -260 191 -27 7 -48 17 -48 24 0 6 29 38
64 72 76 72 229 154 351 185 113 30 270 30 385 0 170 -44 328 -157 429 -306
37 -54 53 -71 75 -73 94 -11 69 100 -59 258 l-65 80 50 25 c44 23 158 58 220
68 49 8 147 7 228 -3z m802 -4185 c30 -16 61 -66 74 -119 4 -16 7 -73 7 -126
0 -129 -24 -196 -97 -267 -52 -52 -90 -71 -119 -59 -24 9 -18 35 27 123 36 72
41 91 42 150 1 66 0 68 -26 71 -23 3 -28 -2 -42 -45 -21 -63 -42 -93 -66 -93
-42 0 -47 59 -15 170 31 110 71 169 130 196 39 17 50 17 85 -1z m-2742 -182
c90 -43 216 -279 182 -343 -18 -34 -51 -22 -87 35 -57 88 -63 95 -87 95 -55 0
-58 -61 -10 -209 29 -91 31 -184 3 -189 -43 -8 -124 109 -154 223 -18 72 -27
82 -50 59 -15 -15 -16 -27 -10 -78 13 -101 12 -131 -5 -131 -24 0 -49 66 -56
147 -16 182 62 377 162 408 33 10 65 5 112 -17z"/>
<path d="M4195 6831 c-51 -13 -111 -49 -139 -81 -29 -35 -30 -39 -17 -74 13
-32 43 -36 111 -13 64 22 149 19 199 -7 17 -9 56 -39 87 -66 30 -28 58 -50 63
-50 21 0 61 43 61 66 0 67 -68 155 -153 197 -58 28 -160 42 -212 28z"/>
<path d="M2988 6756 c-138 -40 -257 -171 -258 -282 0 -28 6 -46 20 -59 29 -26
62 -8 100 54 34 56 79 93 147 123 42 18 58 20 156 14 120 -8 137 -2 137 43 0
89 -164 147 -302 107z"/>
<path d="M1993 6415 c-115 -58 -191 -160 -213 -285 -13 -74 -2 -168 25 -220
l17 -32 -74 -68 c-87 -80 -130 -156 -154 -270 -57 -271 123 -551 380 -591 52
-8 72 -7 117 8 46 15 54 22 57 45 4 34 -14 43 -98 52 -86 8 -196 61 -245 118
-20 24 -48 67 -63 98 -24 49 -27 66 -27 160 0 98 2 109 33 172 40 81 120 158
194 186 77 29 82 45 31 90 -59 52 -76 93 -76 177 0 76 25 149 66 193 33 36 97
77 140 91 53 18 71 55 41 85 -24 24 -92 20 -151 -9z"/>
<path d="M4249 6425 c-55 -18 -137 -88 -172 -148 -51 -86 -72 -180 -72 -317 0
-143 20 -223 79 -314 72 -111 151 -159 268 -164 66 -4 85 0 132 21 265 122
303 588 69 838 -76 82 -203 116 -304 84z m170 -124 c89 -46 155 -158 174 -299
30 -225 -80 -412 -243 -412 -39 0 -123 44 -153 80 -101 120 -117 377 -34 534
56 106 161 145 256 97z"/>
<path d="M4254 6101 c-31 -13 -72 -67 -84 -109 -13 -49 -13 -157 1 -207 6 -21
26 -54 45 -73 31 -31 39 -34 77 -29 77 10 127 94 127 214 0 139 -82 239 -166
204z"/>
<path d="M3082 6363 c-58 -20 -142 -100 -180 -171 -42 -79 -62 -168 -62 -282
0 -113 19 -201 62 -288 121 -245 396 -291 568 -96 204 232 104 732 -166 833
-65 25 -159 26 -222 4z m192 -117 c51 -21 109 -79 139 -138 93 -185 70 -422
-50 -528 -55 -48 -100 -64 -169 -58 -97 8 -183 93 -222 217 -27 88 -24 268 6
347 28 73 70 127 120 154 44 23 128 26 176 6z"/>
<path d="M3120 6012 c-31 -32 -60 -115 -60 -173 0 -126 59 -219 138 -219 83 0
132 81 132 214 0 83 -31 161 -73 189 -42 27 -103 22 -137 -11z"/>
<path d="M3000 5324 c-50 -21 -97 -60 -131 -107 -35 -48 -38 -90 -7 -111 29
-21 31 -21 68 10 17 15 32 25 34 23 2 -2 22 -48 44 -102 136 -331 352 -514
649 -549 185 -21 316 24 449 157 90 89 141 172 185 298 28 79 28 80 86 109 32
17 76 45 98 63 38 31 41 32 64 17 22 -15 25 -15 47 12 13 15 24 38 24 51 0 72
-159 159 -201 109 -11 -14 -10 -21 4 -47 15 -25 16 -33 5 -42 -25 -24 -147
-64 -259 -87 -98 -20 -144 -23 -329 -23 -253 0 -356 17 -585 93 l-140 47 3 34
c5 60 -35 77 -108 45z m615 -479 c39 -8 106 -32 150 -54 77 -37 185 -109 185
-123 0 -4 -26 -17 -57 -29 -170 -65 -418 -14 -547 114 -57 57 -55 63 41 88 84
22 138 23 228 4z"/>
<path d="M1503 4918 c-57 -69 -28 -235 57 -332 37 -42 111 -90 170 -111 101
-36 280 -8 280 44 0 37 -27 51 -99 51 -171 0 -282 83 -317 237 -8 38 -21 79
-27 93 -14 28 -48 38 -64 18z"/>
</g>
</svg>
