<?xml version="1.0" standalone="no"?>
<!DOCTYPE svg PUBLIC "-//W3C//DTD SVG 20010904//EN"
 "http://www.w3.org/TR/2001/REC-SVG-20010904/DTD/svg10.dtd">
<svg version="1.0" xmlns="http://www.w3.org/2000/svg"
 width="1024.000000pt" height="1024.000000pt" viewBox="0 0 1024.000000 1024.000000"
 preserveAspectRatio="xMidYMid meet">

<g transform="translate(0.000000,1024.000000) scale(0.100000,-0.100000)"
fill="#000000" stroke="none">
<path d="M7127 9810 c-144 -26 -314 -101 -422 -187 l-59 -48 -116 0 c-136 -1
-206 -17 -330 -77 -70 -34 -101 -58 -176 -133 -77 -76 -98 -106 -137 -185 -84
-171 -100 -373 -44 -541 23 -66 24 -77 11 -101 -45 -87 -56 -258 -24 -382 28
-112 73 -189 160 -277 135 -136 337 -215 531 -207 l85 3 65 -57 c92 -83 206
-140 369 -185 50 -13 102 -17 230 -17 146 0 176 3 263 27 99 26 187 66 265
118 41 28 45 29 130 23 223 -16 453 74 617 240 91 92 145 179 178 281 28 89
31 284 5 353 -15 41 -15 46 3 76 58 98 77 324 40 469 -55 215 -206 399 -406
498 -130 63 -280 90 -397 71 -51 -8 -60 -7 -75 10 -65 72 -238 170 -368 209
-79 23 -313 35 -398 19z m358 -164 c121 -34 265 -123 343 -211 l41 -47 64 16
c286 72 592 -120 683 -429 38 -131 17 -304 -52 -422 l-25 -43 19 -37 c32 -63
45 -139 39 -226 -12 -176 -141 -349 -328 -441 -93 -46 -199 -75 -272 -76 -21
0 -69 7 -107 16 l-69 15 -58 -47 c-67 -55 -190 -116 -283 -141 -91 -25 -329
-25 -420 0 -147 39 -292 135 -365 240 -20 29 -20 29 -79 18 -346 -64 -657 165
-656 482 1 71 16 131 51 202 l29 60 -26 54 c-30 62 -54 165 -54 232 -1 249
183 478 435 544 73 19 174 19 242 2 l52 -14 48 49 c95 97 247 179 395 213 81
18 271 13 353 -9z"/>
<path d="M7218 9325 c-189 -48 -343 -203 -356 -359 -4 -45 -1 -56 22 -83 53
-63 112 -47 175 46 22 32 58 74 81 93 146 126 369 28 336 -147 -10 -52 -58
-100 -147 -146 -43 -22 -98 -59 -123 -80 -93 -82 -130 -224 -77 -298 26 -37
90 -70 134 -71 85 0 177 82 200 180 4 16 25 36 61 58 152 91 242 276 216 446
-23 153 -130 299 -256 346 -74 27 -191 34 -266 15z"/>
<path d="M7172 8070 c-73 -52 -90 -119 -51 -190 29 -51 83 -80 148 -80 103 0
171 61 171 153 0 90 -65 147 -167 147 -51 0 -66 -5 -101 -30z"/>
<path d="M4145 7564 c-204 -37 -425 -135 -552 -247 l-36 -32 -161 -1 c-170 -1
-240 -11 -382 -59 -280 -94 -534 -308 -640 -538 -29 -64 -64 -197 -64 -242 0
-39 -8 -46 -85 -69 -246 -75 -464 -285 -564 -546 -42 -108 -61 -224 -62 -372
0 -137 11 -218 42 -314 l20 -61 -55 -104 c-103 -196 -142 -365 -133 -579 7
-145 31 -250 82 -359 107 -226 313 -400 540 -457 59 -15 65 -19 65 -43 0 -45
56 -188 99 -254 22 -34 60 -82 83 -107 75 -79 72 -69 44 -160 -89 -279 -66
-561 65 -822 l29 -57 -36 -11 c-114 -38 -272 -163 -332 -263 -77 -127 -44
-275 73 -328 107 -49 262 2 404 130 42 39 47 39 24 0 -33 -57 -127 -134 -197
-163 -36 -14 -72 -26 -80 -26 -21 0 -40 -54 -27 -78 63 -117 283 -80 436 73
109 109 161 244 152 395 -6 105 -25 158 -125 357 -109 218 -142 327 -142 474
0 75 24 225 43 268 l12 29 83 -39 c169 -79 330 -113 537 -112 169 0 290 22
415 73 l70 29 25 -80 c64 -203 95 -503 77 -746 -26 -353 -103 -613 -295 -993
-112 -221 -119 -238 -114 -283 2 -27 12 -56 23 -68 114 -126 835 -218 1038
-134 47 20 76 67 76 123 0 166 -226 279 -599 297 -63 3 -116 7 -119 9 -2 2 3
15 11 28 48 74 170 402 212 568 95 379 97 829 6 1187 -11 40 -18 73 -16 73 2
0 56 -9 120 -20 143 -25 373 -27 497 -5 108 19 246 64 338 110 40 20 78 34 85
31 20 -7 100 -116 132 -181 81 -161 121 -332 130 -555 14 -376 -83 -743 -291
-1090 -115 -193 -109 -264 29 -333 161 -81 574 -141 795 -117 168 19 237 51
253 120 38 163 -237 299 -658 326 l-100 6 62 127 c71 143 141 347 174 501 20
92 23 135 24 340 0 207 -3 249 -23 348 -27 133 -77 290 -125 395 l-35 76 66 6
c98 10 205 33 311 67 51 16 103 27 115 24 20 -5 21 -11 21 -108 0 -96 2 -107
30 -157 47 -85 144 -150 244 -163 20 -3 28 -16 55 -94 33 -94 100 -200 157
-248 153 -129 348 -106 424 48 33 68 44 190 26 306 -14 93 -63 249 -99 315
l-27 50 48 79 c90 151 136 359 115 525 l-9 75 39 56 c104 147 172 345 172 500
0 48 4 60 26 81 52 49 146 183 189 272 72 149 90 234 90 417 0 189 -14 249
-92 409 -49 100 -67 126 -142 201 -47 48 -102 95 -121 105 -19 10 -36 18 -37
19 -1 1 3 22 8 46 6 25 14 92 18 150 33 439 -227 850 -613 969 -37 11 -81 21
-97 21 -35 0 -53 18 -99 100 -94 169 -299 327 -520 401 -268 89 -523 77 -783
-38 l-57 -26 -98 46 c-182 85 -331 118 -531 116 -69 0 -162 -7 -206 -15z m480
-168 c109 -28 266 -100 376 -171 136 -88 245 -221 273 -334 10 -39 16 -46 39
-49 23 -3 30 2 43 35 37 88 -22 229 -151 358 l-83 83 72 21 c122 35 157 41
279 41 131 0 237 -18 337 -57 229 -90 421 -277 437 -428 l5 -44 57 -6 c123
-12 190 -28 266 -64 148 -69 260 -183 341 -346 67 -136 87 -223 87 -385 1
-123 -2 -142 -26 -210 -15 -41 -30 -83 -33 -92 -5 -12 7 -23 48 -44 131 -66
231 -171 303 -319 143 -294 81 -634 -169 -925 l-68 -80 -4 -87 c-5 -111 -22
-177 -73 -281 l-40 -84 -22 44 c-107 211 -301 373 -461 385 -55 4 -70 1 -118
-24 -164 -84 -184 -287 -45 -442 l34 -38 -53 -16 c-72 -23 -126 -73 -253 -235
-127 -164 -147 -203 -141 -281 3 -31 7 -62 9 -70 3 -10 -18 -21 -71 -38 -123
-40 -209 -54 -319 -54 -87 -1 -108 3 -129 18 -36 27 -36 35 3 63 39 27 75 78
75 104 0 9 -9 25 -20 36 -26 26 -37 21 -206 -91 -160 -106 -307 -180 -420
-210 -99 -27 -367 -38 -483 -19 -90 14 -217 53 -249 75 l-22 16 35 46 c39 51
45 95 18 125 -28 32 -55 20 -148 -62 -171 -153 -294 -219 -475 -256 -122 -24
-340 -15 -468 20 -99 27 -242 89 -242 104 0 4 11 41 24 80 34 100 98 218 178
331 l69 96 82 13 c101 15 192 58 242 113 66 74 30 112 -62 65 -173 -87 -353
-69 -460 47 -87 94 -141 234 -150 384 -6 89 -7 93 -29 93 -43 0 -68 -52 -72
-155 -7 -157 45 -297 154 -414 l62 -66 -52 -60 c-85 -97 -185 -235 -228 -313
-22 -40 -45 -71 -52 -69 -20 6 -106 120 -131 174 -33 69 -49 146 -42 204 7 54
0 59 -86 59 -26 0 -76 9 -110 21 -232 78 -400 261 -463 504 -28 107 -26 333 4
444 25 95 89 236 150 329 l41 63 -29 62 c-50 106 -64 178 -64 322 1 242 76
435 238 603 111 117 225 176 389 202 l77 13 0 62 c0 35 7 98 15 141 58 303
355 565 724 639 115 24 324 16 431 -15 103 -29 207 -81 262 -129 28 -25 56
-41 72 -41 32 0 61 40 52 74 -10 39 -116 128 -210 176 l-87 44 23 18 c44 36
224 117 313 143 136 39 177 44 335 41 117 -3 164 -9 245 -30z m1910 -3215 c92
-41 218 -190 270 -319 87 -213 70 -473 -42 -640 -52 -77 -193 -251 -263 -323
-84 -86 -166 -101 -252 -44 -92 61 -88 164 11 260 78 75 48 122 -84 132 -153
12 -191 93 -87 184 32 29 40 31 87 26 29 -3 92 -19 141 -36 48 -17 102 -31
118 -31 64 0 89 70 41 114 -14 13 -75 45 -135 72 -61 26 -109 53 -107 58 6 17
66 55 106 66 96 27 181 -1 277 -89 90 -83 144 -83 144 -1 0 58 -39 105 -205
245 -153 129 -195 183 -195 253 0 83 80 117 175 73z m138 -1451 c51 -151 24
-191 -45 -65 -21 39 -38 76 -38 84 0 15 38 61 50 61 3 0 18 -36 33 -80z
m-4212 -879 c-51 -72 -171 -159 -171 -125 0 17 44 75 77 100 96 74 137 85 94
25z"/>
<path d="M4642 6769 c-13 -5 -33 -33 -50 -71 -33 -74 -91 -129 -161 -153 -27
-10 -98 -20 -176 -24 -145 -8 -186 -21 -228 -70 -49 -58 -29 -89 75 -117 69
-18 236 -18 316 1 190 45 335 188 335 331 0 43 -5 60 -22 78 -26 27 -58 36
-89 25z"/>
<path d="M5879 6636 c-73 -29 -116 -60 -134 -96 -21 -40 -19 -65 8 -95 l22
-26 85 20 c172 42 303 19 404 -69 31 -27 63 -50 69 -50 28 0 75 40 82 69 14
63 -65 170 -162 219 -112 57 -274 70 -374 28z"/>
<path d="M2919 6296 c-138 -38 -289 -165 -353 -296 -41 -85 -66 -187 -66 -277
l0 -62 -72 -35 c-167 -81 -278 -216 -329 -403 -47 -169 -1 -345 104 -399 20
-11 32 -12 48 -4 22 12 19 36 -11 80 -40 58 -52 170 -29 270 42 186 210 349
378 369 33 4 63 10 66 12 3 3 -3 41 -12 83 -16 73 -16 84 0 159 21 104 58 177
129 253 85 91 216 153 323 154 22 0 47 5 55 10 13 8 13 13 0 37 -32 58 -126
78 -231 49z"/>
<path d="M4306 6224 c-174 -42 -337 -197 -401 -381 -36 -101 -48 -202 -42
-333 6 -137 23 -207 79 -320 79 -162 256 -307 415 -340 96 -20 213 0 228 38 9
24 -5 31 -82 42 -138 19 -232 70 -335 178 -126 134 -184 300 -175 497 11 248
132 427 334 494 121 41 252 17 363 -65 58 -43 77 -69 32 -45 -55 29 -143 -4
-192 -70 -44 -61 -64 -132 -64 -229 -1 -116 22 -178 88 -246 60 -62 109 -80
171 -63 53 15 117 82 139 145 22 64 31 187 18 244 l-11 45 23 -27 c23 -30 45
-35 64 -16 29 29 -3 126 -74 224 -134 189 -365 280 -578 228z"/>
<path d="M5965 6226 c-168 -41 -302 -178 -337 -347 -14 -70 -7 -91 29 -87 29
3 31 6 82 120 35 80 102 155 168 188 71 37 186 36 266 -2 31 -15 57 -29 57
-31 0 -3 -20 -2 -45 1 -163 18 -272 -161 -244 -403 13 -120 70 -220 139 -247
36 -14 105 -11 139 6 40 21 87 81 106 135 9 25 19 91 22 146 5 83 2 113 -16
178 -11 43 -33 96 -47 118 -22 35 -23 39 -5 30 27 -15 88 -87 122 -146 78
-134 108 -339 75 -505 -48 -233 -190 -386 -370 -398 -86 -5 -154 18 -253 84
-71 48 -84 52 -103 29 -18 -21 28 -95 86 -139 173 -132 426 -107 589 58 173
175 231 513 136 789 -74 213 -227 373 -400 419 -77 20 -127 21 -196 4z"/>
<path d="M5390 4540 c-239 -65 -500 -273 -500 -398 0 -75 64 -64 195 33 118
88 209 141 297 173 62 23 89 27 183 27 95 0 116 -3 152 -22 33 -18 47 -21 68
-13 51 19 58 104 12 148 -72 68 -259 92 -407 52z"/>
<path d="M7290 7351 c-83 -26 -141 -74 -181 -151 -33 -64 -34 -206 -2 -265 12
-22 27 -50 34 -62 21 -39 -39 -124 -104 -146 -6 -2 -11 -21 -10 -42 1 -48 38
-85 85 -85 41 0 100 60 123 126 l18 51 101 -1 c87 -1 107 2 144 22 143 76 208
216 167 358 -14 48 -27 69 -74 115 -38 37 -73 61 -106 72 -50 17 -151 21 -195
8z m187 -184 c18 -20 35 -48 39 -62 28 -111 -100 -211 -203 -158 -142 73 -79
273 81 260 42 -4 55 -10 83 -40z"/>
</g>
</svg>
